<?xml version="1.0" standalone="no"?>
<!DOCTYPE svg PUBLIC "-//W3C//DTD SVG 1.1//EN" "http://www.w3.org/Graphics/SVG/1.1/DTD/svg11.dtd" >
<svg xmlns="http://www.w3.org/2000/svg">
<metadata></metadata>
<defs>
<font id="adagescriptjfregular" horiz-adv-x="1304" >
<font-face units-per-em="2048" ascent="1638" descent="-410" />
<missing-glyph horiz-adv-x="563" />
<glyph horiz-adv-x="0" />
<glyph unicode="&#xd;" horiz-adv-x="563" />
<glyph unicode=" "  horiz-adv-x="563" />
<glyph unicode="&#x09;" horiz-adv-x="563" />
<glyph unicode="&#xa0;" horiz-adv-x="563" />
<glyph unicode="!" horiz-adv-x="577" d="M233 61q4 37 27 63t51 26q31 0 49.5 -26t14.5 -63q-2 -35 -25.5 -60.5t-52.5 -25.5t-47.5 26t-16.5 60zM315 219q-4 45 15 289q16 264 37 387q68 426 170 408q47 -8 47 -115q0 -113 -49 -316q-31 -127 -105 -393q-68 -244 -80 -278z" />
<glyph unicode="&#x22;" horiz-adv-x="608" d="M199 1210q-2 14 12 19q49 10 61 47q6 16 2 41q-55 14 -49 84q4 37 26.5 61.5t51.5 24.5q31 0 48.5 -24.5t15.5 -61.5q-8 -106 -68 -162q-39 -39 -82 -41q-16 -2 -18 12zM389 1210q-2 14 12 19q49 10 62 47q6 16 2 41q-55 14 -49 84q4 37 26.5 61.5t51.5 24.5 q31 0 48 -24.5t15 -61.5q-8 -106 -68 -162q-39 -39 -81 -41q-16 -2 -19 12z" />
<glyph unicode="#" horiz-adv-x="944" d="M82 502l27 84h172l71 221h-172l27 86h172l113 354h83l-112 -354h162l112 354h84l-112 -354h178l-27 -86h-178l-70 -221h176l-26 -84h-178l-123 -391h-86l125 391h-162l-123 -391h-86l125 391h-172zM367 586h159l72 221h-162z" />
<glyph unicode="$" horiz-adv-x="886" d="M94 352q0 47 32 83t79 36q39 0 64.5 -26.5t25.5 -65.5q0 -76 -107 -107q4 -53 138 -75l77 366q-166 131 -165 260q0 111 86 187q80 72 192 80l29 133q12 63 45 63q29 0 28 -43q0 -10 -2 -20l-30 -138q88 -14 143 -63q66 -57 66 -139q0 -49 -31 -84t-78 -35q-92 0 -92 96 q0 59 98 113q-2 43 -117 63l-69 -334q106 -80 143 -120q68 -80 68 -172q0 -123 -107 -199q-96 -68 -225 -70l-20 -98q-10 -45 -46 -45q-37 0 -26 45l22 104q-92 14 -151 64q-70 55 -70 141zM356 897q0 -74 88 -147l60 286q-59 -10 -101 -45q-47 -39 -47 -94zM395 190 q189 11 189 148q0 80 -119 176z" />
<glyph unicode="%" horiz-adv-x="1298" d="M106 862q0 147 95 281q106 150 248 143q117 -6 176 -100q53 -84 43 -213q68 10 145 106q66 80 96 160q27 33 35 33h100q39 0 39 -29q0 -4 -4 -10l-624 -1186q-12 -25 -33 -33l-84 -34q-12 -4 -25.5 6t-13.5 22q0 4 2 8l434 875q-33 -16 -82 -14q-33 -129 -112 -211 q-86 -90 -201 -86q-96 2 -165 81.5t-69 200.5zM260 813q0 -170 94 -174q129 -9 178 270q-109 66 -108 185q0 76 47 135l-16 4q-137 8 -185 -297q-10 -68 -10 -123zM473 1094q11 -66 70 -101q4 39 4 70q0 100 -37 141q-43 -68 -37 -110zM715 266q0 147 94 281 q106 150 248 143q109 -4 168 -88q53 -76 53 -192q0 -156 -84 -285q-96 -145 -246 -141q-96 2 -164.5 81.5t-68.5 200.5zM868 217q0 -170 95 -174q133 -8 180 291q12 76 12 133q0 164 -92 170q-137 8 -184 -297q-10 -68 -11 -123z" />
<glyph unicode="&#x26;" horiz-adv-x="1415" d="M104 1014q0 82 29 155q49 123 172 205t246 82q55 0 100 -16q186 -74 187 -312q0 -33 -4 -61q-27 -168 -82 -463q156 2 280 51v62q12 469 152 626q88 100 198 101q63 0 97 -39q27 -33 26 -70q0 -72 -63 -94q-18 -4 -35 -4q-20 0 -59 11.5t-60 6.5q-78 -10 -121 -86 q-59 -104 -67 -483q207 98 317 234q27 31 53 30q13 0 19 -8q8 -18 -16 -47q-43 -57 -138 -135q-123 -102 -237 -156q-35 -639 -381 -627q-264 10 -264 312q0 129 51 272q-111 25 -189 70q-98 59 -154.5 163.5t-56.5 219.5zM301 922q0 -160 86 -230q51 -41 143 -65 q59 127 119 256q90 215 90 336q1 110 -75 139q-35 14 -70 14q-92 0 -172 -94q-55 -66 -86 -148q-35 -94 -35 -208zM676 156q0 -94 45 -101q137 -18 229 162q64 121 78 361q-123 -39 -289 -39l-6 -29q-57 -291 -57 -354z" />
<glyph unicode="'" horiz-adv-x="407" d="M180 834q-2 14 13 18q49 10 61 47q6 16 2 41q-55 14 -49 84q4 37 26.5 61.5t51.5 24.5q31 0 48 -24.5t15 -61.5q-8 -106 -67 -162q-39 -39 -82 -41q-16 -2 -19 13z" />
<glyph unicode="(" horiz-adv-x="614" d="M100 571q0 70 9 129q39 295 323 574q127 125 160 125q14 -1 22 -17q4 -10 -20 -41q-33 -39 -66 -77q-211 -274 -272 -656q-23 -147 -23 -289q0 -131 20.5 -265t20.5 -136q0 -20 -10 -20q-27 0 -59 102q-18 61 -35 123q-70 236 -70 448z" />
<glyph unicode=")" horiz-adv-x="710" d="M115 -94q-6 10 18 41l66 78q211 274 272 655q23 147 23 289q0 131 -20.5 265t-20.5 136q0 20 10 21q27 0 59 -103q18 -61 35 -123q70 -236 70 -448q-1 -70 -9 -129q-39 -295 -323 -574q-127 -125 -160 -125q-14 0 -20 17z" />
<glyph unicode="*" horiz-adv-x="731" d="M233 1249q0 45 39 45q6 0 22.5 -4t27.5 -4q18 0 40 12l46 27l-43 27q-25 12 -43 12q-12 0 -27.5 -5t-22.5 -5q-39 0 -39 45q0 27 21.5 53.5t46.5 26.5q14 0 24.5 -7.5t19.5 -38t38 -47.5l47 -26v51q0 37 -23.5 59.5t-23.5 32.5q-6 55 63 56q74 0 68 -56 q0 -10 -22.5 -34.5t-22.5 -57.5v-49l41 22q25 14 39 48t24.5 41.5t22.5 7.5q25 0 46.5 -28.5t21.5 -55.5q0 -29 -25 -39q-16 -6 -52 -1t-57 -7l-41 -25l43 -25q23 -14 58 -10q39 4 49 0q27 -10 27 -39q0 -27 -20.5 -55.5t-47.5 -28.5q-12 0 -25.5 9.5t-27 43t-33.5 46.5 l-43 24v-49q0 -29 22.5 -58.5t22.5 -39.5q8 -53 -68 -53q-72 0 -63 53q2 16 24.5 45t22.5 53v49l-47 -26q-33 -18 -41 -49t-18.5 -39.5t-24.5 -8.5q-27 0 -46.5 28t-19.5 54z" />
<glyph unicode="+" horiz-adv-x="1105" d="M129 463l12 112h357l43 357h123l-43 -357h356l-12 -112h-357l-43 -357h-123l43 357h-356z" />
<glyph unicode="," horiz-adv-x="483" d="M162 -127q0 14 12 16q49 10 62 48q6 18 2 40q-55 14 -50 84q4 37 27 63t51 26q31 0 49.5 -26t14.5 -63q-8 -104 -68 -161q-39 -37 -82 -41q-18 -2 -18 14z" />
<glyph unicode="-" horiz-adv-x="792" d="M215 373l21 51q12 31 30 31h420q12 0 23.5 -10.5t7.5 -20.5l-21 -51q-12 -31 -30 -31h-420q-14 0 -25.5 10t-5.5 21z" />
<glyph unicode="." horiz-adv-x="503" d="M188 61q4 37 27 63t51 26q31 0 49.5 -26t14.5 -63q-2 -35 -25.5 -60.5t-52.5 -25.5t-47.5 26t-16.5 60z" />
<glyph unicode="/" horiz-adv-x="813" d="M59 -94l906 1696h98l-905 -1696h-99z" />
<glyph unicode="0" horiz-adv-x="1150" d="M76 502q0 268 170 518q190 281 448 270q180 -8 288 -148.5t108 -361.5q0 -101 -23 -205q-63 -287 -227 -448q-154 -150 -346 -145q-172 6 -295 151.5t-123 368.5zM324 410q0 -342 194 -353q137 -8 223 127.5t133 442.5q23 145 23 256q0 330 -190 342q-137 8 -236 -158 q-86 -152 -127 -422q-20 -131 -20 -235z" />
<glyph unicode="1" horiz-adv-x="856" d="M37 526q0 14 14 29q76 78 309 330q252 274 316 381q23 35 65 32q35 -4 35 -36q0 -13 -8 -31q-72 -176 -141 -615q-63 -412 -64 -559q0 -49 -127 -67q-20 -4 -41 -4q-109 0 -100 69q6 47 43 195q39 170 70 260q72 213 151 444q4 14 -4 17q-8 2 -20 -10q-68 -59 -201 -205 q-98 -115 -228 -256q-10 -8 -24 -8q-45 0 -45 34z" />
<glyph unicode="2" horiz-adv-x="1116" d="M27 27q0 82 215 270q102 86 202 170q150 129 222 223q139 180 139 346q0 145 -135 178q-31 6 -64 7q-92 0 -170 -51.5t-106 -120.5q-18 -43 -19 -93q0 -84 39 -114q45 -37 115 -37q25 0 29 -21q10 -33 -31 -49q-49 -20 -117 -20q-100 0 -158 59q-53 53 -53 141 q0 141 113 244q147 133 373 133q154 0 262 -69q139 -90 139 -262q0 -158 -123 -283q-102 -100 -274 -199q-184 -109 -205 -125q-37 -33 -92 -88q-4 -4 -2 -8q4 -2 10 0q29 6 106 -8q51 -8 168 -60q100 -45 148 -43q76 2 137 71t78 69q16 -1 24 -17q8 -20 -8 -51 q-37 -74 -121 -147q-109 -94 -217 -101q-88 -6 -233.5 69t-194.5 69q-68 -8 -96 -46q-14 -25 -27 -49q-12 -16 -39 -16q-35 0 -34 29z" />
<glyph unicode="3" horiz-adv-x="1153" d="M70 285q0 35 8 69q27 104 127 105q45 0 83 -28t38 -73q0 -37 -45 -79.5t-45 -90.5q0 -127 198 -135q143 -6 243.5 94.5t100.5 243.5q0 100 -63.5 170t-161.5 70q-25 0 -66 -5t-53 -5q-41 0 -45 32q-6 41 33 56q29 12 72 6q104 -18 211 61q47 37 82.5 112t35.5 146 q0 80 -47 127q-55 53 -145 53q-135 0 -213 -75q-47 -45 -47 -95q0 -55 55 -88q23 -12 51 -12q12 0 74 12q27 6 27 -26q0 -47 -82 -72q-63 -18 -117 -16q-49 4 -92 37q-55 43 -56 114q0 29 11 62q29 92 161 166q145 82 306 71q158 -12 248 -81.5t90 -184.5q-1 -224 -275 -324 q-25 -8 -24 -14q0 -4 12 -6q102 -10 184 -96t82 -189q0 -150 -123 -268q-133 -131 -354 -149q-33 -2 -64 -3q-188 0 -301.5 88.5t-113.5 219.5z" />
<glyph unicode="4" horiz-adv-x="1017" d="M76 459q0 10 6 20q45 68 88 133q86 135 137 260q39 98 84 238q39 127 45 137q18 41 99 41q109 0 92 -86q-20 -106 -191 -377q-139 -221 -178 -258q-10 -8 -10 -14q0 -8 18 -8q61 0 170 -2q55 0 154 -13q82 211 213 402q23 33 45 24q20 -8 6 -47q-29 -78 -57 -155 q-47 -137 -70 -238q27 -4 43 -4q111 -6 160 10q29 10 28 -26q0 -31 -32 -41q-47 -16 -213 -6q-20 -166 -51 -365q-10 -41 -56.5 -69.5t-91.5 -28.5q-86 0 -74 69q20 129 121 404q-297 20 -364 8q-18 -4 -78 -45q-10 -8 -26.5 5t-16.5 32z" />
<glyph unicode="5" horiz-adv-x="1120" d="M82 285q0 59 35 101t94 42q45 0 75.5 -26.5t30.5 -71.5q0 -35 -33.5 -77t-33.5 -75q0 -96 168 -110q141 -12 237 77q88 80 123 222q14 63 15 118q0 229 -211 246q-29 2 -54 2q-170 0 -274 -125q-23 -29 -47 -28q-47 0 -47 47q0 12 8 22q33 33 74 86q10 37 57 226 q29 121 66 284q4 49 77 49q27 0 50 -8q135 -53 288 -53q78 0 133 20q80 27 111 13q33 -15 2 -60q-31 -41 -113 -84q-94 -49 -188 -59q-33 -4 -72 -4q-160 0 -219 31q-23 10 -35 -23q-10 -20 -77 -274q-4 -20 0 -25q6 -4 34 10q74 33 222 33q35 0 67 -2q135 -16 242 -90 q145 -102 135 -270q-10 -190 -169 -326.5t-370 -136.5q-182 0 -299 96q-102 88 -102 203z" />
<glyph unicode="6" horiz-adv-x="1126" d="M90 446q0 80 23 168q57 231 284 424q178 152 371 219q84 31 137 31q51 0 51 -24q0 -23 -45 -37q-213 -66 -362 -223q-166 -178 -201 -373q-4 -16 4 -17q8 0 25 17q135 147 315 137q129 -6 213 -82q100 -88 101 -240q-1 -36 -7 -79q-31 -184 -182 -291q-137 -94 -307 -88 q-156 6 -279 118q-141 129 -141 340zM319 334q20 -258 195 -277q100 -12 170 62q78 79 96 241q4 49 4 93q0 229 -182 225q-131 -4 -221 -150q-6 -10 -25.5 -11t-23.5 -13q-23 -55 -13 -170z" />
<glyph unicode="7" horiz-adv-x="1026" d="M141 825q0 29 15 52q27 47 59 165q29 96 61 226q4 27 33 26q29 0 23 -43q-2 -23 -17 -98q94 111 199 125q31 4 59 4q98 0 170 -51q86 -66 134 -55q68 16 96 65q12 23 39 12q20 -10 4 -45q-61 -119 -244 -532q-59 -147 -209 -598q-33 -94 -170 -94q-102 0 -102 63 q0 72 127 297q98 174 178 287q182 256 248 389q10 18 4 29q-4 10 -17 4q-53 -23 -106 -15q-16 2 -115 47q-88 39 -145 35q-109 -8 -184 -133q-23 -109 -31 -135q-23 -90 -76 -78q-33 6 -33 51z" />
<glyph unicode="8" horiz-adv-x="1169" d="M70 307q2 123 139 232q82 66 151 90q29 10 0 30q-37 23 -73 76q-66 88 -66 189q0 27 4 53q25 133 155 223t296 84q174 -6 285 -82q120 -84 106 -221q-14 -164 -236 -254q-25 -8 -24 -18q0 -6 12 -9q49 -10 121 -77q104 -96 104 -226q0 -201 -161 -313q-143 -102 -351 -98 q-221 2 -343.5 88t-118.5 233zM250 297q-10 -238 299 -238q164 0 248 78q63 57 69 139q2 59 -14 92t-66 78q-37 37 -157 89q-63 27 -129 53q-16 8 -43 -2q-98 -39 -154 -123q-51 -76 -53 -166zM397 1004q0 -51 27 -87t133 -96q84 -47 125 -61q25 -8 43 -2q27 10 47 24 q47 33 90 89.5t43 134.5q0 84 -51 145q-59 70 -201 70q-100 0 -161 -45q-94 -66 -95 -172z" />
<glyph unicode="9" horiz-adv-x="1087" d="M111 829q0 39 6 82q31 184 182 291q137 94 307 88q156 -8 279 -119q141 -131 141 -340q1 -79 -22 -169q-57 -229 -285 -422q-178 -152 -371 -220q-84 -31 -137 -30q-51 0 -51 24q0 23 47 37q211 66 360 223q166 178 201 373q4 16 -4 17q-8 0 -25 -17q-133 -147 -315 -137 q-129 6 -213 82q-100 86 -100 237zM332 825q0 -229 182 -225q131 4 221 150q6 10 25.5 11t23.5 11q23 57 13 172q-20 258 -195 277q-100 10 -170 -62q-78 -80 -96 -241q-4 -51 -4 -93z" />
<glyph unicode=":" horiz-adv-x="542" d="M188 61q4 37 27 63t51 26q31 0 49.5 -26t14.5 -63q-2 -35 -25.5 -60.5t-52.5 -25.5t-47.5 26t-16.5 60zM281 588q2 35 25.5 60.5t51.5 25.5q29 0 47.5 -25.5t16.5 -60.5q-4 -37 -26.5 -62.5t-51.5 -25.5q-31 0 -49.5 25.5t-13.5 62.5z" />
<glyph unicode=";" horiz-adv-x="466" d="M162 -129q-2 14 12 18q49 10 62 48q6 18 2 40q-55 14 -50 84q4 37 27 63t51 26q31 0 48.5 -26t15.5 -63q-8 -104 -68 -161q-39 -37 -82 -41q-16 -2 -18 12zM281 588q2 35 25.5 60.5t51.5 25.5q29 0 47.5 -25.5t16.5 -60.5q-4 -37 -26.5 -62.5t-51.5 -25.5 q-31 0 -49.5 25.5t-13.5 62.5z" />
<glyph unicode="&#x3c;" horiz-adv-x="1257" d="M119 547l14 119l1032 450l-12 -102l-936 -408l840 -407l-13 -103z" />
<glyph unicode="=" horiz-adv-x="1105" d="M109 289l14 123h835l-14 -123h-835zM147 623l15 122h835l-14 -122h-836z" />
<glyph unicode="&#x3e;" horiz-adv-x="1292" d="M152 96l12 103l934 407l-838 408l12 102l926 -450l-14 -119z" />
<glyph unicode="?" horiz-adv-x="1021" d="M289 1004q0 80 43 149q53 88 160 143q100 51 208 52q57 0 105 -15q168 -55 168 -246q0 -85 -43 -169q-66 -123 -162 -220q-141 -137 -158 -159q-90 -111 -157 -295q-6 -23 -37 -23q-27 0 -23 37q10 82 111 234q66 86 131 174q100 137 139 225q43 104 43 196 q0 201 -172 195q-90 -2 -168 -68.5t-86 -134.5q-8 -53 11.5 -99t46.5 -56q43 -18 122 2q18 6 27 -11q12 -23 -14 -43q-61 -49 -140 -49q-45 0 -79 23q-76 45 -76 158zM317 61q2 37 25 63t53 26q29 0 47.5 -26t14.5 -63q-2 -35 -24.5 -60.5t-53.5 -25.5q-29 0 -47.5 26 t-14.5 60z" />
<glyph unicode="@" horiz-adv-x="1908" d="M133 424q0 371 262 641q279 285 699 285q389 0 596 -222q172 -184 172 -454q0 -246 -131 -443q-141 -213 -353 -213q-176 0 -204 195q-133 -193 -300 -193q-113 0 -192 86q-86 94 -86 248q0 199 158.5 380t328.5 181q156 0 215 -176l48 154h151l-174 -608 q-12 -61 -12 -101q0 -102 82 -102q123 0 247 131q162 168 162 453q0 274 -178 444q-186 178 -508 178q-356 0 -594 -223q-260 -244 -260 -662q0 -291 191 -487q215 -225 606 -225q340 0 614 205l49 -46q-147 -104 -266 -151q-186 -76 -412 -76q-367 0 -618 189 q-293 219 -293 612zM739 295q0 -82 35 -139q39 -72 113 -72q150 0 260 201q94 172 98 344q0 92 -43 153q-49 72 -141 72q-119 0 -227 -229q-94 -199 -95 -330z" />
<glyph unicode="A" d="M39 457q0 223 121 454q145 281 418 482q265 194 489 194h2q59 0 111 -16q190 -59 190 -248q0 -72 -27 -129q-18 -39 -38 -39q-5 0 -9 2q-18 9 -18 27q0 13 10 30q27 53 27 115q0 117 -119 166q-57 25 -125 25q-184 0 -371 -164q-197 -172 -305 -447q-141 -354 -141 -598 q0 -121 41 -198q51 -102 160 -103q127 0 254 162q115 147 155 315l180 740q4 16 9 22q6 14 20 17l117 22q20 4 31 0q14 -6 8 -28q-27 -121 -109 -537q-76 -422 -76 -561q0 -96 29 -107q12 -4 27 -4q59 0 131 80q47 53 82 129q12 25 35 25q12 0 16 -9q4 -12 -2 -30 q-45 -115 -111 -178q-98 -94 -192 -95q-98 0 -154 107q-41 82 -41 183v9q2 20 -6 21q-8 2 -18 -19q-179 -325 -413 -325h-1q-184 0 -293 168q-94 145 -94 340z" />
<glyph unicode="B" horiz-adv-x="1298" d="M20 213q0 156 68 360q98 297 287 578q-31 145 -103 145q-82 0 -135 -112q-43 -86 -43 -146q0 -45 -33 -53q-23 -4 -22 35q0 92 63 209q86 160 228 160q102 0 162 -80q243 286 483 286h2q61 0 123 -20q166 -57 166 -227q0 -111 -62 -230q-45 -86 -119 -166 q-57 -66 -88 -84q-18 -10 -18 -18v-2q4 -6 22 -8q59 -8 127 -60q115 -88 115 -241q0 -54 -14 -113q-47 -205 -225 -340q-156 -119 -306 -119q-94 0 -158.5 61.5t-64.5 153.5q0 31 8 56q29 84 97 127q23 14 41 -11q14 -18 -13 -39q-55 -43 -69 -96q-4 -14 -4 -37 q0 -109 88 -137q33 -12 65 -12q98 0 180 94q76 88 115 229q27 96 27 185q0 207 -109 233q-18 4 -51 -16q-47 -29 -72 -37q-61 -23 -98 -23q-49 0 -57 37q-1 6 -1 12q0 55 113 91q55 8 135 22q18 4 39 25q31 31 70 96q57 96 70 182q10 55 10 103q0 225 -170 225 q-174 0 -371 -227q51 -104 51 -289q0 -115 -20 -258q-43 -291 -175 -527q-121 -216 -221 -217q-9 0 -18 2q-115 25 -115 238zM90 182q0 -131 53 -143q6 -1 12 -1q72 0 138 206q61 190 86 434q13 136 13 249q0 82 -7 152q-147 -240 -233 -534q-61 -217 -62 -363z" />
<glyph unicode="C" horiz-adv-x="1245" d="M47 78q41 84 217 258q-12 61 -12 127q0 207 104 432q135 291 336 496.5t359 205.5q35 0 63 -10q113 -41 113 -172q0 -164 -129 -348q-133 -193 -621 -629q-4 -49 -4 -94q0 -309 199 -317q12 -1 25 -1q137 0 243 83q102 78 145 194q33 92 33 160q0 125 -102 125 q-109 0 -158 -189q-22 -84 -22 -191v-9q0 -25 -19 -33q-20 -8 -43 20q-47 68 -47 150q0 51 18 104q31 92 98.5 155.5t151.5 63.5q33 0 64 -8q121 -39 121 -196q0 -93 -41 -195q-49 -115 -166 -201q-137 -100 -299 -100q-47 0 -94 8q-215 41 -295 289q-137 -141 -174 -209 q-18 -32 -38 -32q-10 0 -20 8q-14 10 -14 27q0 12 8 28zM489 530q236 197 388 369q117 131 194 270q82 150 82 248q0 51 -27.5 87t-76.5 36q-106 0 -240 -174q-141 -186 -234 -481q-61 -195 -86 -355z" />
<glyph unicode="D" horiz-adv-x="1527" d="M20 121q0 78 84 119q55 26 116 26q17 0 34 -2q129 -10 321 -119q27 33 48 74q47 98 98 393q51 307 104 430q70 170 191 291q35 35 53 10q12 -16 -12 -45q-57 -76 -86 -219q-6 -29 -19 -309q-10 -262 -45 -385q-51 -178 -215 -301q129 -59 242 -59q221 0 348 241 q104 197 104 436q0 41 -2 84q-25 358 -206 549q-160 168 -400 168q-51 0 -102 -8q-203 -33 -334 -174q-115 -125 -115 -260q0 -29 6 -53q27 -106 117 -152q52 -27 112 -27h15q57 2 117 33q25 12 39 -6q10 -12 0 -35q-25 -55 -88 -102q-78 -59 -174 -59q-18 0 -37 2 q-109 12 -189 94q-88 92 -88 221q0 98 56 207q90 174 295.5 284.5t433.5 110.5q119 0 227 -35q223 -70 336 -274q102 -182 102 -439q0 -313 -133 -559q-159 -297 -444 -309h-22q-147 0 -290 74q-157 -88 -347 -88h-9q-106 2 -174 55t-68 117zM92 125q-1 -6 -1 -11 q0 -85 175 -94h23q142 0 233 70q-184 109 -297 109q-123 0 -133 -74z" />
<glyph unicode="E" horiz-adv-x="1150" d="M41 385q0 29 4 59q23 184 197 330q109 90 204 125q20 6 21 19q0 6 -8 14q-147 127 -148 264q0 160 158 279q145 111 311 112h8q140 -1 230 -69q84 -65 84 -152v-16q-10 -102 -99.5 -170t-193.5 -74q-23 -2 -34 6t-11 21q0 39 45 43q66 6 115 51q51 49 51 122v11 q-13 165 -175 165q-14 0 -30 -1q-94 -8 -160.5 -84t-83.5 -185q-8 -45 -8 -86q0 -129 62 -196q14 -18 49 -8q25 8 86 16h12q36 0 64 -10q45 -13 45 -50q0 -69 -105 -69q-41 0 -127 25q-29 8 -51 -3q-49 -27 -131 -129q-125 -152 -141 -317q-6 -43 -7 -80q0 -325 301 -325h13 q158 2 280 110q102 90 140 207q20 63 20 121q0 149 -117 149h-2q-63 0 -118 -61q-51 -53 -74 -129q-26 -85 -26 -152q0 -34 7 -63q4 -27 -6 -33q-16 -10 -41 10q-82 61 -82 195q0 55 21 108q33 86 111.5 143.5t166.5 57.5q55 0 103 -22q114 -54 114 -196v-7q0 -125 -71 -244 q-160 -256 -500 -256q-188 0 -326 111q-147 121 -147 313z" />
<glyph unicode="F" horiz-adv-x="1296" d="M45 262q0 135 98 172q13 5 40 5q13 0 30 -1q57 -6 84 -23.5t27 -39.5q0 -23 -25 -43q-72 -59 -72 -139q0 -131 148 -166q39 -8 80 -9q190 0 272 170q45 94 70 265q20 156 41 311q-141 -23 -230 -51q-16 -6 -29.5 2t-13.5 20q2 20 35 37q86 43 250 62q29 156 82 276 q63 152 141 221q27 23 47 8q18 -12 -2 -53q-70 -131 -78 -291q-2 -28 -2 -66t2 -87q109 0 128.5 5t43 25.5t35.5 20.5q31 0 31 -41q0 -20 -10 -61q-12 -47 -13 -56q-4 -25 -18 -162q-2 -18 -27 -28q-41 -14 -41 22q0 10 4.5 43t4.5 54q0 55 -32 75.5t-102 28.5q2 -45 2 -88 q0 -222 -53 -363q-57 -145 -186 -243q-147 -115 -338 -115q-33 0 -70 4q-184 20 -278 119q-76 80 -76 180zM170 1196q0 41 10 82q33 137 164 224q125 83 272 83h13q102 -2 315 -41q145 -28 203 -28q15 0 24 2q100 16 123 45q4 6 15 6q24 0 26 -37q1 -9 1 -17q0 -96 -85 -126 q-27 -8 -61 -9q-70 0 -189 39q-92 33 -182 66q-104 33 -203 33q-184 0 -251 -119q-35 -61 -35 -121q0 -115 92 -168q63 -35 139 -35q43 0 88 12q41 12 49 -2q6 -16 -22.5 -47.5t-87.5 -62.5q-82 -43 -164 -43q-59 0 -117 24q-137 63 -137 240z" />
<glyph unicode="G" horiz-adv-x="1155" d="M135 475q51 53 117 53t90 -39q12 -20 12 -45q0 -47 -55 -90q-93 -74 -93 -147q0 -9 1 -17q4 -33 29 -59q156 207 272 418q-250 92 -250 383q0 193 127 407q141 238 316 238h6q178 -2 178 -211q0 -88 -35 -201q-53 -172 -209 -477q39 -12 80 -12q92 0 153 49 q55 45 115 125q80 106 104.5 133t55.5 21q22 -4 22 -20v-1q0 -10 -8 -20q-55 -57 -76 -138q-23 -90 -24 -235q0 -94 -2 -189q-20 -336 -383 -421q-74 -16 -152 -17q-162 0 -286 70q-57 -76 -93 -111q-25 -26 -43 -26q-10 0 -18 8q-9 10 -9 22q0 19 25 43q25 25 86 101 q-114 97 -114 237q0 108 61 168zM283 90q84 -47 196 -47q225 0 318 193q51 104 73 221q18 92 37 184q4 15 6 21q-4 2 -6 2q-10 -8 -20 -17q-78 -57 -88 -63q-94 -55 -183 -56q-29 0 -57 7q-61 -117 -108 -197q-70 -115 -168 -248zM444 1012q0 -111 33 -185q35 -80 111 -118 q198 424 198 653q0 55 -14 86q-29 63 -94 63q-74 0 -129 -90q-104 -170 -105 -409z" />
<glyph unicode="H" horiz-adv-x="1708" d="M41 238q0 70 45 116.5t92 46.5q53 1 78 -29q21 -25 21 -55q0 -6 -1 -12q-4 -23 -28.5 -63.5t-24.5 -73.5q0 -98 105 -121q33 -6 65 -6q215 0 344 229q37 66 78 170q-72 106 -72 207q0 76 43 135q56 74 153 74h5q53 219 57 346v22q0 308 -217 308q-106 0 -211 -74 q-117 -84 -157 -219q-23 -72 -23 -129q0 -74 38 -121t106 -47q45 0 90 20.5t59 48t39 23.5q25 -6 20 -49q-6 -88 -71 -160q-72 -80 -170 -80q-115 0 -193 97q-72 90 -71 211q0 156 120 315q88 115 218 176q119 55 241 55q78 0 142 -22q231 -86 231 -410q0 -111 -25 -252 q-10 -55 -26 -122q76 -49 119 -107q80 -111 98 -194q4 -18 8 -19q4 2 6 21q29 307 139 596q104 268 265 417q21 19 38 19q11 0 21 -8t10 -21q0 -18 -20 -43q-156 -201 -226 -606q-51 -293 -65 -649q70 12 123 37q63 33 98 71q23 31 44 61t44 3q8 -8 8 -20q0 -15 -12 -36 q-27 -45 -92 -90q-94 -61 -215 -80q-2 -63 -2 -100q0 -49 -33 -49h-133q-41 0 -41 40v7q2 29 10 102q-92 14 -184 45q-113 37 -207 115q-145 -229 -315 -289q-123 -43 -234 -43q-129 0 -221 56q-84 51 -117 133q-14 39 -14 76zM805 643q0 -61 39 -127q47 132 84 275 q-123 -20 -123 -148zM979 367q164 -131 358 -164q4 71 4 102q-10 193 -129 342q-39 51 -86 86q-57 -203 -147 -366z" />
<glyph unicode="I" horiz-adv-x="1177" d="M20 250q0 102 58 178q61 86 160 86q43 0 75.5 -27.5t32.5 -68.5q0 -37 -23.5 -63.5t-71.5 -40t-79 -44.5q-43 -43 -43 -98q0 -61 53.5 -105t159.5 -44q168 0 289 131q70 74 127 180q-143 184 -201 383q-45 147 -45 319q0 205 61 348q70 162 199 193q29 6 55 6 q156 0 242 -211q70 -169 70 -385v-24q-6 -422 -224 -715q76 -74 168 -139q14 -12 23 -33q6 -20 0 -33q-6 -9 -17 -9q-16 0 -42 19q-88 66 -170 148q-88 -102 -197 -162q-150 -82 -301 -82q-154 0 -256.5 83t-102.5 210zM584 1049q0 -365 204 -652q164 342 164 805 q0 316 -141 316h-10q-100 -6 -160 -148q-57 -131 -57 -321z" />
<glyph unicode="J" horiz-adv-x="960" d="M-29 -371q0 164 101 318q109 162 233 270q109 92 289 191q-10 8 -21 12q-96 61 -167 186q-94 162 -95 369q0 53 6 110q29 231 152 385q105 129 210 129q11 0 23 -2q229 -35 230 -395q0 -248 -101 -672q125 62 127 62q25 0 25 -27q0 -29 -39 -45q-25 -12 -131 -65l-14 -60 q-141 -547 -332 -805q-149 -202 -303 -202h-2q-96 0 -148 73q-43 63 -43 168zM51 -408q0 -153 101 -153q11 0 24 2q119 16 227 287q56 135 179 606q-479 -274 -527 -696q-4 -23 -4 -46zM401 942q0 -268 215 -469q43 174 72 301q102 469 103 588q-1 166 -93 170h-7 q-142 0 -224 -229q-66 -178 -66 -361z" />
<glyph unicode="K" horiz-adv-x="1648" d="M45 276q0 92 63.5 166t153.5 74q47 0 84 -27.5t37 -72.5q0 -49 -43 -66q-63 -27 -90 -43q-45 -29 -62 -71q-10 -27 -10 -54q0 -106 141 -141q31 -6 62 -6q96 0 175 72.5t112 199.5q31 111 57 250q33 172 41 210t78 265q4 14 0 19q-2 2 -9.5 -3.5t-15.5 -15.5 q-23 -31 -119 -88q-131 -80 -241 -80q-88 0 -154 51q-80 63 -80 183q0 135 86 219q33 31 51 20q14 -8 14 -23.5t-14 -39.5q-23 -39 -22 -88q0 -80 59 -135q41 -39 125 -39q182 0 328 153q96 102 176 232q76 121 84 129q27 25 51 14q14 -6 15 -22q0 -18 -21 -45 q-104 -133 -151 -392q-16 -94 -31 -264q68 12 141.5 59.5t143.5 155.5q14 23 94 170q61 111 86 150q55 88 108 135q98 88 166 100q4 1 8 1q19 0 21 -25q2 -31 -29 -41q-49 -16 -108 -129l-70 -158q-51 -115 -100 -188q-59 -86 -170 -164q-92 -66 -138 -76q-18 -4 -16 -12 q4 -8 25 -17q70 -23 135 -114q88 -123 137 -363q29 -137 39 -170q18 -55 49 -61q6 -1 12 -1q55 0 121 83q37 45 68 114q8 20 37 13q18 -4 18 -22q0 -10 -6 -24q-55 -123 -119 -180q-98 -86 -209 -86q-25 0 -47 6q-166 39 -180 279q-8 121 -14 242q-18 150 -66.5 202 t-142.5 58q-23 -274 -58 -383q-49 -158 -174 -271q-142 -127 -324 -127h-22q-172 6 -266 105q-80 84 -80 198z" />
<glyph unicode="L" horiz-adv-x="1339" d="M23 137q0 74 66.5 117t205.5 43q137 0 299 -55q51 109 82 317q-36 -3 -72.5 -3t-73.5 3q-195 13 -307 107q-106 90 -106 206v13q6 135 127 250q82 78 168 114q22 8 38 8t27 -8q10 -6 10 -16q0 -20 -32 -43q-66 -43 -113 -117q-59 -90 -59 -186q0 -31 6 -62 q18 -88 106 -147q96 -63 232 -64q29 0 57 2q29 199 39 254q27 147 70 263q76 199 191.5 322.5t229.5 123.5q100 0 156 -94q45 -76 45 -185q0 -182 -121 -364q-150 -223 -381 -318q-10 -129 -32 -190q-43 -121 -142 -238q86 -35 222 -86q57 -20 124 -20q92 0 146 37 q61 45 123 139q12 23 32 23q15 -1 21 -15q8 -16 -4 -41q-117 -242 -375 -252h-16q-156 0 -377 111q-141 -109 -352 -109q-119 0 -189.5 40t-70.5 120zM80 135q2 -98 182 -98q170 0 266 104q-176 84 -280 84q-72 0 -120 -24.5t-48 -65.5zM920 686q176 84 291.5 266.5 t115.5 378.5q0 182 -115 182q-78 0 -147 -94q-55 -76 -78 -162q-45 -168 -67 -571z" />
<glyph unicode="M" horiz-adv-x="2076" d="M41 1051q0 164 113 313q84 109 217 172q125 59 254 59q98 0 174 -34q153 -74 153 -303q0 -90 -22 -211q-2 -16 -8 -43q41 78 71 131q144 239 292 239h1q16 0 35 -2q142 -35 142 -246q0 -13 -1 -26q-2 -55 -16 -168q35 61 59 98q74 113 119 158q90 92 182 92q20 0 43 -4 q161 -35 161 -264q0 -16 -1 -33q-6 -119 -57 -330q-41 -145 -80 -291q-41 -156 -41 -227q0 -68 33 -78q12 -4 26 -4q55 0 140 92q25 27 94 142q21 28 41 12q8 -7 8 -20t-8 -33q-51 -109 -127 -179q-83 -79 -174 -79h-2q-18 0 -39 4q-141 31 -142 272q0 33 2 70q6 100 66 344 q37 154 74 307q25 109 24 152q0 84 -65 88q-49 0 -131 -93q-68 -78 -131 -184q-39 -68 -99 -207q-25 -166 -43 -264q-33 -203 -71 -432q-6 -41 -45 -41q-4 0 -62 -4q-49 -2 -61 -2q-43 6 -43 37q0 10 4 22q35 113 131 613q78 412 78 508q0 129 -66 129q-160 0 -377 -584 l-131 -649q-12 -59 -53 -64q-25 -2 -147 -2q-33 0 -33 31q0 18 12 49q20 57 80 291q63 254 102 448q59 297 60 432q0 211 -115 252q-39 12 -80 13q-111 0 -214 -77t-142 -192q-25 -76 -25 -137q0 -76 41 -125t113 -49q90 0 151 70q14 14 27 14q20 -2 25 -43q1 -6 1 -12 q0 -56 -49 -123q-68 -94 -184 -94h-5q-114 0 -186 84q-74 86 -73 215z" />
<glyph unicode="N" horiz-adv-x="1603" d="M41 1051q0 164 115 313q84 111 217 174q127 59 256 59q98 0 174 -34q155 -72 155 -305q0 -92 -26 -234q43 68 74 109q155 210 291 210h1q29 0 56 -6q163 -44 163 -269q0 -16 -1 -32q-8 -193 -140 -680q-41 -158 -41 -227q0 -68 33 -78q14 -6 27 -6q63 0 143 96 q25 29 94 138q16 28 39 14q10 -7 10 -21t-10 -36q-53 -109 -121 -173q-89 -83 -182 -83h-2q-18 0 -37 4q-80 16 -117 114q-27 68 -27 166q0 31 3 64q8 119 141 712q25 106 25 148q0 82 -68 92q-5 1 -10 1q-51 0 -127 -69q-72 -66 -133 -161q-55 -82 -131 -271l-144 -717 q-14 -59 -55 -63q-25 -4 -149 -4q-31 0 -31 31q0 20 12 51q20 57 80 293q63 254 102 450q61 299 62 434q0 213 -117 254q-39 12 -80 13q-111 0 -216 -77t-142 -194q-25 -76 -25 -137q0 -76 41 -126t113 -50q92 0 153 70q14 18 29 16q18 -6 23 -43q1 -6 1 -13q0 -58 -48 -124 q-68 -94 -187 -96q-119 0 -192.5 87t-73.5 216z" />
<glyph unicode="O" horiz-adv-x="1249" d="M39 537q0 172 72 354q117 299 346 497.5t454 198.5q63 0 121 -18q149 -46 174 -185q6 -35 -18 -36h-2q-26 0 -47 45q-57 119 -191 129q-13 1 -26 1q-152 0 -295 -132q-184 -172 -289 -527q-72 -242 -72 -440q0 -188 66 -293q68 -111 192 -111q209 2 348 183 q133 174 187 495q28 178 28 295v8q0 268 -167 283q-7 1 -13 1l-225 -159q-113 -156 -156 -364q-24 -122 -24 -233v-9q0 -102 30 -250q3 -16 3 -27q0 -29 -21 -34q-23 -4 -37 31q-35 90 -35 274q0 180 50 346q66 211 172 340q117 143 249 143q158 0 246 -149q72 -125 72 -295 q0 -154 -55 -332q-90 -289 -271 -454q-172 -160 -377 -160q-225 0 -362 182q-127 168 -127 402z" />
<glyph unicode="P" horiz-adv-x="1472" d="M29 1065q4 174 192 342q213 188 508 188q102 0 207 -24q260 -61 393 -252q113 -164 113 -387q0 -240 -115 -410q-128 -194 -311 -194h-2q-78 0 -136.5 46t-58.5 118q0 47 24.5 90t49.5 53q27 8 37 -4q16 -25 -15 -39q-38 -18 -38 -88q0 -53 34 -82q43 -35 97 -35 q121 0 192 168q47 113 47 291q0 348 -149 510q-158 168 -404 168q-203 0 -350 -119q-168 -139 -168 -295q0 -76 41 -127q63 -80 156 -80q55 0 114 31q31 16 41 2q6 -9 6 -20q0 -18 -16 -44q-86 -128 -225 -128q-10 0 -21 1q-123 8 -188 111q-55 85 -55 201v8zM397 -209 q0 10 9 25q20 35 75 204q16 51 78 436.5t107 526.5q88 274 206 375q20 20 46 24q6 1 10 1q14 0 14 -10q0 -14 -14 -32q-74 -94 -105 -276q-16 -104 -39 -426q-25 -342 -41 -463q-31 -236 -90 -377q-12 -30 -49 -30h-2h-164q-41 6 -41 22z" />
<glyph unicode="Q" horiz-adv-x="1277" d="M41 119q0 92 102 139q78 37 181 37q141 0 340 -78q164 162 266 402.5t102 470.5q0 164 -63 278q-78 141 -230 141q-166 0 -290.5 -137t-124.5 -305q0 -100 62.5 -176t160.5 -76q66 0 133.5 48t75.5 114q4 27 26 27q29 0 29 -60q0 -131 -89 -220t-222 -89q-145 0 -236 104 q-82 98 -82 248q0 221 192.5 407.5t413.5 186.5q213 0 346.5 -137t133.5 -350q0 -244 -162 -506q-135 -219 -352 -404q256 -100 325 -100q133 0 224 160q6 6 12 6q24 0 24 -25q0 -6 -4 -16q-43 -100 -135 -170q-98 -76 -199 -76q-137 0 -389 113q-168 -109 -348 -109 q-80 0 -145 35q-78 43 -78 117zM98 117q0 -45 72 -72q55 -18 106 -18q126 0 259 84q-199 90 -297 90q-139 0 -140 -84z" />
<glyph unicode="R" horiz-adv-x="1280" d="M41 213q0 154 70 358q104 311 303 600q-29 135 -99 144q-5 1 -10 1q-60 0 -115 -89q-49 -82 -56 -154q-7 -67 -38 -67h-4q-23 2 -20 47q2 106 78 217q91 131 223 131h4q98 -2 155 -80q254 289 494 289q111 0 194 -70t83 -192q0 -92 -45.5 -189.5t-110.5 -163.5 q-135 -135 -252 -174q-23 -8 -10 -16q68 -45 112 -178q20 -66 29 -213q4 -90 6 -181q12 -133 76 -143q5 -1 10 -1q51 0 113 71q47 55 67 114q16 47 41 13q9 -14 9 -34q0 -15 -5 -32q-23 -74 -98 -149q-99 -99 -215 -99q-16 0 -33 2q-82 10 -135 74t-57 166q-1 12 -1 26 q0 76 19 210q17 132 17 172v10q-2 53 -19.5 94t-32.5 45q-10 2 -34 -6q-33 -10 -52 -12q-15 -2 -27 -2q-63 0 -67 51q-2 59 74 65h13q33 0 72 -8q46 -10 50 -10q27 2 88 47q84 66 140.5 167t56.5 220q0 141 -74 186q-41 27 -96 27q-170 0 -373 -225q45 -96 45 -260 q0 -139 -31 -318q-57 -326 -184 -528q-113 -177 -219 -177q-8 0 -16 1q-113 12 -113 223zM119 182q0 -113 41 -123q7 -2 14 -2q67 0 133 176q74 188 107 484q17 148 17 263q0 62 -5 116q-158 -240 -246 -551q-61 -217 -61 -363z" />
<glyph unicode="S" horiz-adv-x="1189" d="M47 -76q68 72 152 164q-135 127 -136 311q0 127 70 207q104 121 252 121q70 0 117 -25q41 -23 41 -38q0 -20 -58 -27q-190 -18 -264 -143q-45 -76 -45 -175q0 -117 64 -184q315 354 516 678q-127 266 -127 414q0 129 71 241q75 118 181 118q10 0 20 -1q70 -6 116 -66.5 t46 -154.5q0 -68 -25 -143q-39 -119 -147 -299q129 -178 153 -222q74 -127 74 -256q0 -90 -39 -174q-63 -145 -217 -229q-143 -80 -309 -80q-178 0 -305 86q-120 -143 -146 -170q-14 -15 -28 -15q-12 0 -25 11q-15 13 -15 26q0 12 13 25zM289 94q98 -74 221 -74 q121 0 215 60q106 65 139 178q23 70 23 141q0 137 -103 353q-201 -305 -495 -658zM733 1311q0 -145 119 -332q111 201 117 301q1 24 1 45q0 182 -106 182q-51 0 -90 -51q-41 -57 -41 -145z" />
<glyph unicode="T" horiz-adv-x="1120" d="M23 260q0 129 100 174q12 5 39 5q14 0 31 -1q57 -6 84.5 -23.5t27.5 -39.5q0 -23 -24 -43q-74 -59 -74 -139q0 -131 149 -166q39 -8 78 -9q193 0 277 170q53 109 90 422q39 322 114 500q66 152 144 221q24 20 47 8q20 -12 -2 -53q-70 -133 -78 -291q-2 -22 -2 -52 q0 -45 4 -109q6 -129 6 -179q0 -195 -56 -339t-187 -242q-150 -115 -342 -115q-33 0 -68 4q-186 20 -283 119q-76 80 -75 178zM150 1196q0 41 10 82q33 135 165 223q126 84 274 84h13q111 -4 306 -41q151 -29 197 -29q7 0 11 1q96 10 125 43q4 8 15 8q26 0 26 -39 q-2 -113 -84 -142q-27 -10 -59 -10q-66 0 -174 41q-86 33 -172 68q-104 35 -205 35q-186 0 -254 -123q-33 -59 -33 -119q0 -117 92 -168q63 -35 140 -35q45 0 88 12q41 12 49 0q12 -18 -23 -53q-106 -104 -249 -104q-61 0 -119 26q-139 66 -139 240z" />
<glyph unicode="U" horiz-adv-x="1556" d="M41 1044q0 164 131 324q88 106 219 164q121 51 244 51q104 0 174 -39q178 -94 178 -313q0 -82 -24 -182q-35 -147 -111 -385q-82 -248 -94 -302q-47 -184 -47 -241q0 -88 61 -92q6 -1 13 -1q83 0 180 97q121 121 184 332q129 420 207 770q8 39 45 49q29 8 115 20 q43 6 43 -20q0 -6 -3 -14q-76 -246 -147 -584q-74 -350 -74 -500q0 -125 56 -125q61 0 137 82q70 76 90 141q8 23 29 13q13 -5 13 -23q0 -9 -3 -20q-29 -86 -101 -164q-100 -107 -211 -107q-15 0 -30 2q-158 20 -162 302q-2 33 -12 16q-6 -8 -15 -31q-31 -80 -104 -168 q-119 -141 -250 -141q-23 0 -45 6q-195 37 -195 279q0 96 29 184q205 600 219 797q2 23 2 44q0 111 -45 175q-50 71 -161 71h-15q-125 -2 -235 -88q-121 -90 -156 -223q-8 -29 -8 -61q0 -143 104 -187q35 -14 72 -14q88 0 135 55q25 29 45 27t21 -41q-2 -92 -76 -157.5 t-170 -65.5q-113 0 -182.5 86t-69.5 202z" />
<glyph unicode="V" horiz-adv-x="1552" d="M41 1012q0 160 92 301q80 121 209 191.5t260 70.5q76 0 139 -23q244 -92 244 -403q0 -31 -4 -64q-10 -121 -70 -366q-70 -291 -77 -336q-31 -168 -31 -223q0 -141 119 -142q96 0 196 82q125 102 197 295q98 268 98 518q0 158 -39 246q0 2 -53 72q-24 31 -24 53q0 11 6 21 q47 76 81 108q14 12 30 12q15 0 32 -10q65 -41 92 -178q12 -59 12 -139q0 -283 -127 -600q-213 -543 -508 -543q-154 0 -229 131q-61 106 -61 272q0 51 6 101q12 88 88 411q70 293 69 361v15q0 265 -211 265h-2q-104 0 -194 -65q-106 -76 -158 -219q-31 -82 -30 -152 q0 -78 40.5 -126t114.5 -48q123 0 182 113q24 45 41 45q5 0 9 -4q11 -11 11 -31q0 -13 -5 -31q-25 -98 -92 -174q-86 -96 -197 -96q-37 0 -74 10q-182 51 -182 279z" />
<glyph unicode="W" horiz-adv-x="1763" d="M41 938q0 178 117 334q88 119 216 184.5t261 65.5q104 0 190 -43q225 -106 226 -389q0 -33 -4 -74q-8 -125 -74 -344q-51 -162 -82 -234q-12 -27 -10 -24q4 8 22.5 25.5t108.5 156.5q102 162 186 317q90 164 186 381q94 210 108 264q11 44 38 44q7 0 14 -3q31 -8 32 -42 q0 -9 -3 -19q-59 -309 -84 -725q-25 -424 -25 -590q0 -33 11 -20q4 6 10 28q29 125 129 465q102 303 182 424q23 33 49 33q6 0 13 -2q17 -4 17 -19q0 -12 -13 -32q-139 -240 -213 -482q-113 -371 -136 -600q-4 -53 -40 -53q-27 0 -60 31q-43 43 -84 154q-49 127 -49 251v9 q0 117 51 409q43 244 64 318q4 14 4 20q0 14 -10 0q-12 -12 -23 -37q-137 -291 -358 -641q-246 -385 -353 -485q-27 -27 -57 -27q-39 0 -39 35q0 16 10 35q59 100 117 256q94 248 119 483q16 160 16 264q0 369 -233 394q-18 2 -36 2q-139 0 -255 -111q-109 -102 -129 -217 q-4 -29 -4 -55q0 -86 39 -146q43 -66 119 -71q12 -1 25 -1q64 0 116 35q57 39 61 80q2 31 27 37q4 1 8 1q32 0 37 -48q1 -10 1 -21q0 -81 -69 -169q-88 -113 -215 -113q-49 0 -102 20q-170 63 -170 281z" />
<glyph unicode="X" horiz-adv-x="1886" d="M41 240q0 51 20 86q35 63 113 63q39 0 66.5 -25.5t27.5 -64.5q0 -14 -5 -30.5t-32 -55.5q-15 -19 -15 -46q0 -8 1 -17q14 -113 141 -121q11 -1 22 -1q91 0 185 60q129 80 211 246q86 178 150 463q51 231 51 376q0 29 -2 54q-19 289 -248 289h-12q-117 -4 -228.5 -110 t-126.5 -222q-2 -25 -2 -49q0 -96 41 -152.5t113 -58.5h5q95 0 163 73q27 29 47 19q18 -10 18 -45q0 -68 -57 -142q-74 -96 -194 -96h-5q-104 4 -175.5 93t-71.5 221q0 109 53 215q70 143 207 232t284 89q51 0 101 -12q257 -65 257 -418q0 -18 -1 -37q225 418 502 422h5 q241 0 240 -182q1 -66 -28 -99q-30 -38 -85 -38h-3q-55 0 -84 41q-14 20 -15 40q0 23 22.5 57t24.5 44q3 12 3 22q0 55 -72 62q-7 1 -14 1q-87 0 -195 -95q-178 -156 -260 -496q-72 -295 -72 -492q0 -376 263 -376h1q150 0 264 123q94 100 119 221q12 55 13 106 q0 174 -121 185q-7 1 -15 1q-70 0 -120 -71q-43 -66 -58 -156q-4 -31 -4 -63q0 -98 31 -162q10 -23 -2 -37q-18 -25 -51 4q-92 80 -93 209q0 33 7 70q20 127 107 205q75 68 175 69q15 0 31 -2q86 -8 132 -76.5t46 -167.5q1 -205 -145 -363q-144 -156 -346 -155h-5 q-156 2 -266 107q-127 123 -135 340q-233 -444 -559 -449h-14q-160 0 -250 90q-76 78 -76 185z" />
<glyph unicode="Y" horiz-adv-x="1392" d="M41 1094q10 162 160 319q164 168 363 168h5q182 -4 277 -115q78 -90 78 -221q0 -25 -4 -49q-10 -72 -142 -485q-12 -43 -12 -70q0 -55 55 -55q137 0 250 172q59 90 135 250q92 193 111 227q72 129 108 162q31 27 56 2q7 -6 7 -16q0 -11 -9 -29q-51 -98 -56 -107 q-33 -72 -47 -149q-18 -86 -35 -346q-14 -233 -43 -334q-129 -457 -602 -457h-12q-203 2 -309 105q-86 84 -86 200q0 84 44 131t109 47q72 0 95 -41q8 -14 8 -32q0 -57 -53 -101q-41 -33 -41 -83q0 -15 4 -33q25 -117 217 -125h20q234 0 326 231q57 139 110 451q2 14 2 18 q-2 6 -8 0q-4 -4 -16 -22q-119 -184 -277 -185q-18 0 -36 4q-92 16 -142 95q-43 70 -43 167q0 49 10 97q53 166 121 432q2 18 2 37q0 170 -172 170q-94 0 -192 -74q-82 -63 -123 -139q-47 -90 -47 -174q0 -88 61 -123q43 -25 84 -25q78 0 129 74q23 35 41 22q13 -9 13 -27 q0 -14 -7 -32q-33 -84 -98 -141q-74 -66 -156 -66q-98 0 -165 72q-68 72 -68 185v18z" />
<glyph unicode="Z" horiz-adv-x="1036" d="M16 -401q0 211 222 458q170 190 403 342q-10 37 -47 88q-43 57 -74 58q-2 0 -81 -47t-124 -47q-68 0 -67 55q0 57 61 86q37 16 127 33q80 12 101 26q125 92 204.5 258t79.5 324q0 123 -55 199q-61 84 -182 84q-141 0 -264 -125t-123 -267q0 -151 149 -151h2q82 0 131 57 q29 31 58 103q23 55 38 55q20 0 21 -37q0 -111 -103.5 -228.5t-211.5 -117.5q-96 0 -156 74q-55 68 -55 163q0 207 190 375q184 164 393 164q168 0 275.5 -102.5t107.5 -268.5q0 -287 -395 -569q-10 -8 -12 -14q0 -8 18 -15q98 -37 158 -118q227 125 244 124q32 1 32 -28 q0 -23 -39 -47q-70 -35 -204 -107q39 -88 39 -200q0 -156 -84 -342q-80 -172 -195 -297q-215 -231 -377 -232q-98 0 -151.5 67.5t-53.5 166.5zM219 -575h2q102 0 215 149q80 106 135 240q91 215 91 424q0 47 -5 90q-178 -119 -350 -344q-196 -257 -196 -435q0 -124 108 -124 z" />
<glyph unicode="[" horiz-adv-x="499" d="M31 -143l192 1622h336l-6 -41h-180l-183 -1540h181l-4 -41h-336z" />
<glyph unicode="\" horiz-adv-x="761" d="M-154 1464h144l575 -1558h-143z" />
<glyph unicode="]" horiz-adv-x="499" d="M-16 -147l4 41h180l182 1540h-180l6 41h336l-193 -1622h-335z" />
<glyph unicode="^" horiz-adv-x="1024" d="M35 1159l438 447h139l332 -447h-123l-293 330l-370 -330h-123z" />
<glyph unicode="_" horiz-adv-x="1024" d="M-4 -264l12 119h1020l-12 -119h-1020z" />
<glyph unicode="`" horiz-adv-x="522" d="M104 1571q0 53 74 53q57 0 90 -53l148 -250h-80l-213 213q-18 18 -19 37z" />
<glyph unicode="a" horiz-adv-x="837" d="M-12 231q0 86 45 181q61 125 168 192q92 57 186 58q109 0 166 -101q33 76 72 92q16 6 39 4q54 -4 54 -25q0 -2 -1 -5q-25 -86 -70 -279q-26 -138 -26 -210v-5q0 -80 41 -80q53 0 129 90q39 47 69 109q8 14 23 14q20 0 20 -22q0 -25 -49 -99q-43 -63 -70 -88 q-72 -69 -150 -69q-13 0 -26 2q-109 14 -127 162q-104 -166 -274 -166q-98 0 -160 75q-59 70 -59 170zM162 150q0 -88 51 -105q14 -4 31 -4q115 0 219 199q10 20 20 43q10 80 37 178q-6 113 -88 137q-18 4 -35 4q-131 0 -204 -274q-31 -111 -31 -178z" />
<glyph unicode="b" horiz-adv-x="655" d="M-2 324q0 186 68 448q78 309 190.5 494.5t224.5 185.5q127 0 127 -145q0 -123 -96 -324q-152 -322 -334 -516q-31 -203 -31 -295q0 -127 60 -131q6 -1 13 -1q52 0 108 44q64 49 108 129q-110 73 -110 222q0 93 38 162q37 67 98 67h3q102 -4 102 -156q0 -119 -61 -260 q39 -11 71 -11q51 -1 81 29q31 31 45 32q7 0 10 -9q3 -7 3 -14q0 -21 -22 -44q-49 -49 -151 -49q-37 0 -64 8q-112 -208 -272 -208h-2q-207 0 -207 342zM197 596q135 150 223 326q125 248 125 376q0 93 -66 93q-72 0 -141 -168q-72 -178 -123 -508zM379 436q0 -53 19.5 -97 t62.5 -71q33 94 33 176q0 100 -54 105h-6q-55 0 -55 -113z" />
<glyph unicode="c" horiz-adv-x="667" d="M-4 268q0 143 116.5 268.5t262.5 125.5q111 0 162 -54q33 -35 33 -77q0 -8 -1 -15q-13 -92 -92 -92h-10q-78 4 -78 76q0 10 2 20q5 20 5 36q0 41 -36 44h-5q-43 0 -88 -62q-48 -66 -72 -169q-18 -80 -19 -140q0 -135 96 -174q49 -20 103 -20q82 0 162 43q102 57 176 184 q10 20 30 6q8 -5 8 -15q0 -12 -10 -32q-63 -131 -198 -198q-88 -41 -195 -41q-72 0 -147 18q-84 20 -142 90q-63 76 -63 178z" />
<glyph unicode="d" horiz-adv-x="856" d="M2 326q39 156 162 254q109 84 221 84q98 0 164 -84q39 219 110 579q4 18 8.5 24.5t22 13.5t58.5 11q12 1 22 1q35 0 47 -11q10 -8 4 -47q-31 -145 -108 -549q-74 -395 -74 -483q0 -74 37 -74q39 0 108 72q51 53 82 123q6 14 21 14q18 0 18 -21q0 -25 -36.5 -80.5 t-59.5 -78.5q-88 -84 -166 -84q-125 0 -145 155q-60 -80 -142 -125q-74 -40 -140 -40h-15q-82 4 -144 67q-67 69 -67 179q0 48 12 100zM168 178q0 -127 68 -141q11 -2 22 -2q83 0 182 119q37 43 64 112q10 64 28 199q-25 141 -133 141q-137 0 -211 -284q-20 -80 -20 -144z " />
<glyph unicode="e" horiz-adv-x="679" d="M-10 258q0 221 235 350q96 51 205 51q113 0 156 -67q18 -31 18 -68q0 -70 -64.5 -143.5t-177.5 -128.5q-100 -49 -190 -70q16 -94 92 -125q49 -20 94 -20q70 0 181 55q125 61 172 170q12 25 32 4q8 -8 8 -19t-8 -26q-29 -53 -57 -86q-53 -61 -133 -100q-109 -53 -225 -53 q-125 0 -215 59q-123 80 -123 217zM166 240q117 14 186 75q45 39 75 99.5t30 109.5q0 76 -72 76q-61 0 -117 -59q-61 -66 -86 -181q-16 -66 -16 -120z" />
<glyph unicode="f" horiz-adv-x="501" d="M-35 248q2 16 33 38.5t33 41.5q131 962 390 962h1q16 0 35 -4q100 -25 100 -168q0 -162 -94 -352q-121 -248 -277 -408l-10 -82q94 -55 141 -188q150 20 213 133q20 37 37 27q10 -6 10 -19t-10 -34q-68 -141 -235 -156q25 -96 28 -223q1 -33 1 -64q0 -194 -54 -311 q-53 -117 -145 -117h-6q-178 6 -179 381q0 170 31 440q-44 42 -44 88q0 8 1 15zM104 -465q0 -160 66 -160q57 0 96 123q35 111 35 256q0 166 -33 279h-10q-58 0 -108 20q-45 -391 -46 -518zM158 117q37 -27 94 -31q-33 80 -84 125zM201 477q119 104 211 311q84 186 84 336 q-1 107 -50 111h-7q-72 0 -124 -156q-59 -176 -114 -602z" />
<glyph unicode="g" horiz-adv-x="782" d="M4 -549q0 82 51 166q121 201 377 334q8 43 12 74l17 81q-123 -119 -241 -119q-11 0 -23 1q-90 8 -140.5 73.5t-50.5 167.5q0 43 10 90q27 139 151 244q109 92 216 92q16 0 31 -2q96 -10 141 -88q29 31 76 72q20 20 51 20q37 0 37 -30q0 -7 -2 -15q-45 -195 -117 -530 l-12 -55q74 41 137 98q8 6 57 74q39 55 54 55q16 0 16 -18q0 -58 -135 -179q-43 -39 -142 -86q-84 -381 -141 -493q-43 -82 -110 -140q-76 -59 -154 -59q-31 0 -61 10q-104 37 -105 162zM76 -559q0 -106 86 -107q104 0 164 187q47 146 94 375q-240 -129 -318 -332 q-27 -68 -26 -123zM172 141q0 -94 64 -102q8 -1 16 -1q117 0 229 189q18 111 43 254q-20 115 -106 115q-145 0 -213 -262q-33 -123 -33 -193z" />
<glyph unicode="h" horiz-adv-x="827" d="M-4 37q0 51 29 266q37 272 86 494q143 653 376 653q145 0 146 -158q0 -143 -115 -350q-123 -225 -319 -483q-18 -113 -31 -211q0 -10 2 -19q4 2 10 15q39 78 133 211q70 98 103 133q70 74 129 74q14 0 28 -5q116 -34 116 -178q0 -12 -1 -24q-10 -150 -59 -281 q-20 -51 -21 -86q0 -39 33 -39q70 0 137 80q47 55 70 111q8 20 29 20q20 0 20 -24q0 -39 -47 -103q-39 -53 -78 -84q-81 -65 -154 -65h-2q-74 0 -116 59q-33 48 -33 105q0 14 2 28q14 127 80 344q8 27 8 43q0 39 -39 39q-57 0 -215 -250q-51 -82 -156 -315q-10 -27 -67 -29 q-47 -4 -57 -2q-27 4 -27 31zM223 598q135 162 238 348q115 211 114 342q1 97 -67 101h-6q-86 0 -146 -175q-29 -86 -98 -430q-18 -92 -35 -186z" />
<glyph unicode="i" horiz-adv-x="389" d="M16 227q0 53 13 111q53 246 90 289q27 31 60 31q5 0 9 -1q63 -4 64 -53q0 -31 -23 -117q-29 -117 -32 -145q-31 -164 -31 -217q0 -70 43 -70q59 0 127 78q55 61 80 121q10 27 30 14q12 -6 12 -20q0 -9 -5 -21q-35 -92 -113 -164q-78 -71 -161 -71q-13 0 -27 2 q-59 8 -97.5 72.5t-38.5 160.5zM150 971q0 41 27.5 73.5t68.5 32.5q39 0 62.5 -28.5t23.5 -65.5q0 -43 -27.5 -76t-68.5 -33q-37 0 -61.5 29t-24.5 68z" />
<glyph unicode="j" horiz-adv-x="473" d="M-301 -549q0 82 51 166q121 201 377 334q27 141 53 526q2 20 -6 21q-12 0 -29 -27q0 -4 -9 -18.5t-30 -14.5q-27 0 -26 21q0 8 6 16q106 190 205 191q23 0 45 -13.5t22 -56.5q0 -6 -12 -96q-14 -160 -63 -473q74 41 137 98q8 6 57 74q39 55 53 55q16 0 17 -18 q0 -58 -135 -179q-43 -39 -142 -86q-84 -381 -141 -493q-43 -82 -111 -140q-76 -59 -153 -59q-31 0 -62 10q-104 37 -104 162zM-229 -559q0 -106 86 -107q104 0 163 187q48 146 95 375q-240 -129 -318 -332q-27 -68 -26 -123zM221 977q0 43 27.5 76.5t68.5 33.5 q39 0 64 -29.5t25 -68.5q0 -41 -29 -74.5t-70 -33.5q-39 0 -62.5 28.5t-23.5 67.5z" />
<glyph unicode="k" horiz-adv-x="792" d="M4 33q0 63 23 252q33 266 88 522q139 635 381 635q139 0 139 -148q0 -143 -121 -368q-59 -106 -174 -281q-100 -156 -139 -203q-10 -98 -23 -204q2 -4 2 -7q6 2 13 19q43 92 147 213q172 194 295 194h8q84 -6 84 -73q0 -20 -8 -39q-22 -48 -76 -48q-8 0 -16 1 q-18 4 -51 24.5t-56 14.5q-37 -6 -98 -70q-47 -47 -72 -82q-6 -12 -6 -16q0 -18 33 -4q45 22 62 22h1q59 0 111 -29q59 -35 59 -90q0 -27 -15 -84t-15 -88q0 -39 36 -39q43 0 103 56q55 49 92 129q6 16 20 18q13 2 19 -8q6 -7 6 -18q0 -12 -8 -29q-43 -90 -137 -168 q-66 -53 -154 -53q-57 0 -98 30q-47 33 -47 88q0 29 16 85.5t16 84.5q0 55 -43 56q-92 0 -170 -144q-35 -68 -63 -149q-10 -33 -74 -35q-53 -2 -63 0q-27 4 -27 33zM225 592q106 104 217 313q135 254 136 387q0 97 -72 97q-147 0 -254 -633q-14 -86 -27 -164z" />
<glyph unicode="l" horiz-adv-x="430" d="M23 350q0 168 43 377q150 722 347 722q8 0 15 -1q92 -14 92 -186q0 -154 -57 -349q-27 -90 -109 -243q-88 -168 -161 -256q-4 -70 -5 -129q0 -207 45 -219q14 -4 29 -5q61 0 135 78q6 6 64 90q38 59 52 59q2 0 3 -1q11 -9 11 -24q0 -12 -7 -27q-43 -98 -121 -168 q-92 -80 -188 -80q-20 0 -43 4q-145 31 -145 358zM201 526q125 152 209 406q61 186 61 330q0 119 -45 131q-3 1 -6 1q-45 0 -103 -204q-55 -193 -90 -447q-16 -106 -26 -217z" />
<glyph unicode="m" horiz-adv-x="1275" d="M-4 29q0 135 33 325q45 264 80 287q20 13 55 13q9 0 18 -1q59 -6 54 -39q-29 -150 -60 -323q-2 -14 2 -17q8 -2 19 21q63 127 110 190q123 170 232 170q113 0 113 -158q0 -12 -1 -24q0 -25 -4 -90q-4 -55 -4 -64q0 -12 6 -10q6 0 13 15q43 96 104 182q113 156 215 156 q104 0 133 -109q8 -31 8 -66v-14q-2 -31 -47 -264q-25 -126 -26 -126v1q0 -29 20 -35q5 -2 12 -2q27 0 70 35q45 35 76 74q20 33 41 67q31 44 49 44q2 0 4 -1q12 -4 12 -19q0 -12 -8 -32q-37 -86 -104 -149q-89 -83 -169 -83q-10 0 -20 1q-61 8 -98 77q-29 56 -29 130v18 q4 80 76 307q8 27 8 45q0 39 -37 35q-41 -4 -104.5 -75.5t-120.5 -172.5q-49 -86 -88 -198q-18 -55 -35 -111q-10 -25 -37 -31q-44 -9 -73 -9q-10 0 -17 1q-34 5 -34 35q0 6 1 12q12 51 43 260q33 223 33 232q0 49 -20 49q-35 0 -97.5 -68.5t-111.5 -161.5 q-84 -154 -135 -331q-6 -25 -78 -29h-16q-66 0 -66 31z" />
<glyph unicode="n" horiz-adv-x="808" d="M-4 31q6 94 31 327q33 233 71 273q16 14 64 14h12q59 -3 59 -34q0 -5 -2 -11q-29 -111 -71 -315q-6 -25 8 -27q12 -2 22 16q29 63 123 215q117 164 215 164q61 0 101.5 -50t40.5 -116q0 -8 -54 -323q-8 -44 -8 -72q0 -38 15 -43q6 -1 12 -1q46 0 115 77q61 70 88 129 q12 31 36 14q10 -6 10 -19q0 -9 -5 -22q-33 -86 -111 -161q-86 -82 -158 -82q-68 0 -111.5 53t-43.5 121q0 20 4 39q33 137 71 303q6 27 6 46q0 33 -20 40q-4 1 -8 1q-27 0 -80 -46q-68 -59 -123 -154q-106 -186 -153 -356q-8 -33 -78 -33q-45 0 -54 2q-24 4 -24 26v5z" />
<glyph unicode="o" horiz-adv-x="811" d="M10 268q0 162 125 281q119 113 271 115h7q147 0 224 -86q66 -76 65 -189q-2 -86 -52 -176t-130 -150q27 -6 55 -6q76 0 138 37q86 51 139 152q14 29 41 18q13 -6 13 -19q0 -10 -7 -24q-59 -123 -172 -182q-86 -43 -199 -43q-57 0 -100 12q-33 -18 -98 -20h-19 q-134 0 -219 82q-82 80 -82 198zM184 240q0 -197 128 -197h3q74 0 134 61q72 76 92 213q6 43 6 82q0 205 -146 209h-5q-73 0 -126 -63q-63 -74 -80 -217q-6 -49 -6 -88z" />
<glyph unicode="p" horiz-adv-x="804" d="M-47 -528q0 293 53 733q35 291 82 524q39 186 62 234q26 54 76 54q5 0 10 -1q43 -2 43 -58q0 -20 -7 -47q-59 -250 -88 -462q-4 -25 -2 -31q4 -14 21 18q27 55 94 119q100 96 201 96q31 0 59 -8q143 -45 143 -209q0 -141 -92 -260q-70 -90 -164 -131q25 -5 51 -5 q38 0 78 10q68 18 142 79q61 49 98 100q20 31 35 31q9 0 16 -10q6 -9 6 -20q0 -19 -16 -44q-35 -53 -106 -110q-84 -66 -152 -78q-51 -8 -102 -8q-100 0 -168 35q-49 6 -83 41.5t-34 89.5q0 55 29 86q23 18 47 18q25 0 41 -16q21 -24 21 -45q0 -18 -17 -35q-23 -4 -51 -31 q-2 -7 -2 -13q0 -31 51 -38q9 -2 17 -2l73 28q68 49 98 173q14 59 14 108q0 80 -32.5 125t-75.5 47h-3q-60 0 -127 -84q-69 -86 -114 -215q-37 -106 -63 -428q-20 -242 -21 -330q0 -66 -67 -73q-8 -1 -15 -1q-59 0 -59 44z" />
<glyph unicode="q" horiz-adv-x="804" d="M16 236q0 152 116 286.5t263 134.5q109 0 158 -88q31 23 80 62q26 20 48 20q10 0 19 -4q23 -8 17 -45q-37 -137 -137 -557q82 27 151 96q90 86 119 154q10 18 31 14q13 -3 13 -19q0 -9 -5 -24q-29 -82 -117 -161.5t-116.5 -92t-6.5 -26.5q23 -12 51 -64q45 -78 45 -182 q0 -43 -8 -90q-29 -158 -116 -254q-71 -79 -143 -79l-13 1q-129 16 -129 203q0 45 10 94q25 129 117 518q-108 -145 -243 -145h-13q-94 4 -146 82q-45 66 -45 166zM176 150q0 -109 92 -109q80 0 148 94q53 74 84 178q25 86 24 150q0 119 -86 133q-9 1 -18 1 q-125 0 -207 -261q-37 -119 -37 -186zM465 -559q0 -61 29 -66q5 -1 11 -1q73 0 132 132q55 124 55 222q0 199 -127 249l-8 -36q-92 -424 -92 -500z" />
<glyph unicode="r" horiz-adv-x="620" d="M-8 27q8 137 35 301q14 92 41 196q25 94 30 105q15 19 57 19q9 0 19 -1q60 -4 60 -34q0 -4 -1 -9q-8 -51 -26 -151q-10 -51 -17 -125q2 -6 9 -9q6 6 12 19q49 92 110.5 183t93 114.5t91.5 23.5q53 0 53 -51q0 -27 -27 -96q-41 -100 -40 -133q0 -60 63 -59q21 0 49 6 q53 12 98 67q19 21 33 -2q2 -3 2 -6q0 -9 -12 -25q-45 -59 -111 -79q-38 -11 -71 -11q-57 0 -101 33q-63 48 -64 140q0 11 1 22q2 25 -4 24q-4 0 -17 -14q-31 -39 -110 -176q-43 -86 -101 -274q-8 -25 -75 -27h-16q-26 0 -42 5q-22 7 -22 24z" />
<glyph unicode="s" horiz-adv-x="614" d="M-16 242q0 80 53 98q33 39 88 119q74 104 86 159q-4 14 -4 40q0 17 2 40q15 56 57 56q9 0 19 -2q42 -9 41 -49v-11q-6 -31 -37 -63q-14 -14 0 -29q20 -31 82 -102q57 -59 75 -86q47 -66 56 -140q1 -10 1 -20q0 -98 -91 -184q45 8 80 28q100 57 141 131q10 18 26 19 q22 0 22 -16q0 -10 -9 -27q-20 -37 -70 -88q-55 -53 -100 -74q-104 -47 -193 -47q-18 0 -37 2q-27 -4 -51 -4q-104 4 -176 90q-61 74 -61 160zM98 117q33 -45 74 -51q11 -2 21 -2q80 0 126 110q18 45 19 117q0 53 -12 96q-35 115 -76 158q-4 4 -8 4q-10 0 -21 -21 q-53 -109 -117 -180q-14 -16 6.5 -17t37 -28t10.5 -61q-6 -33 -60 -95q-7 -7 -7 -14.5t7 -15.5z" />
<glyph unicode="t" horiz-adv-x="387" d="M8 743q0 33 35 33h78q55 215 72 250q27 49 67 49h6q49 -8 49 -57q0 -10 -4 -23q-16 -55 -51 -219h105q35 0 34 -33q0 -35 -34 -34h-119q-23 -106 -41 -203q-53 -291 -53 -363q0 -82 34 -92q10 -2 23 -2q74 0 141 76q43 47 78 115q10 20 31 8q8 -6 8 -18q0 -9 -4 -21 q-33 -78 -107 -146q-77 -73 -173 -73h-3q-20 0 -39 2q-125 23 -125 229q0 111 37 275q20 96 49 213h-59q-35 0 -35 34z" />
<glyph unicode="u" horiz-adv-x="833" d="M8 213q0 63 17 133q68 270 112 297q24 12 61 12h11q48 -3 48 -39q0 -6 -1 -14q-20 -84 -59 -256q-35 -158 -35 -221q0 -72 33 -74h7q41 0 101 62q57 57 103 137q39 70 100 205q31 152 63 184q12 12 70 12q55 0 62.5 -13t3.5 -26q-18 -88 -56 -268q-33 -168 -33 -223 q0 -70 41 -70q47 0 117 88q45 55 74 113q14 29 37 12q9 -6 9 -18q0 -10 -7 -23q-53 -111 -115 -168q-79 -69 -141 -69h-2q-12 0 -27 2q-125 18 -125 233q0 31 2 66q-47 -84 -88 -142q-63 -86 -106 -120q-52 -42 -116 -42q-8 0 -17 1q-63 6 -103.5 67.5t-40.5 161.5z" />
<glyph unicode="v" horiz-adv-x="729" d="M16 276q0 35 4 72q16 111 46 199q27 78 47 94t61 16q63 0 63 -33q0 -4 -1 -8q-16 -53 -52 -260q-12 -94 -12 -151q0 -135 74 -150q8 -1 17 -1q47 0 103 36q66 43 113 119q-74 35 -106 117q-20 51 -21 114q0 86 35 150.5t96 66.5h5q116 0 116 -172q0 -117 -57 -245 q25 -6 52 -6q37 0 79 11q72 19 108 62q13 16 27 -2q4 -6 4 -13q0 -9 -8 -20q-41 -55 -129 -77q-42 -10 -83 -10q-36 0 -71 8q-111 -203 -288 -203h-7q-94 0 -154.5 77.5t-60.5 208.5zM401 436q0 -61 24 -107t79 -75q37 82 37 166q0 120 -65 120q-7 0 -15 -1 q-59 -10 -60 -103z" />
<glyph unicode="w" horiz-adv-x="1067" d="M-4 229q0 61 12 133q14 90 47 185q29 84 46.5 98t58.5 10q64 -3 64 -35q0 -5 -1 -10q-18 -80 -53 -262q-23 -150 -23 -207q0 -78 29 -86q5 -1 11 -1q37 0 91 56q62 64 111 177q78 182 94 319q4 33 31 33q82 0 82 2h-2q23 -4 27 -6q12 -10 6 -41q-27 -145 -31 -260 q-1 -25 -1 -48q0 -223 71 -231q6 -1 12 -1q104 0 190 169q-70 39 -98 113q-18 53 -18 121q0 86 30 143q35 66 97 68q106 0 106 -162q0 -127 -61 -262q27 -9 56 -9q16 0 32 3q43 6 86 49q14 14 30 2q6 -4 6 -11q0 -9 -10 -24q-41 -59 -139 -61h-10l-68 12 q-107 -209 -251 -209h-11q-170 8 -201 262q-2 10 -6 12q-6 2 -12 -14q-133 -266 -270 -266h-4q-156 4 -156 239zM795 440q0 -61 20 -102q25 -51 72 -78q37 88 37 162q0 115 -70 119h-2q-57 0 -57 -101z" />
<glyph unicode="x" horiz-adv-x="757" d="M2 463q0 74 57.5 134t145.5 60q59 0 104 -28q63 -43 105 -174q84 137 127 172q38 28 81 28h3q57 0 77 -37q10 -18 11 -40q0 -53 -47 -68q-23 -6 -52 8q-35 16 -47 17q-8 0 -16 -5q-49 -20 -119 -133l12 -45q47 -170 52 -178q35 -102 71 -111q10 -2 23 -2q55 0 119 62 q55 55 77 115q10 23 33 10q13 -6 13 -20q0 -10 -7 -25q-47 -92 -100 -140q-87 -75 -194 -75h-3q-23 0 -45 2q-131 16 -170 233q-43 -70 -63 -104q-84 -133 -164 -133q-82 0 -82 73q0 33 27.5 58.5t62.5 25.5q14 0 45 -8q25 -8 37 -4q41 14 125 170q-23 154 -47 217 q-28 72 -79 72h-3q-41 -2 -63.5 -27.5t-16.5 -46.5q14 -12 35 -53q6 -17 6 -32q0 -40 -47 -56q-10 -2 -20 -2q-63 0 -64 90z" />
<glyph unicode="y" horiz-adv-x="747" d="M-8 -565q0 102 63 211q98 166 338 301q18 119 41 250q2 16 -2 18q-6 2 -12 -12q-37 -66 -98 -125q-88 -90 -172 -90q-12 0 -23 2q-133 20 -133 219q0 70 16 156q53 252 94 278q23 16 60 16q25 0 46 -15t17 -34q-37 -147 -65 -280q-33 -154 -33 -213q0 -70 47 -70 q98 0 201 174q55 92 94 240q27 113 27 147q0 39 59 39h12q80 -4 80 -38l-96 -578q139 84 205 202q19 34 33 34q7 0 12 -9t5 -20q0 -15 -9 -35q-20 -45 -88 -111q-78 -74 -168 -125l-11 -55q-55 -358 -172 -520q-96 -133 -217 -133q-43 0 -77 20q-74 47 -74 156zM59 -586 q0 -100 76 -100q131 0 189 264q26 119 59 303q-203 -125 -274 -282q-49 -104 -50 -185z" />
<glyph unicode="z" horiz-adv-x="706" d="M45 33q-8 9 -8 21t8 26q53 96 201 219q170 141 233 172q12 6 8 12q-2 6 -14 4q-26 -4 -46.5 -4t-37.5 4q-59 25 -158 62q-27 9 -48 9q-23 0 -38 -11q-16 -10 -16 -35q-2 -23 12 -33q27 -18 27 -57q0 -27 -25 -41q-16 -8 -32 -8q-66 0 -66 78q0 94 84 155q72 55 172 56 q51 0 121 -33t106 -33h7q55 0 104 31q16 10 34.5 -2.5t4.5 -30.5q-129 -170 -236 -242q-182 -123 -219 -159q-14 -14 -8 -15q4 0 10 2q9 2 22 2q22 0 56 -6q84 -27 232 -55h11q101 0 152 72q12 16 24.5 39.5t35.5 23.5q18 -1 18 -18q0 -8 -4 -19q-27 -70 -84 -125 q-104 -100 -246 -104h-6q-51 0 -144.5 32.5t-125.5 32.5h-4q-47 -2 -90 -30q-12 -8 -27 8z" />
<glyph unicode="{" horiz-adv-x="684" d="M92 657l4 25q70 0 123 52t62 124l47 402q14 119 96 192.5t201 73.5h69l-2 -21q-207 -18 -233 -241l-41 -344q-10 -92 -68 -166q-66 -84 -153 -84q88 0 133 -84q41 -74 30 -166l-41 -344q-4 -25 -4 -47q0 -178 181 -195l-2 -20h-70q-111 0 -174.5 61.5t-63.5 165.5 q0 18 2 39l48 401q8 72 -33 124t-111 52z" />
<glyph unicode="|" horiz-adv-x="491" d="M68 1487h129l213 -1520h-129z" />
<glyph unicode="}" horiz-adv-x="684" d="M0 -186l2 20q207 18 234 242l40 344q10 92 68 166q66 84 154 84q-88 0 -133 84q-41 74 -31 166l41 344q4 25 4 47q0 178 -180 194l2 21h69q111 0 174.5 -61.5t63.5 -166.5q0 -18 -2 -38l-47 -402q-8 -72 32.5 -124t110.5 -52l-4 -25q-70 0 -123 -52t-61 -124l-47 -401 q-14 -119 -96.5 -192.5t-200.5 -73.5h-70z" />
<glyph unicode="~" horiz-adv-x="1013" d="M98 1237q10 86 87 153.5t165 67.5q117 0 219.5 -65.5t163.5 -65.5q113 0 150 94h92q-10 -86 -87 -153.5t-165 -67.5q-119 0 -227.5 65.5t-155.5 65.5q-113 0 -150 -94h-92z" />
<glyph unicode="&#xa1;" horiz-adv-x="577" d="M160 92q0 111 49 314q29 127 104 393q68 246 80 278l35 -18q4 -45 -14 -289q-18 -262 -37 -387q-68 -426 -170 -408q-47 8 -47 117zM369 1217q2 35 24.5 60.5t52.5 25.5q29 0 47.5 -25.5t16.5 -60.5q-4 -37 -26.5 -63t-53.5 -26q-29 0 -47 26t-14 63z" />
<glyph unicode="&#xa2;" horiz-adv-x="978" d="M76 541q-4 203 153.5 370.5t362.5 175.5l41 150q10 37 37 37q20 0 33.5 -18.5t7.5 -38.5l-37 -134q41 -4 80 -14q78 -18 90 -18q41 0 53 39h37l-82 -295h-37q2 29 2 45q0 195 -153 200l-213 -784q20 -2 43 -2q145 0 266 156l43 -33q-147 -209 -375 -201l-37 -141 q-10 -35 -43 -35q-37 0 -37 39q0 8 2 16l35 129q-266 53 -272 357zM266 492q0 -133 109 -207l200 741q-137 -47 -229 -231q-80 -160 -80 -303z" />
<glyph unicode="&#xa3;" horiz-adv-x="1083" d="M109 264q0 61 46 101.5t107 40.5q49 0 98 -25q20 37 41 123q23 94 23 149h-166l12 74h164q23 184 111 303q100 139 256 139q188 0 188 -133q0 -98 -92 -98q-66 0 -66 68q0 27 12.5 49t12.5 35q0 33 -49 32q-96 0 -137 -159q-20 -119 -39 -236h229l-14 -74h-230 q-31 -207 -122 -309q96 -47 217 -47q154 0 209 78l41 -23q-41 -80 -105 -139q-92 -88 -190 -88q-139 0 -263 104q-94 -82 -172 -82q-123 0 -122 117zM156 258q0 -57 59 -57q54 0 109 78q-63 53 -113 53q-55 0 -55 -74z" />
<glyph unicode="&#xa4;" horiz-adv-x="1155" d="M41 500l20 61h160q2 53 17 107h-132l21 61h131q63 156 202.5 263.5t299.5 107.5q123 0 195.5 -58.5t72.5 -144.5q0 -55 -38 -93t-87 -38q-45 0 -73.5 26.5t-28.5 67.5q0 39 28.5 68.5t63.5 29.5q23 0 22 19q0 18 -34.5 37.5t-85.5 19.5q-217 0 -336 -305h276l-20 -61 h-277q-16 -55 -22 -107h254l-21 -61h-237q-4 -248 231 -248q147 0 270 158l43 -33q-143 -203 -354 -203q-170 0 -269.5 83t-111.5 243h-180z" />
<glyph unicode="&#xa7;" horiz-adv-x="841" d="M18 176q0 18 5 39q25 100 106 100q70 0 70 -55q0 -12 -2 -24q-8 -31 -43 -67t-37 -42q-4 -18 29.5 -38.5t91.5 -20.5q172 0 200 129q6 25 6 45q0 70 -106 188l-127 141q-102 111 -102 211q0 115 106 193q94 72 213 72q-119 129 -119 215q0 25 6 51q25 104 121 170 q90 59 201 59q80 0 138.5 -43t58.5 -106q0 -53 -36 -93t-89 -40q-31 0 -50.5 19t-13.5 46t44 56.5t46 66.5q6 23 -30.5 39t-81.5 16q-150 0 -181 -127q-8 -35 -8 -55q0 -74 111 -188l129 -132q98 -98 98 -206q0 -29 -6 -56q-20 -88 -94 -147q-88 -72 -223 -72 q121 -113 120 -219q0 -123 -116 -201q-102 -70 -234 -69q-201 0 -201 145zM233 887q-12 -55 68 -180q74 -115 119 -146q72 0 131 29q84 37 102 117q12 76 -71 182q-53 70 -115 121q-203 0 -234 -123z" />
<glyph unicode="&#xa8;" horiz-adv-x="688" d="M96 1522q0 39 29 67.5t65 28.5q41 0 70 -28.5t29 -67.5q0 -41 -29 -69t-70 -28q-39 0 -66.5 29t-27.5 68zM412 1522q0 39 28.5 67.5t67.5 28.5t67.5 -28.5t28.5 -67.5q0 -41 -27.5 -69t-68.5 -28q-39 0 -67.5 29t-28.5 68z" />
<glyph unicode="&#xa9;" horiz-adv-x="1658" d="M104 700q0 307 218.5 525.5t527.5 218.5q307 0 525 -218.5t218 -525.5q0 -309 -218 -527t-525 -218q-309 0 -527.5 218t-218.5 527zM203 700q0 -268 190.5 -457.5t456.5 -189.5q268 0 456.5 189.5t188.5 457.5t-188.5 457t-456.5 189q-266 0 -456.5 -189.5t-190.5 -456.5 zM381 690q0 190 146.5 324.5t353.5 134.5q45 0 235 -33q35 -4 51 -4q27 0 17 -33q-16 -59 -17 -161q0 -16 -22 -17q-31 0 -31 27l2 14q10 76 -76 121q-72 37 -149 33q-154 -4 -258.5 -120t-104.5 -284q0 -170 104.5 -287.5t256.5 -117.5q133 0 209 59q47 41 37 109 q0 27 32 26q23 0 23 -16q-2 -109 14 -164q10 -31 -15.5 -31t-135 -19.5t-172.5 -19.5q-207 0 -353.5 134.5t-146.5 324.5z" />
<glyph unicode="&#xaa;" horiz-adv-x="731" d="M131 1171q0 49 27 105q72 147 207 147q63 0 96 -59q18 45 43 53q8 4 22 4q35 -4 31 -20q-14 -49 -41 -162q-14 -84 -14 -125q0 -47 22 -47q31 0 76 53q12 20 27 41q20 31 26 31q12 0 13 -12q0 -16 -27 -56.5t-43 -54.5q-49 -47 -102 -39q-63 8 -74 94q-61 -96 -162 -96 q-55 0 -91 42t-36 101zM233 1122q0 -61 48 -61q78 0 139 139q6 48 22 107q-4 82 -71 82q-78 0 -121 -162q-16 -63 -17 -105z" />
<glyph unicode="&#xab;" horiz-adv-x="716" d="M66 598l245 201q6 4 13 4q20 0 20 -27q0 -16 -12 -31l-123 -147l123 -145q14 -18 14 -35q0 -20 -18 -21q-8 0 -17 6zM301 598l246 201q6 4 12 4q20 0 21 -27q0 -16 -13 -31l-123 -147l123 -145q14 -18 15 -35q0 -20 -19 -21q-8 0 -16 6z" />
<glyph unicode="&#xad;" horiz-adv-x="792" d="M215 373l21 51q12 31 30 31h420q12 0 23.5 -10.5t7.5 -20.5l-21 -51q-12 -31 -30 -31h-420q-14 0 -25.5 10t-5.5 21z" />
<glyph unicode="&#xae;" horiz-adv-x="1288" d="M139 1032q0 225 160 384t383 159t382 -160t159 -383t-159 -383t-382 -160q-225 0 -384 160t-159 383zM209 1032q0 -195 138 -334t335 -139q195 0 334 139t139 334q0 197 -138 335t-335 138t-335 -138t-138 -335zM406 729q0 18 16 25q37 0 49 9t12 44v483q0 39 -16 49 q-6 4 -43 7q-18 2 -18 22q0 18 16 25q33 0 100.5 -2t100.5 -2q14 0 42.5 2t41.5 2q80 0 134 -51.5t54 -127.5q0 -115 -127 -165q90 -35 123 -156t115 -160q14 -6 14 -14q0 -18 -25 -19q-133 0 -182 84q-29 78 -59 156q-41 86 -156 86v-219q0 -49 43 -52t43 -26 q0 -25 -18 -24q-20 0 -60.5 3t-60.5 3t-61.5 -3t-61.5 -3q-16 6 -16 24zM598 1069q180 2 180 145q0 63 -24.5 92t-85.5 29q-70 0 -70 -45v-221z" />
<glyph unicode="&#xaf;" horiz-adv-x="692" d="M102 1702l27 104h471l-27 -104h-471z" />
<glyph unicode="&#xb4;" horiz-adv-x="587" d="M147 1288l154 254q35 59 84 60q25 0 47.5 -18.5t22.5 -43.5q-1 -17 -13 -29l-231 -221z" />
<glyph unicode="&#xb6;" horiz-adv-x="1024" d="M84 1133q0 139 88 233q104 115 303 115h465v-72h-129v-1409h-80v1409h-186v-1409h-84v784q-178 2 -277.5 93.5t-99.5 255.5z" />
<glyph unicode="&#xb7;" horiz-adv-x="401" d="M225 582q4 35 26.5 60.5t51.5 25.5q31 0 49.5 -25.5t14.5 -60.5q-2 -37 -26 -62.5t-52 -25.5q-29 0 -47.5 25.5t-16.5 62.5z" />
<glyph unicode="&#xb8;" horiz-adv-x="589" d="M76 -348l24 67q45 -27 140 -26q100 0 100 76q0 63 -137 63h-33l59 168h76q-10 -39 -22 -80q55 -2 96 -16q96 -35 96 -129q4 -182 -211 -183q-115 0 -188 60z" />
<glyph unicode="&#xba;" horiz-adv-x="704" d="M152 1198q0 100 75.5 172t167.5 74q96 2 146 -53q39 -47 39 -117q0 -109 -70 -179.5t-160 -70.5q-92 0 -145 51t-53 123zM260 1180q0 -123 80 -121q45 0 86 42t53 128q4 27 4 51q0 127 -88 129q-113 2 -133 -174q-2 -31 -2 -55z" />
<glyph unicode="&#xbb;" horiz-adv-x="841" d="M266 418q0 16 15 35l122 145l-122 147q-12 14 -13 31q0 27 21 27q6 0 12 -4l246 -201l-246 -195q-8 -6 -16 -6q-18 0 -19 21zM500 418q0 16 14 35l123 145l-123 147q-12 14 -12 31q0 27 20 27q6 0 13 -4l245 -201l-245 -195q-8 -6 -17 -6q-18 0 -18 21z" />
<glyph unicode="&#xbf;" horiz-adv-x="1021" d="M190 236q0 86 43 170q66 123 162 219q141 139 160 159q88 111 156 295q8 23 37 23q27 0 22 -37q-10 -80 -111 -231q-66 -88 -131 -177q-100 -137 -137 -225q-45 -102 -45 -196q0 -199 172 -195q90 4 168 70.5t88 134.5q6 51 -14 100q-18 43 -45 53q-43 18 -123 -2 q-16 -4 -27 11q-12 23 15 43q61 49 141 49q43 0 78 -21q76 -45 75 -160q0 -77 -43 -149q-53 -88 -156.5 -141.5t-211.5 -53.5q-55 0 -105 17q-168 53 -168 244zM707 1262q2 35 25.5 60.5t51.5 25.5q29 0 47.5 -25.5t16.5 -60.5q-4 -37 -26.5 -62.5t-51.5 -25.5 q-31 0 -49.5 25.5t-13.5 62.5z" />
<glyph unicode="&#xc0;" d="M39 457q0 223 121 454q145 281 418 482q266 195 491 194q59 0 111 -16q190 -59 190 -248q0 -72 -27 -129q-23 -49 -47 -37q-31 16 -8 57q27 53 27 115q0 117 -119 166q-57 25 -125 25q-184 0 -371 -164q-197 -172 -305 -447q-141 -354 -141 -598q0 -121 41 -198 q51 -102 160 -103q127 0 254 162q115 147 155 315l180 740q4 16 9 22q6 14 20 17l117 22q20 4 31 0q14 -6 8 -28q-27 -121 -109 -537q-76 -422 -76 -561q0 -96 29 -107q12 -4 27 -4q59 0 131 80q47 53 82 129q12 25 35 25q12 0 16 -9q4 -12 -2 -30q-45 -115 -111 -178 q-98 -94 -192 -95q-98 0 -154 107q-43 86 -41 192q2 20 -6 21q-8 2 -18 -19q-180 -326 -414 -325q-184 0 -293 168q-94 145 -94 340zM811 1923q0 53 74 53q57 0 88 -53l149 -250h-80l-215 213q-16 18 -16 37z" />
<glyph unicode="&#xc1;" d="M39 457q0 223 121 454q145 281 418 482q266 195 491 194q59 0 111 -16q190 -59 190 -248q0 -72 -27 -129q-23 -49 -47 -37q-31 16 -8 57q27 53 27 115q0 117 -119 166q-57 25 -125 25q-184 0 -371 -164q-197 -172 -305 -447q-141 -354 -141 -598q0 -121 41 -198 q51 -102 160 -103q127 0 254 162q115 147 155 315l180 740q4 16 9 22q6 14 20 17l117 22q20 4 31 0q14 -6 8 -28q-27 -121 -109 -537q-76 -422 -76 -561q0 -96 29 -107q12 -4 27 -4q59 0 131 80q47 53 82 129q12 25 35 25q12 0 16 -9q4 -12 -2 -30q-45 -115 -111 -178 q-98 -94 -192 -95q-98 0 -154 107q-43 86 -41 192q2 20 -6 21q-8 2 -18 -19q-180 -326 -414 -325q-184 0 -293 168q-94 145 -94 340zM1044 1663l154 254q35 59 84 59q25 0 47.5 -18.5t22.5 -42.5q-1 -17 -13 -29l-231 -221z" />
<glyph unicode="&#xc2;" d="M39 457q0 223 121 454q145 281 418 482q266 195 491 194q59 0 111 -16q190 -59 190 -248q0 -72 -27 -129q-23 -49 -47 -37q-31 16 -8 57q27 53 27 115q0 117 -119 166q-57 25 -125 25q-184 0 -371 -164q-197 -172 -305 -447q-141 -354 -141 -598q0 -121 41 -198 q51 -102 160 -103q127 0 254 162q115 147 155 315l180 740q4 16 9 22q6 14 20 17l117 22q20 4 31 0q14 -6 8 -28q-27 -121 -109 -537q-76 -422 -76 -561q0 -96 29 -107q12 -4 27 -4q59 0 131 80q47 53 82 129q12 25 35 25q12 0 16 -9q4 -12 -2 -30q-45 -115 -111 -178 q-98 -94 -192 -95q-98 0 -154 107q-43 86 -41 192q2 20 -6 21q-8 2 -18 -19q-180 -326 -414 -325q-184 0 -293 168q-94 145 -94 340zM868 1681q51 39 117 135.5t96 178.5q14 35 66 28q49 -6 47 -38q-12 -179 66 -326l-19 -17q-127 127 -139 265q-94 -160 -219 -254z" />
<glyph unicode="&#xc3;" d="M39 457q0 223 121 454q145 281 418 482q266 195 491 194q59 0 111 -16q190 -59 190 -248q0 -72 -27 -129q-23 -49 -47 -37q-31 16 -8 57q27 53 27 115q0 117 -119 166q-57 25 -125 25q-184 0 -371 -164q-197 -172 -305 -447q-141 -354 -141 -598q0 -121 41 -198 q51 -102 160 -103q127 0 254 162q115 147 155 315l180 740q4 16 9 22q6 14 20 17l117 22q20 4 31 0q14 -6 8 -28q-27 -121 -109 -537q-76 -422 -76 -561q0 -96 29 -107q12 -4 27 -4q59 0 131 80q47 53 82 129q12 25 35 25q12 0 16 -9q4 -12 -2 -30q-45 -115 -111 -178 q-98 -94 -192 -95q-98 0 -154 107q-43 86 -41 192q2 20 -6 21q-8 2 -18 -19q-180 -326 -414 -325q-184 0 -293 168q-94 145 -94 340zM868 1720q47 150 150 150q16 0 33 -4q25 -4 75 -37t76 -37q57 -6 90 43l43 -6q-25 -76 -53 -103q-39 -33 -117 -24q-29 2 -75 36t-76 36 q-31 2 -58.5 -19.5t-35.5 -48.5z" />
<glyph unicode="&#xc4;" d="M39 457q0 223 121 454q145 281 418 482q266 195 491 194q59 0 111 -16q190 -59 190 -248q0 -72 -27 -129q-23 -49 -47 -37q-31 16 -8 57q27 53 27 115q0 117 -119 166q-57 25 -125 25q-184 0 -371 -164q-197 -172 -305 -447q-141 -354 -141 -598q0 -121 41 -198 q51 -102 160 -103q127 0 254 162q115 147 155 315l180 740q4 16 9 22q6 14 20 17l117 22q20 4 31 0q14 -6 8 -28q-27 -121 -109 -537q-76 -422 -76 -561q0 -96 29 -107q12 -4 27 -4q59 0 131 80q47 53 82 129q12 25 35 25q12 0 16 -9q4 -12 -2 -30q-45 -115 -111 -178 q-98 -94 -192 -95q-98 0 -154 107q-43 86 -41 192q2 20 -6 21q-8 2 -18 -19q-180 -326 -414 -325q-184 0 -293 168q-94 145 -94 340zM786 1790q0 39 29 67.5t66 28.5q41 0 69.5 -28.5t28.5 -67.5q0 -41 -28.5 -68.5t-69.5 -27.5q-39 0 -67 28.5t-28 67.5zM1102 1790 q0 39 28.5 67.5t67.5 28.5t67.5 -28.5t28.5 -67.5q0 -41 -27.5 -68.5t-68.5 -27.5q-39 0 -67.5 28.5t-28.5 67.5z" />
<glyph unicode="&#xc5;" d="M39 457q0 223 121 454q145 281 418 482q266 195 491 194q59 0 111 -16q190 -59 190 -248q0 -72 -27 -129q-23 -49 -47 -37q-31 16 -8 57q27 53 27 115q0 117 -119 166q-57 25 -125 25q-184 0 -371 -164q-197 -172 -305 -447q-141 -354 -141 -598q0 -121 41 -198 q51 -102 160 -103q127 0 254 162q115 147 155 315l180 740q4 16 9 22q6 14 20 17l117 22q20 4 31 0q14 -6 8 -28q-27 -121 -109 -537q-76 -422 -76 -561q0 -96 29 -107q12 -4 27 -4q59 0 131 80q47 53 82 129q12 25 35 25q12 0 16 -9q4 -12 -2 -30q-45 -115 -111 -178 q-98 -94 -192 -95q-98 0 -154 107q-43 86 -41 192q2 20 -6 21q-8 2 -18 -19q-180 -326 -414 -325q-184 0 -293 168q-94 145 -94 340zM934 1827q0 66 45 110.5t108 44.5t108.5 -44.5t45.5 -110.5q0 -63 -45 -108.5t-109 -45.5q-66 0 -109.5 45t-43.5 109zM1008 1827 q0 -35 22.5 -57.5t56.5 -22.5q33 0 56.5 23.5t23.5 56.5t-23.5 57.5t-56.5 24.5q-35 0 -57 -23.5t-22 -58.5z" />
<glyph unicode="&#xc6;" horiz-adv-x="2015" d="M84 467q0 223 121 455q145 281 418 481q266 195 493 194q156 0 232 -92q139 100 297 103q147 2 239 -69t82 -169q-10 -102 -99 -169.5t-194 -74.5q-23 -2 -34 6.5t-11 20.5q2 39 45 43q68 6 115 51q57 53 51 133q-12 180 -205 164q-94 -8 -160.5 -84t-82.5 -184 q-6 -45 -7 -86q0 -129 60 -197q16 -18 49 -8q25 8 86 16q43 2 78 -10q45 -14 43 -53q-2 -66 -105 -66q-41 0 -127 25q-29 8 -49 -2q-51 -27 -133 -129q-125 -152 -141 -317q-4 -43 -4 -80q0 -332 311 -326q158 2 281 111q102 90 139 206q20 63 20 121q0 150 -118 150 q-61 0 -119 -62q-49 -53 -74 -129q-39 -129 -18 -215q6 -27 -7 -32q-14 -10 -40 10q-82 61 -82 194q0 55 20 109q33 86 112 143.5t167 57.5q55 0 104 -23q115 -55 115 -203q0 -125 -74 -243q-160 -256 -498 -256q-141 0 -272 71q-158 86 -197 230q-2 10 -8 20q-8 2 -18 -18 q-180 -326 -412 -326q-186 0 -295 168q-94 145 -94 340zM301 322q0 -121 39 -199q51 -102 162 -103q125 0 254 162q115 147 155 316l179 739q4 16 8 23q8 14 20 16l68 12q27 100 117 182q-72 59 -187 60q-182 0 -371 -164q-197 -172 -305 -446q-139 -354 -139 -598z M1190 854q72 47 121 66q23 6 22 18q0 6 -8 14q-61 51 -96 105q-20 -100 -39 -203z" />
<glyph unicode="&#xc7;" horiz-adv-x="1245" d="M47 98q43 84 217 258q-10 61 -10 127q0 207 104 432q133 291 334 497t361 206q33 0 63 -10q111 -41 111 -172q0 -164 -129 -349q-133 -193 -619 -628q-4 -49 -4 -94q0 -309 197 -318q152 -8 270 82q100 78 143 195q35 92 35 159q0 125 -102 125q-111 0 -158 -188 q-23 -88 -22 -201q0 -25 -21 -33q-20 -8 -41 21q-49 68 -49 149q0 51 18 105q31 92 99.5 155.5t152.5 63.5q31 0 64 -8q121 -39 121 -197q0 -92 -43 -194q-47 -115 -166 -201q-135 -100 -297 -100q-29 0 -55 4q-6 -27 -13 -52q55 -2 97 -16q96 -35 96 -129q4 -182 -211 -182 q-90 0 -189 59q-18 10 -18 31q0 39 33 39q8 0 39.5 -11.5t46.5 -13.5q27 -4 63 -4q100 0 101 76q0 63 -138 63l-24 27l45 125q-190 55 -264 280q-137 -141 -174 -208q-25 -49 -58 -25q-23 18 -6 55zM489 551q236 197 390 369q117 131 192 270q84 150 84 248q0 51 -27.5 87 t-76.5 36q-109 0 -240 -175q-143 -186 -236 -481q-61 -195 -86 -354z" />
<glyph unicode="&#xc8;" horiz-adv-x="1150" d="M41 385q0 29 4 59q23 184 197 330q109 90 204 125q20 6 21 19q0 6 -8 14q-147 127 -148 264q0 160 158 279q145 111 311 112q147 2 238.5 -68.5t83.5 -168.5q-10 -102 -99.5 -170t-193.5 -74q-23 -2 -34 6t-11 21q0 39 45 43q66 6 115 51q55 53 51 133q-14 180 -205 164 q-94 -8 -160.5 -84t-83.5 -185q-8 -45 -8 -86q0 -129 62 -196q14 -18 49 -8q25 8 86 16q43 2 76 -10q47 -14 45 -53q-2 -66 -105 -66q-41 0 -127 25q-29 8 -51 -3q-49 -27 -131 -129q-125 -152 -141 -317q-6 -43 -7 -80q0 -332 314 -325q158 2 280 110q102 90 140 207 q20 63 20 121q0 150 -119 149q-63 0 -118 -61q-51 -53 -74 -129q-39 -129 -19 -215q4 -27 -6 -33q-16 -10 -41 10q-82 61 -82 195q0 55 21 108q33 86 111.5 143.5t166.5 57.5q55 0 103 -22q117 -55 116 -203q0 -125 -73 -244q-160 -256 -500 -256q-188 0 -326 111 q-147 121 -147 313zM629 1913q0 53 73 53q57 0 91 -53l147 -250h-80l-213 213q-18 18 -18 37z" />
<glyph unicode="&#xc9;" horiz-adv-x="1150" d="M41 385q0 29 4 59q23 184 197 330q109 90 204 125q20 6 21 19q0 6 -8 14q-147 127 -148 264q0 160 158 279q145 111 311 112q147 2 238.5 -68.5t83.5 -168.5q-10 -102 -99.5 -170t-193.5 -74q-23 -2 -34 6t-11 21q0 39 45 43q66 6 115 51q55 53 51 133q-14 180 -205 164 q-94 -8 -160.5 -84t-83.5 -185q-8 -45 -8 -86q0 -129 62 -196q14 -18 49 -8q25 8 86 16q43 2 76 -10q47 -14 45 -53q-2 -66 -105 -66q-41 0 -127 25q-29 8 -51 -3q-49 -27 -131 -129q-125 -152 -141 -317q-6 -43 -7 -80q0 -332 314 -325q158 2 280 110q102 90 140 207 q20 63 20 121q0 150 -119 149q-63 0 -118 -61q-51 -53 -74 -129q-39 -129 -19 -215q4 -27 -6 -33q-16 -10 -41 10q-82 61 -82 195q0 55 21 108q33 86 111.5 143.5t166.5 57.5q55 0 103 -22q117 -55 116 -203q0 -125 -73 -244q-160 -256 -500 -256q-188 0 -326 111 q-147 121 -147 313zM811 1667l154 254q35 59 84 59q25 0 47 -18t22 -43q0 -17 -12 -29l-232 -221z" />
<glyph unicode="&#xca;" horiz-adv-x="1150" d="M41 385q0 29 4 59q23 184 197 330q109 90 204 125q20 6 21 19q0 6 -8 14q-147 127 -148 264q0 160 158 279q145 111 311 112q147 2 238.5 -68.5t83.5 -168.5q-10 -102 -99.5 -170t-193.5 -74q-23 -2 -34 6t-11 21q0 39 45 43q66 6 115 51q55 53 51 133q-14 180 -205 164 q-94 -8 -160.5 -84t-83.5 -185q-8 -45 -8 -86q0 -129 62 -196q14 -18 49 -8q25 8 86 16q43 2 76 -10q47 -14 45 -53q-2 -66 -105 -66q-41 0 -127 25q-29 8 -51 -3q-49 -27 -131 -129q-125 -152 -141 -317q-6 -43 -7 -80q0 -332 314 -325q158 2 280 110q102 90 140 207 q20 63 20 121q0 150 -119 149q-63 0 -118 -61q-51 -53 -74 -129q-39 -129 -19 -215q4 -27 -6 -33q-16 -10 -41 10q-82 61 -82 195q0 55 21 108q33 86 111.5 143.5t166.5 57.5q55 0 103 -22q117 -55 116 -203q0 -125 -73 -244q-160 -256 -500 -256q-188 0 -326 111 q-147 121 -147 313zM631 1694q51 39 116.5 135t96.5 178q14 35 65 29q49 -6 47 -39q-12 -179 66 -326l-18 -16q-127 127 -140 264q-94 -160 -219 -254z" />
<glyph unicode="&#xcb;" horiz-adv-x="1150" d="M41 385q0 29 4 59q23 184 197 330q109 90 204 125q20 6 21 19q0 6 -8 14q-147 127 -148 264q0 160 158 279q145 111 311 112q147 2 238.5 -68.5t83.5 -168.5q-10 -102 -99.5 -170t-193.5 -74q-23 -2 -34 6t-11 21q0 39 45 43q66 6 115 51q55 53 51 133q-14 180 -205 164 q-94 -8 -160.5 -84t-83.5 -185q-8 -45 -8 -86q0 -129 62 -196q14 -18 49 -8q25 8 86 16q43 2 76 -10q47 -14 45 -53q-2 -66 -105 -66q-41 0 -127 25q-29 8 -51 -3q-49 -27 -131 -129q-125 -152 -141 -317q-6 -43 -7 -80q0 -332 314 -325q158 2 280 110q102 90 140 207 q20 63 20 121q0 150 -119 149q-63 0 -118 -61q-51 -53 -74 -129q-39 -129 -19 -215q4 -27 -6 -33q-16 -10 -41 10q-82 61 -82 195q0 55 21 108q33 86 111.5 143.5t166.5 57.5q55 0 103 -22q117 -55 116 -203q0 -125 -73 -244q-160 -256 -500 -256q-188 0 -326 111 q-147 121 -147 313zM602 1780q0 39 28.5 67.5t67.5 28.5t68 -28.5t29 -67.5q0 -41 -28 -69t-69 -28q-39 0 -67.5 29t-28.5 68zM920 1780q0 39 28.5 67.5t67.5 28.5t67.5 -28.5t28.5 -67.5q0 -41 -27.5 -69t-68.5 -28t-68.5 29t-27.5 68z" />
<glyph unicode="&#xcc;" horiz-adv-x="1177" d="M20 250q0 102 58 178q61 86 160 86q43 0 75.5 -27.5t32.5 -68.5q0 -37 -23.5 -63.5t-71.5 -40t-79 -44.5q-43 -43 -43 -98q0 -61 53.5 -105t159.5 -44q168 0 289 131q70 74 127 180q-143 184 -201 383q-45 147 -45 319q0 205 61 348q70 162 199 193q29 6 55 6 q156 0 242 -211q74 -178 70 -409q-6 -422 -224 -715q76 -74 168 -139q14 -12 23 -33q6 -20 0 -33q-14 -23 -59 10q-88 66 -170 148q-88 -102 -197 -162q-150 -82 -301 -82q-154 0 -256.5 83t-102.5 210zM584 1049q0 -365 204 -652q164 342 164 805q0 328 -151 316 q-100 -6 -160 -148q-57 -131 -57 -321zM627 1917q0 53 73 53q57 0 88 -53l150 -250h-80l-215 213q-16 18 -16 37z" />
<glyph unicode="&#xcd;" horiz-adv-x="1177" d="M20 250q0 102 58 178q61 86 160 86q43 0 75.5 -27.5t32.5 -68.5q0 -37 -23.5 -63.5t-71.5 -40t-79 -44.5q-43 -43 -43 -98q0 -61 53.5 -105t159.5 -44q168 0 289 131q70 74 127 180q-143 184 -201 383q-45 147 -45 319q0 205 61 348q70 162 199 193q29 6 55 6 q156 0 242 -211q74 -178 70 -409q-6 -422 -224 -715q76 -74 168 -139q14 -12 23 -33q6 -20 0 -33q-14 -23 -59 10q-88 66 -170 148q-88 -102 -197 -162q-150 -82 -301 -82q-154 0 -256.5 83t-102.5 210zM584 1049q0 -365 204 -652q164 342 164 805q0 328 -151 316 q-100 -6 -160 -148q-57 -131 -57 -321zM825 1665l154 254q35 59 84 59q25 0 47.5 -18t22.5 -43q-1 -17 -13 -29l-231 -221z" />
<glyph unicode="&#xce;" horiz-adv-x="1177" d="M20 250q0 102 58 178q61 86 160 86q43 0 75.5 -27.5t32.5 -68.5q0 -37 -23.5 -63.5t-71.5 -40t-79 -44.5q-43 -43 -43 -98q0 -61 53.5 -105t159.5 -44q168 0 289 131q70 74 127 180q-143 184 -201 383q-45 147 -45 319q0 205 61 348q70 162 199 193q29 6 55 6 q156 0 242 -211q74 -178 70 -409q-6 -422 -224 -715q76 -74 168 -139q14 -12 23 -33q6 -20 0 -33q-14 -23 -59 10q-88 66 -170 148q-88 -102 -197 -162q-150 -82 -301 -82q-154 0 -256.5 83t-102.5 210zM584 1049q0 -365 204 -652q164 342 164 805q0 328 -151 316 q-100 -6 -160 -148q-57 -131 -57 -321zM651 1675q51 39 117 135.5t96 178.5q14 35 66 28q49 -6 47 -39q-13 -178 65 -325l-18 -17q-127 127 -139 265q-94 -160 -219 -254z" />
<glyph unicode="&#xcf;" horiz-adv-x="1177" d="M20 250q0 102 58 178q61 86 160 86q43 0 75.5 -27.5t32.5 -68.5q0 -37 -23.5 -63.5t-71.5 -40t-79 -44.5q-43 -43 -43 -98q0 -61 53.5 -105t159.5 -44q168 0 289 131q70 74 127 180q-143 184 -201 383q-45 147 -45 319q0 205 61 348q70 162 199 193q29 6 55 6 q156 0 242 -211q74 -178 70 -409q-6 -422 -224 -715q76 -74 168 -139q14 -12 23 -33q6 -20 0 -33q-14 -23 -59 10q-88 66 -170 148q-88 -102 -197 -162q-150 -82 -301 -82q-154 0 -256.5 83t-102.5 210zM584 1049q0 -365 204 -652q164 342 164 805q0 328 -151 316 q-100 -6 -160 -148q-57 -131 -57 -321zM633 1784q0 39 28.5 67.5t65.5 28.5q41 0 69.5 -28.5t28.5 -67.5q0 -41 -28.5 -68.5t-69.5 -27.5q-39 0 -66.5 28.5t-27.5 67.5zM948 1784q0 39 29 67.5t67 28.5q39 0 68 -28.5t29 -67.5q0 -41 -28 -68.5t-69 -27.5q-39 0 -67.5 28.5 t-28.5 67.5z" />
<glyph unicode="&#xd0;" horiz-adv-x="1527" d="M20 145q0 78 84 119q70 33 150 25q129 -10 321 -119q80 100 132 389h-170l20 94h166q49 291 102 414q70 170 191 291q35 35 53 10q12 -16 -12 -45q-57 -76 -86 -219q-8 -41 -15 -184q-4 -184 -10 -267h174l-20 -94h-164q-12 -88 -29 -149q-51 -178 -215 -301 q129 -59 242 -60q221 0 348 242q104 197 104 436q0 41 -2 84q-25 358 -206 549q-160 168 -400 168q-51 0 -102 -8q-203 -33 -334 -174q-115 -125 -115 -261q0 -29 6 -53q27 -106 117 -151q59 -31 127 -27q57 2 117 33q25 12 39 -6q10 -12 0 -35q-25 -55 -88 -103 q-92 -70 -211 -57q-109 12 -189 94q-88 92 -88 221q0 98 56 207q90 174 295.5 285t433.5 111q119 0 227 -35q223 -70 336 -275q102 -182 102 -438q0 -313 -133 -559q-159 -297 -444 -309q-158 -6 -312 73q-160 -90 -356 -88q-106 2 -174 55.5t-68 116.5zM92 150 q-12 -96 174 -105q158 -6 256 70q-184 109 -297 108q-123 0 -133 -73z" />
<glyph unicode="&#xd1;" horiz-adv-x="1603" d="M41 1051q0 164 115 313q84 111 217 174q127 59 256 59q98 0 174 -34q156 -72 155 -308q0 -88 -26 -231q43 68 74 109q156 211 292 210q29 0 56 -6q174 -47 162 -301q-8 -193 -140 -680q-41 -158 -41 -227q0 -68 33 -78q14 -6 27 -6q63 0 143 96q25 29 94 138q16 28 39 14 q20 -14 0 -57q-53 -109 -121 -173q-90 -84 -184 -83q-18 0 -37 4q-80 16 -117 114q-35 90 -24 230q8 119 141 712q25 106 25 148q0 82 -68 92q-53 8 -137 -68q-72 -66 -133 -161q-55 -82 -131 -271l-144 -717q-14 -59 -55 -63q-25 -4 -149 -4q-31 0 -31 31q0 20 12 51 q20 57 80 293q63 254 102 450q61 299 62 434q0 213 -117 254q-39 12 -80 13q-111 0 -216 -77t-142 -194q-25 -76 -25 -137q0 -76 41 -126t113 -50q92 0 153 70q14 18 29 16q18 -6 23 -43q6 -63 -47 -137q-68 -94 -187 -96q-119 0 -192.5 87t-73.5 216zM1030 1577 q47 150 150 149q16 0 32 -4q25 -4 75 -36.5t77 -36.5q57 -6 90 43l43 -6q-25 -76 -53 -103q-39 -33 -117 -24q-29 2 -75 35.5t-76 35.5q-31 2 -58.5 -19.5t-36.5 -47.5z" />
<glyph unicode="&#xd2;" horiz-adv-x="1249" d="M39 537q0 172 72 354q117 299 346 497.5t454 198.5q63 0 121 -18q149 -46 174 -185q6 -35 -18 -36q-27 -2 -49 45q-57 119 -191 129q-166 12 -321 -131q-184 -172 -289 -527q-72 -242 -72 -440q0 -188 66 -293q68 -111 192 -111q209 2 348 183q133 174 187 495 q29 184 28 303q0 268 -167 283q-119 10 -238 -158q-113 -156 -156 -364q-25 -127 -24 -242q0 -102 30 -250q12 -55 -18 -61q-23 -4 -37 31q-35 90 -35 274q0 180 50 346q66 211 172 340q117 143 249 143q158 0 246 -149q72 -125 72 -295q0 -154 -55 -332q-90 -289 -271 -454 q-172 -160 -377 -160q-225 0 -362 182q-127 168 -127 402zM731 1935q0 53 74 54q57 0 88 -54l149 -249h-79l-215 212q-16 18 -17 37z" />
<glyph unicode="&#xd3;" horiz-adv-x="1249" d="M39 537q0 172 72 354q117 299 346 497.5t454 198.5q63 0 121 -18q149 -46 174 -185q6 -35 -18 -36q-27 -2 -49 45q-57 119 -191 129q-166 12 -321 -131q-184 -172 -289 -527q-72 -242 -72 -440q0 -188 66 -293q68 -111 192 -111q209 2 348 183q133 174 187 495 q29 184 28 303q0 268 -167 283q-119 10 -238 -158q-113 -156 -156 -364q-25 -127 -24 -242q0 -102 30 -250q12 -55 -18 -61q-23 -4 -37 31q-35 90 -35 274q0 180 50 346q66 211 172 340q117 143 249 143q158 0 246 -149q72 -125 72 -295q0 -154 -55 -332q-90 -289 -271 -454 q-172 -160 -377 -160q-225 0 -362 182q-127 168 -127 402zM895 1683l154 254q35 59 84 60q25 0 47 -18.5t22 -43.5q0 -16 -12 -28l-232 -221z" />
<glyph unicode="&#xd4;" horiz-adv-x="1249" d="M39 537q0 172 72 354q117 299 346 497.5t454 198.5q63 0 121 -18q149 -46 174 -185q6 -35 -18 -36q-27 -2 -49 45q-57 119 -191 129q-166 12 -321 -131q-184 -172 -289 -527q-72 -242 -72 -440q0 -188 66 -293q68 -111 192 -111q209 2 348 183q133 174 187 495 q29 184 28 303q0 268 -167 283q-119 10 -238 -158q-113 -156 -156 -364q-25 -127 -24 -242q0 -102 30 -250q12 -55 -18 -61q-23 -4 -37 31q-35 90 -35 274q0 180 50 346q66 211 172 340q117 143 249 143q158 0 246 -149q72 -125 72 -295q0 -154 -55 -332q-90 -289 -271 -454 q-172 -160 -377 -160q-225 0 -362 182q-127 168 -127 402zM760 1686q51 39 116.5 135t96.5 178q14 35 65 29q49 -6 47 -39q-12 -179 66 -326l-18 -16q-127 127 -140 264q-94 -160 -219 -254z" />
<glyph unicode="&#xd5;" horiz-adv-x="1249" d="M39 537q0 172 72 354q117 299 346 497.5t454 198.5q63 0 121 -18q149 -46 174 -185q6 -35 -18 -36q-27 -2 -49 45q-57 119 -191 129q-166 12 -321 -131q-184 -172 -289 -527q-72 -242 -72 -440q0 -188 66 -293q68 -111 192 -111q209 2 348 183q133 174 187 495 q29 184 28 303q0 268 -167 283q-119 10 -238 -158q-113 -156 -156 -364q-25 -127 -24 -242q0 -102 30 -250q12 -55 -18 -61q-23 -4 -37 31q-35 90 -35 274q0 180 50 346q66 211 172 340q117 143 249 143q158 0 246 -149q72 -125 72 -295q0 -154 -55 -332q-90 -289 -271 -454 q-172 -160 -377 -160q-225 0 -362 182q-127 168 -127 402zM731 1733q47 150 150 149q16 0 32 -4q25 -4 75 -37t77 -37q57 -6 90 43l43 -6q-25 -76 -53 -102q-39 -33 -117 -25q-29 2 -75 36t-76 36q-31 2 -58.5 -19.5t-36.5 -48.5z" />
<glyph unicode="&#xd6;" horiz-adv-x="1249" d="M39 537q0 172 72 354q117 299 346 497.5t454 198.5q63 0 121 -18q149 -46 174 -185q6 -35 -18 -36q-27 -2 -49 45q-57 119 -191 129q-166 12 -321 -131q-184 -172 -289 -527q-72 -242 -72 -440q0 -188 66 -293q68 -111 192 -111q209 2 348 183q133 174 187 495 q29 184 28 303q0 268 -167 283q-119 10 -238 -158q-113 -156 -156 -364q-25 -127 -24 -242q0 -102 30 -250q12 -55 -18 -61q-23 -4 -37 31q-35 90 -35 274q0 180 50 346q66 211 172 340q117 143 249 143q158 0 246 -149q72 -125 72 -295q0 -154 -55 -332q-90 -289 -271 -454 q-172 -160 -377 -160q-225 0 -362 182q-127 168 -127 402zM707 1782q0 39 28.5 67.5t67.5 28.5t67.5 -28.5t28.5 -67.5q0 -41 -27.5 -68.5t-68.5 -27.5q-39 0 -67.5 28.5t-28.5 67.5zM1024 1782q0 39 28.5 67.5t67.5 28.5t68 -28.5t29 -67.5q0 -41 -28 -68.5t-69 -27.5 t-68.5 28.5t-27.5 67.5z" />
<glyph unicode="&#xd8;" horiz-adv-x="1251" d="M39 557q0 172 72 354q117 299 346 498t454 199q63 0 121 -19q123 -37 166 -149l111 151q12 18 30 19q33 0 33 -33q0 -15 -10 -27l-223 -303q92 -123 92 -327q0 -154 -55 -332q-90 -289 -271 -455q-172 -160 -377 -160q-150 0 -266 88l-137 -186q-14 -18 -31 -18 q-31 0 -31 34q0 14 9 25l139 188q-172 170 -172 453zM266 444q0 -129 31 -221l152 203q-6 53 -7 109q0 180 50 346q66 211 172 340q117 143 249 143q98 0 179 -68l65 88q-10 12 -18 29q-57 119 -191 129q-166 12 -321 -131q-184 -172 -289 -526q-72 -242 -72 -441zM330 152 q68 -111 194 -111q209 2 348 182q133 174 187 496q29 184 28 303q0 82 -14 137l-561 -762q4 -27 20 -106q12 -55 -18 -62q-33 -6 -53 101zM502 500l542 733q-41 63 -124 72q-119 10 -238 -158q-113 -156 -156 -365q-31 -150 -24 -282z" />
<glyph unicode="&#xd9;" horiz-adv-x="1556" d="M41 1044q0 164 131 324q88 106 219 164q121 51 244 51q104 0 174 -39q178 -94 178 -313q0 -82 -24 -182q-35 -147 -111 -385q-82 -248 -94 -302q-47 -184 -47 -241q0 -88 61 -92q88 -8 193 96q121 121 184 332q129 420 207 770q8 39 45 49q29 8 115 20q43 6 43 -20 q0 -6 -3 -14q-76 -246 -147 -584q-74 -350 -74 -500q0 -125 56 -125q61 0 137 82q70 76 90 141q8 23 29 13q20 -8 10 -43q-29 -86 -101 -164q-113 -121 -241 -105q-158 20 -162 302q-2 33 -12 16q-6 -8 -15 -31q-31 -80 -104 -168q-119 -141 -250 -141q-23 0 -45 6 q-195 37 -195 279q0 96 29 184q205 600 219 797q10 143 -43 219t-176 71q-125 -2 -235 -88q-121 -90 -156 -223q-8 -29 -8 -61q0 -143 104 -187q35 -14 72 -14q88 0 135 55q25 29 45 27t21 -41q-2 -92 -76 -157.5t-170 -65.5q-113 0 -182.5 86t-69.5 202zM963 1817 q0 53 73 53q57 0 88 -53l150 -250h-80l-215 213q-16 18 -16 37z" />
<glyph unicode="&#xda;" horiz-adv-x="1556" d="M41 1044q0 164 131 324q88 106 219 164q121 51 244 51q104 0 174 -39q178 -94 178 -313q0 -82 -24 -182q-35 -147 -111 -385q-82 -248 -94 -302q-47 -184 -47 -241q0 -88 61 -92q88 -8 193 96q121 121 184 332q129 420 207 770q8 39 45 49q29 8 115 20q43 6 43 -20 q0 -6 -3 -14q-76 -246 -147 -584q-74 -350 -74 -500q0 -125 56 -125q61 0 137 82q70 76 90 141q8 23 29 13q20 -8 10 -43q-29 -86 -101 -164q-113 -121 -241 -105q-158 20 -162 302q-2 33 -12 16q-6 -8 -15 -31q-31 -80 -104 -168q-119 -141 -250 -141q-23 0 -45 6 q-195 37 -195 279q0 96 29 184q205 600 219 797q10 143 -43 219t-176 71q-125 -2 -235 -88q-121 -90 -156 -223q-8 -29 -8 -61q0 -143 104 -187q35 -14 72 -14q88 0 135 55q25 29 45 27t21 -41q-2 -92 -76 -157.5t-170 -65.5q-113 0 -182.5 86t-69.5 202zM1167 1501l154 254 q35 59 84 60q25 0 47.5 -18.5t22.5 -43.5q-1 -17 -13 -29l-231 -221z" />
<glyph unicode="&#xdb;" horiz-adv-x="1556" d="M41 1044q0 164 131 324q88 106 219 164q121 51 244 51q104 0 174 -39q178 -94 178 -313q0 -82 -24 -182q-35 -147 -111 -385q-82 -248 -94 -302q-47 -184 -47 -241q0 -88 61 -92q88 -8 193 96q121 121 184 332q129 420 207 770q8 39 45 49q29 8 115 20q43 6 43 -20 q0 -6 -3 -14q-76 -246 -147 -584q-74 -350 -74 -500q0 -125 56 -125q61 0 137 82q70 76 90 141q8 23 29 13q20 -8 10 -43q-29 -86 -101 -164q-113 -121 -241 -105q-158 20 -162 302q-2 33 -12 16q-6 -8 -15 -31q-31 -80 -104 -168q-119 -141 -250 -141q-23 0 -45 6 q-195 37 -195 279q0 96 29 184q205 600 219 797q10 143 -43 219t-176 71q-125 -2 -235 -88q-121 -90 -156 -223q-8 -29 -8 -61q0 -143 104 -187q35 -14 72 -14q88 0 135 55q25 29 45 27t21 -41q-2 -92 -76 -157.5t-170 -65.5q-113 0 -182.5 86t-69.5 202zM1040 1569 q51 39 117 135t96 178q14 35 66 29q49 -6 47 -39q-12 -179 66 -326l-19 -16q-127 127 -139 264q-94 -160 -219 -254z" />
<glyph unicode="&#xdc;" horiz-adv-x="1556" d="M41 1044q0 164 131 324q88 106 219 164q121 51 244 51q104 0 174 -39q178 -94 178 -313q0 -82 -24 -182q-35 -147 -111 -385q-82 -248 -94 -302q-47 -184 -47 -241q0 -88 61 -92q88 -8 193 96q121 121 184 332q129 420 207 770q8 39 45 49q29 8 115 20q43 6 43 -20 q0 -6 -3 -14q-76 -246 -147 -584q-74 -350 -74 -500q0 -125 56 -125q61 0 137 82q70 76 90 141q8 23 29 13q20 -8 10 -43q-29 -86 -101 -164q-113 -121 -241 -105q-158 20 -162 302q-2 33 -12 16q-6 -8 -15 -31q-31 -80 -104 -168q-119 -141 -250 -141q-23 0 -45 6 q-195 37 -195 279q0 96 29 184q205 600 219 797q10 143 -43 219t-176 71q-125 -2 -235 -88q-121 -90 -156 -223q-8 -29 -8 -61q0 -143 104 -187q35 -14 72 -14q88 0 135 55q25 29 45 27t21 -41q-2 -92 -76 -157.5t-170 -65.5q-113 0 -182.5 86t-69.5 202zM983 1706 q0 39 28.5 67.5t65.5 28.5q41 0 70 -28.5t29 -67.5q0 -41 -29 -68.5t-70 -27.5q-39 0 -66.5 28.5t-27.5 67.5zM1298 1706q0 39 29 67.5t68 28.5t67.5 -28.5t28.5 -67.5q0 -41 -27.5 -68.5t-68.5 -27.5q-39 0 -68 28.5t-29 67.5z" />
<glyph unicode="&#xdd;" horiz-adv-x="1392" d="M41 1094q10 162 160 319q166 170 368 168q182 -4 277 -115q78 -90 78 -221q0 -25 -4 -49q-10 -72 -142 -485q-12 -43 -12 -70q0 -55 55 -55q137 0 250 172q59 90 135 250q92 193 111 227q72 129 108 162q31 27 56 2q14 -12 -2 -45q-51 -98 -56 -107q-33 -72 -47 -149 q-18 -86 -35 -346q-14 -233 -43 -334q-131 -463 -614 -457q-203 2 -309 105q-86 84 -86 200q0 84 44 131t109 47q72 0 95 -41q8 -14 8 -32q0 -57 -53.5 -100.5t-36.5 -116.5q25 -117 217 -125q250 -10 346 231q57 139 110 451q2 14 2 18q-2 6 -8 0q-4 -4 -16 -22 q-119 -184 -277 -185q-18 0 -36 4q-92 16 -142 95q-43 70 -43 167q0 49 10 97q53 166 121 432q2 18 2 37q0 170 -172 170q-94 0 -192 -74q-82 -63 -123 -139q-47 -90 -47 -174q0 -88 61 -123q43 -25 84 -25q78 0 129 74q23 35 41 22q23 -16 6 -59q-33 -84 -98 -141 q-74 -66 -156 -66q-98 0 -165 72q-74 78 -68 203zM1108 1518l154 254q35 59 84 59q25 0 47 -18.5t22 -43.5q0 -16 -12 -28l-232 -221z" />
<glyph unicode="&#xdf;" horiz-adv-x="829" d="M-406 -231q2 53 48 53q43 0 37.5 -46t16 -84t56.5 -42q57 -8 111 57q66 78 100 227q29 119 133 711q104 575 115 612q29 106 104 162q68 47 152 39q90 -8 156 -100q72 -100 71 -244q0 -37 -4 -76q-14 -104 -80 -192q-35 -49 -116 -123q-59 -57 -64 -82q-4 -27 70 -72 q109 -66 145 -100q82 -76 90 -168q14 -170 -117 -266q-109 -78 -237 -70q-84 4 -133 55q-43 45 -43 109q0 31 12 61q33 88 100 89q18 0 37 -9q53 -23 54 -80q0 -25 -17.5 -47t-52.5 -26t-45 -35q-8 -20 15.5 -44t68.5 -24q76 2 131 70q59 76 59 192q0 160 -168 271 q-53 35 -51 90q0 39 37 72q106 98 145 356q10 72 11 137q0 180 -82 197q-78 16 -119 -191q-55 -307 -111 -616q-104 -567 -131 -641q-135 -365 -336 -365q-20 0 -41 4q-133 29 -127 179z" />
<glyph unicode="&#xe0;" horiz-adv-x="827" d="M-12 231q0 86 45 181q61 125 168 192q92 57 186 58q109 0 166 -101q33 76 72 92q16 6 39 4q59 -4 53 -30q-25 -86 -70 -279q-27 -143 -26 -215q0 -80 41 -80q53 0 129 90q39 47 69 109q8 14 23 14q20 0 20 -22q0 -25 -49 -99q-43 -63 -70 -88q-84 -80 -176 -67 q-109 14 -127 162q-104 -166 -274 -166q-98 0 -160 75q-59 70 -59 170zM162 150q0 -88 51 -105q14 -4 31 -4q72 0 145 88q55 63 94 154q10 80 37 178q-6 113 -88 137q-18 4 -35 4q-131 0 -204 -274q-31 -111 -31 -178zM262 985q0 53 74 53q57 0 90 -53l147 -250h-79 l-213 213q-18 18 -19 37z" />
<glyph unicode="&#xe1;" horiz-adv-x="831" d="M-12 231q0 86 45 181q61 125 168 192q92 57 186 58q109 0 166 -101q33 76 72 92q16 6 39 4q59 -4 53 -30q-25 -86 -70 -279q-27 -143 -26 -215q0 -80 41 -80q53 0 129 90q39 47 69 109q8 14 23 14q20 0 20 -22q0 -25 -49 -99q-43 -63 -70 -88q-84 -80 -176 -67 q-109 14 -127 162q-104 -166 -274 -166q-98 0 -160 75q-59 70 -59 170zM162 150q0 -88 51 -105q14 -4 31 -4q72 0 145 88q55 63 94 154q10 80 37 178q-6 113 -88 137q-18 4 -35 4q-131 0 -204 -274q-31 -111 -31 -178zM418 727l153 254q35 59 84 59q25 0 47.5 -18t22.5 -43 q0 -17 -12 -29l-232 -221z" />
<glyph unicode="&#xe2;" horiz-adv-x="827" d="M-12 231q0 86 45 181q61 125 168 192q92 57 186 58q109 0 166 -101q33 76 72 92q16 6 39 4q59 -4 53 -30q-25 -86 -70 -279q-27 -143 -26 -215q0 -80 41 -80q53 0 129 90q39 47 69 109q8 14 23 14q20 0 20 -22q0 -25 -49 -99q-43 -63 -70 -88q-84 -80 -176 -67 q-109 14 -127 162q-104 -166 -274 -166q-98 0 -160 75q-59 70 -59 170zM162 150q0 -88 51 -105q14 -4 31 -4q72 0 145 88q55 63 94 154q10 80 37 178q-6 113 -88 137q-18 4 -35 4q-131 0 -204 -274q-31 -111 -31 -178zM287 762q51 39 116.5 135t96.5 178q14 35 65 29 q49 -6 47 -39q-12 -179 66 -326l-19 -16q-127 127 -139 264q-94 -160 -219 -254z" />
<glyph unicode="&#xe3;" horiz-adv-x="827" d="M-12 231q0 86 45 181q61 125 168 192q92 57 186 58q109 0 166 -101q33 76 72 92q16 6 39 4q59 -4 53 -30q-25 -86 -70 -279q-27 -143 -26 -215q0 -80 41 -80q53 0 129 90q39 47 69 109q8 14 23 14q20 0 20 -22q0 -25 -49 -99q-43 -63 -70 -88q-84 -80 -176 -67 q-109 14 -127 162q-104 -166 -274 -166q-98 0 -160 75q-59 70 -59 170zM162 150q0 -88 51 -105q14 -4 31 -4q72 0 145 88q55 63 94 154q10 80 37 178q-6 113 -88 137q-18 4 -35 4q-131 0 -204 -274q-31 -111 -31 -178zM240 780q49 147 149 148q16 0 33 -2q25 -6 76 -39 t77 -35q55 -8 91 43l43 -6q-25 -76 -56 -103q-37 -33 -116 -24q-27 2 -74 35.5t-78 36.5q-29 2 -57.5 -19.5t-36.5 -48.5z" />
<glyph unicode="&#xe4;" horiz-adv-x="831" d="M-12 231q0 86 45 181q61 125 168 192q92 57 186 58q109 0 166 -101q33 76 72 92q16 6 39 4q59 -4 53 -30q-25 -86 -70 -279q-27 -143 -26 -215q0 -80 41 -80q53 0 129 90q39 47 69 109q8 14 23 14q20 0 20 -22q0 -25 -49 -99q-43 -63 -70 -88q-84 -80 -176 -67 q-109 14 -127 162q-104 -166 -274 -166q-98 0 -160 75q-59 70 -59 170zM162 150q0 -88 51 -105q14 -4 31 -4q72 0 145 88q55 63 94 154q10 80 37 178q-6 113 -88 137q-18 4 -35 4q-131 0 -204 -274q-31 -111 -31 -178zM229 838q0 39 29 67.5t68 28.5t67.5 -28.5t28.5 -67.5 q0 -41 -27.5 -69t-68.5 -28q-39 0 -68 29t-29 68zM547 838q0 39 28.5 67.5t67.5 28.5t67.5 -28.5t28.5 -67.5q0 -41 -27.5 -69t-68.5 -28t-68.5 29t-27.5 68z" />
<glyph unicode="&#xe5;" horiz-adv-x="837" d="M-12 231q0 86 45 181q61 125 168 192q92 57 186 58q109 0 166 -101q33 76 72 92q16 6 39 4q59 -4 53 -30q-25 -86 -70 -279q-27 -143 -26 -215q0 -80 41 -80q53 0 129 90q39 47 69 109q8 14 23 14q20 0 20 -22q0 -25 -49 -99q-43 -63 -70 -88q-84 -80 -176 -67 q-109 14 -127 162q-104 -166 -274 -166q-98 0 -160 75q-59 70 -59 170zM162 150q0 -88 51 -105q14 -4 31 -4q72 0 145 88q55 63 94 154q10 80 37 178q-6 113 -88 137q-18 4 -35 4q-131 0 -204 -274q-31 -111 -31 -178zM346 915q0 66 45 111t109 45q63 0 108 -45t45 -111 q0 -63 -45 -108t-108 -45q-66 0 -110 45t-44 108zM420 915q0 -35 22.5 -57t57.5 -22q33 0 56.5 23t23.5 56t-24 57.5t-56 24.5q-35 0 -57.5 -23.5t-22.5 -58.5z" />
<glyph unicode="&#xe6;" horiz-adv-x="1179" d="M-12 231q0 86 47 181q59 125 166 192q92 57 186 58q111 0 168 -101q31 76 70 92q18 6 41 4q57 -4 51 -30q-2 -12 -6 -27l14 8q94 51 205 51q113 0 155 -67q18 -31 19 -68q0 -70 -64.5 -143.5t-177.5 -128.5q-100 -49 -190 -70q16 -94 92 -125q49 -20 94 -20q70 0 180 55 q125 61 172 170q12 25 33 4q16 -16 0 -45q-29 -53 -57 -86q-53 -61 -133 -100q-104 -51 -226 -51q-68 0 -129 16q-154 43 -217 152q-104 -166 -274 -166q-96 0 -160 75q-59 70 -59 170zM164 150q0 -88 49 -105q14 -4 31 -4q72 0 145 88q55 63 94 154q10 80 39 178 q-8 113 -90 137q-16 4 -33 4q-133 0 -206 -274q-29 -111 -29 -178zM666 240q117 14 186 75q45 39 74.5 99.5t29.5 109.5q1 76 -71 76q-61 0 -117 -59q-61 -66 -86 -181q-16 -66 -16 -120z" />
<glyph unicode="&#xe7;" horiz-adv-x="667" d="M-4 268q0 143 116.5 268.5t262.5 125.5q111 0 162 -54q39 -41 32 -92q-14 -98 -102 -92q-78 4 -78 76q0 10 2 20q18 76 -31 80q-45 4 -93 -62.5t-72 -168.5q-18 -80 -19 -140q0 -135 96 -174q49 -20 103 -20q82 0 162 43q102 57 176 184q10 20 30 6q16 -10 -2 -47 q-63 -131 -198 -198q-109 -51 -244 -39q-6 -23 -12 -43q41 0 69 -13q70 -25 72 -92q2 -133 -156 -133q-80 0 -135 41q-6 6 -6 29q0 25 12 24q6 0 13 -4q33 -18 100 -18q74 0 74 55q0 47 -101 47q-4 0 -11 9.5t-11 9.5l37 94q-111 20 -176 90q-72 76 -72 188z" />
<glyph unicode="&#xe8;" horiz-adv-x="686" d="M-10 258q0 221 235 350q96 51 205 51q113 0 156 -67q18 -31 18 -68q0 -70 -64.5 -143.5t-177.5 -128.5q-100 -49 -190 -70q16 -94 92 -125q49 -20 94 -20q70 0 181 55q125 61 172 170q12 25 32 4q16 -16 0 -45q-29 -53 -57 -86q-53 -61 -133 -100q-109 -53 -225 -53 q-125 0 -215 59q-123 80 -123 217zM160 985q0 53 73 53q57 0 91 -53l147 -250h-80l-213 213q-18 18 -18 37zM166 240q117 14 186 75q45 39 75 99.5t30 109.5q0 76 -72 76q-61 0 -117 -59q-61 -66 -86 -181q-16 -66 -16 -120z" />
<glyph unicode="&#xe9;" horiz-adv-x="690" d="M-10 258q0 221 235 350q96 51 205 51q113 0 156 -67q18 -31 18 -68q0 -70 -64.5 -143.5t-177.5 -128.5q-100 -49 -190 -70q16 -94 92 -125q49 -20 94 -20q70 0 181 55q125 61 172 170q12 25 32 4q16 -16 0 -45q-29 -53 -57 -86q-53 -61 -133 -100q-109 -53 -225 -53 q-125 0 -215 59q-123 80 -123 217zM166 240q117 14 186 75q45 39 75 99.5t30 109.5q0 76 -72 76q-61 0 -117 -59q-61 -66 -86 -181q-16 -66 -16 -120zM356 727l154 254q35 59 84 59q25 0 47.5 -18t22.5 -43q-1 -17 -13 -29l-231 -221z" />
<glyph unicode="&#xea;" horiz-adv-x="681" d="M-10 258q0 221 235 350q96 51 205 51q113 0 156 -67q18 -31 18 -68q0 -70 -64.5 -143.5t-177.5 -128.5q-100 -49 -190 -70q16 -94 92 -125q49 -20 94 -20q70 0 181 55q125 61 172 170q12 25 32 4q16 -16 0 -45q-29 -53 -57 -86q-53 -61 -133 -100q-109 -53 -225 -53 q-125 0 -215 59q-123 80 -123 217zM166 240q117 14 186 75q45 39 75 99.5t30 109.5q0 76 -72 76q-61 0 -117 -59q-61 -66 -86 -181q-16 -66 -16 -120zM225 743q51 39 117 135.5t96 178.5q14 35 66 28q49 -6 47 -38q-13 -179 65 -326l-18 -16q-127 127 -139 264 q-94 -160 -219 -254z" />
<glyph unicode="&#xeb;" horiz-adv-x="686" d="M-10 258q0 221 235 350q96 51 205 51q113 0 156 -67q18 -31 18 -68q0 -70 -64.5 -143.5t-177.5 -128.5q-100 -49 -190 -70q16 -94 92 -125q49 -20 94 -20q70 0 181 55q125 61 172 170q12 25 32 4q16 -16 0 -45q-29 -53 -57 -86q-53 -61 -133 -100q-109 -53 -225 -53 q-125 0 -215 59q-123 80 -123 217zM147 838q0 39 29 67.5t68 28.5t67.5 -28.5t28.5 -67.5q0 -41 -27.5 -69t-68.5 -28q-39 0 -68 29t-29 68zM166 240q117 14 186 75q45 39 75 99.5t30 109.5q0 76 -72 76q-61 0 -117 -59q-61 -66 -86 -181q-16 -66 -16 -120zM465 838 q0 39 28.5 67.5t67.5 28.5t67.5 -28.5t28.5 -67.5q0 -41 -27.5 -69t-68.5 -28t-68.5 29t-27.5 68z" />
<glyph unicode="&#xec;" horiz-adv-x="385" d="M-43 979q0 53 74 53q57 0 90 -53l147 -250h-80l-213 213q-18 18 -18 37zM8 227q0 53 12 111q53 246 91 289q31 35 69 30q63 -4 64 -53q0 -31 -23 -117q-29 -117 -33 -145q-31 -164 -30 -217q0 -70 43 -70q59 0 127 78q55 61 80 121q10 27 30 14q18 -10 6 -41 q-35 -92 -112 -164q-90 -82 -189 -69q-59 8 -97 72.5t-38 160.5z" />
<glyph unicode="&#xed;" horiz-adv-x="385" d="M8 227q0 53 12 111q53 246 91 289q31 35 69 30q63 -4 64 -53q0 -31 -23 -117q-29 -117 -33 -145q-31 -164 -30 -217q0 -70 43 -70q59 0 127 78q55 61 80 121q10 27 30 14q18 -10 6 -41q-35 -92 -112 -164q-90 -82 -189 -69q-59 8 -97 72.5t-38 160.5zM156 727l153 254 q35 59 84 59q25 0 47.5 -18t22.5 -43q0 -17 -12 -29l-232 -221z" />
<glyph unicode="&#xee;" horiz-adv-x="385" d="M4 737q51 39 116.5 135.5t96.5 178.5q14 35 66 28q49 -6 47 -39q-13 -178 65 -325l-18 -17q-127 127 -139 265q-94 -160 -220 -254zM8 227q0 53 12 111q53 246 91 289q31 35 69 30q63 -4 64 -53q0 -31 -23 -117q-29 -117 -33 -145q-31 -164 -30 -217q0 -70 43 -70 q59 0 127 78q55 61 80 121q10 27 30 14q18 -10 6 -41q-35 -92 -112 -164q-90 -82 -189 -69q-59 8 -97 72.5t-38 160.5z" />
<glyph unicode="&#xef;" horiz-adv-x="385" d="M-41 854q0 39 28.5 67.5t67.5 28.5t68 -28.5t29 -67.5q0 -41 -28 -68.5t-69 -27.5q-39 0 -67.5 28.5t-28.5 67.5zM8 227q0 53 12 111q53 246 91 289q31 35 69 30q63 -4 64 -53q0 -31 -23 -117q-29 -117 -33 -145q-31 -164 -30 -217q0 -70 43 -70q59 0 127 78 q55 61 80 121q10 27 30 14q18 -10 6 -41q-35 -92 -112 -164q-90 -82 -189 -69q-59 8 -97 72.5t-38 160.5zM276 854q0 39 29 67.5t68 28.5t67.5 -28.5t28.5 -67.5q0 -41 -27.5 -68.5t-68.5 -27.5t-69 28.5t-28 67.5z" />
<glyph unicode="&#xf0;" horiz-adv-x="806" d="M10 268q0 162 125 281q119 113 271 115q76 2 133 -21q-29 178 -84 277l-97 -84q-23 -20 -43 2l-8 10q-20 23 2 43l103 88q-55 61 -136 94q-14 6 -28 4t-15 -6q0 -4 5 -6q16 -10 16 -53q0 -31 -18.5 -49.5t-59.5 -18.5q-82 0 -82 84q0 47 38 81t112 34q123 0 245 -96 l84 73q23 20 43 -4l9 -8q20 -23 -4 -43l-76 -66q160 -174 160 -520q0 -49 -3 -84q-23 -211 -182 -332q27 -6 55 -6q76 0 138 37q86 51 139 152q14 29 41 18q22 -10 6 -43q-59 -123 -172 -182q-86 -43 -199 -43q-57 0 -100 12q-33 -18 -98 -20q-147 -6 -238 82 q-82 80 -82 198zM184 240q0 -199 131 -197q74 0 134 61q72 76 92 213q6 43 6 82q0 205 -146 209q-76 2 -131 -63q-63 -74 -80 -217q-6 -49 -6 -88z" />
<glyph unicode="&#xf1;" horiz-adv-x="821" d="M-4 31q6 94 31 327q33 233 71 273q18 16 76 14q68 -4 57 -45q-29 -111 -71 -315q-6 -25 8 -27q12 -2 22 16q29 63 123 215q117 164 215 164q61 0 101.5 -50t40.5 -116q0 -8 -54 -323q-18 -106 7 -115q49 -12 127 76q61 70 88 129q12 31 36 14q17 -10 5 -41 q-33 -86 -111 -161q-86 -82 -158 -82q-68 0 -111.5 53t-43.5 121q0 20 4 39q33 137 71 303q18 76 -14 86q-27 8 -88 -45q-68 -59 -123 -154q-106 -186 -153 -356q-8 -33 -78 -33q-45 0 -54 2q-27 4 -24 31zM240 774q47 150 149 150q16 0 33 -4q25 -4 75 -37t76 -37 q57 -6 91 43l43 -6q-25 -76 -54 -103q-39 -33 -116 -24q-29 2 -75 35.5t-77 35.5t-58.5 -19.5t-35.5 -47.5z" />
<glyph unicode="&#xf2;" horiz-adv-x="806" d="M10 268q0 162 125 281q119 113 271 115t231 -86q66 -76 65 -189q-2 -86 -52 -176t-130 -150q27 -6 55 -6q76 0 138 37q86 51 139 152q14 29 41 18q22 -10 6 -43q-59 -123 -172 -182q-86 -43 -199 -43q-57 0 -100 12q-33 -18 -98 -20q-147 -6 -238 82q-82 80 -82 198z M184 240q0 -199 131 -197q74 0 134 61q72 76 92 213q6 43 6 82q0 205 -146 209q-76 2 -131 -63q-63 -74 -80 -217q-6 -49 -6 -88zM201 985q0 53 73 53q57 0 91 -53l147 -250h-80l-213 213q-18 18 -18 37z" />
<glyph unicode="&#xf3;" horiz-adv-x="806" d="M10 268q0 162 125 281q119 113 271 115t231 -86q66 -76 65 -189q-2 -86 -52 -176t-130 -150q27 -6 55 -6q76 0 138 37q86 51 139 152q14 29 41 18q22 -10 6 -43q-59 -123 -172 -182q-86 -43 -199 -43q-57 0 -100 12q-33 -18 -98 -20q-147 -6 -238 82q-82 80 -82 198z M184 240q0 -199 131 -197q74 0 134 61q72 76 92 213q6 43 6 82q0 205 -146 209q-76 2 -131 -63q-63 -74 -80 -217q-6 -49 -6 -88zM377 727l153 254q35 59 84 59q25 0 47.5 -18t22.5 -43q0 -17 -12 -29l-232 -221z" />
<glyph unicode="&#xf4;" horiz-adv-x="811" d="M10 268q0 162 125 281q119 113 271 115t231 -86q66 -76 65 -189q-2 -86 -52 -176t-130 -150q27 -6 55 -6q76 0 138 37q86 51 139 152q14 29 41 18q22 -10 6 -43q-59 -123 -172 -182q-86 -43 -199 -43q-57 0 -100 12q-33 -18 -98 -20q-147 -6 -238 82q-82 80 -82 198z M184 240q0 -199 131 -197q74 0 134 61q72 76 92 213q6 43 6 82q0 205 -146 209q-76 2 -131 -63q-63 -74 -80 -217q-6 -49 -6 -88zM246 748q51 39 116.5 135t96.5 178q14 35 65 29q49 -6 47 -39q-12 -179 66 -326l-19 -16q-127 127 -139 264q-94 -160 -219 -254z" />
<glyph unicode="&#xf5;" horiz-adv-x="811" d="M10 268q0 162 125 281q119 113 271 115t231 -86q66 -76 65 -189q-2 -86 -52 -176t-130 -150q27 -6 55 -6q76 0 138 37q86 51 139 152q14 29 41 18q22 -10 6 -43q-59 -123 -172 -182q-86 -43 -199 -43q-57 0 -100 12q-33 -18 -98 -20q-147 -6 -238 82q-82 80 -82 198z M184 240q0 -199 131 -197q74 0 134 61q72 76 92 213q6 43 6 82q0 205 -146 209q-76 2 -131 -63q-63 -74 -80 -217q-6 -49 -6 -88zM215 774q47 150 150 150q16 0 32 -4q25 -4 75 -37t77 -37q57 -6 90 43l43 -6q-25 -76 -53 -103q-39 -33 -117 -24q-29 2 -75 35.5t-77 35.5 t-58.5 -19.5t-35.5 -47.5z" />
<glyph unicode="&#xf6;" horiz-adv-x="811" d="M10 268q0 162 125 281q119 113 271 115t231 -86q66 -76 65 -189q-2 -86 -52 -176t-130 -150q27 -6 55 -6q76 0 138 37q86 51 139 152q14 29 41 18q22 -10 6 -43q-59 -123 -172 -182q-86 -43 -199 -43q-57 0 -100 12q-33 -18 -98 -20q-147 -6 -238 82q-82 80 -82 198z M184 240q0 -199 131 -197q74 0 134 61q72 76 92 213q6 43 6 82q0 205 -146 209q-76 2 -131 -63q-63 -74 -80 -217q-6 -49 -6 -88zM188 838q0 39 29 67.5t68 28.5t67.5 -28.5t28.5 -67.5q0 -41 -27.5 -69t-68.5 -28q-39 0 -68 29t-29 68zM506 838q0 39 28.5 67.5t67.5 28.5 t67.5 -28.5t28.5 -67.5q0 -41 -27.5 -69t-68.5 -28t-68.5 29t-27.5 68z" />
<glyph unicode="&#xf8;" horiz-adv-x="788" d="M10 268q0 162 125 281q119 113 271 115q119 2 194 -54l78 90q14 16 33 17q31 0 30 -31q0 -14 -10 -27l-84 -96q55 -72 55 -174q-2 -86 -52 -176t-130 -150q14 -6 35 -6q63 0 117 37q29 18 96 101q61 72 74 71q39 0 16 -45q-55 -115 -172 -182q-86 -47 -213 -47 q-47 0 -78 6q-35 -8 -65 -10q-86 -6 -158 26l-78 -90q-14 -16 -31 -16q-33 0 -32 33q0 14 10 24l74 86q-104 84 -105 217zM190 328q-12 -115 5 -185l329 379q-39 82 -123 86q-76 2 -131 -63q-63 -74 -80 -217zM227 78q33 -37 88 -35q74 0 134 61q72 76 92 213q10 70 4 127z " />
<glyph unicode="&#xf9;" horiz-adv-x="833" d="M8 213q0 63 17 133q68 270 112 297q27 14 72 12q57 -4 47 -53q-20 -84 -59 -256q-35 -158 -35 -221q0 -72 33 -74q43 -6 108 62q57 57 103 137q39 70 100 205q31 152 63 184q12 12 70 12q55 0 62.5 -13t3.5 -26q-18 -88 -56 -268q-33 -168 -33 -223q0 -70 41 -70 q47 0 117 88q45 55 74 113q14 29 37 12q16 -12 2 -41q-53 -111 -115 -168q-80 -70 -143 -69q-12 0 -27 2q-125 18 -125 233q0 31 2 66q-47 -84 -88 -142q-63 -86 -106 -120q-59 -47 -133 -41q-63 6 -103.5 67.5t-40.5 161.5zM164 985q0 53 74 53q57 0 90 -53l147 -250h-80 l-213 213q-18 18 -18 37z" />
<glyph unicode="&#xfa;" horiz-adv-x="833" d="M8 213q0 63 17 133q68 270 112 297q27 14 72 12q57 -4 47 -53q-20 -84 -59 -256q-35 -158 -35 -221q0 -72 33 -74q43 -6 108 62q57 57 103 137q39 70 100 205q31 152 63 184q12 12 70 12q55 0 62.5 -13t3.5 -26q-18 -88 -56 -268q-33 -168 -33 -223q0 -70 41 -70 q47 0 117 88q45 55 74 113q14 29 37 12q16 -12 2 -41q-53 -111 -115 -168q-80 -70 -143 -69q-12 0 -27 2q-125 18 -125 233q0 31 2 66q-47 -84 -88 -142q-63 -86 -106 -120q-59 -47 -133 -41q-63 6 -103.5 67.5t-40.5 161.5zM389 727l154 254q35 59 84 59q25 0 47 -18 t22 -43q0 -17 -12 -29l-231 -221z" />
<glyph unicode="&#xfb;" horiz-adv-x="833" d="M8 213q0 63 17 133q68 270 112 297q27 14 72 12q57 -4 47 -53q-20 -84 -59 -256q-35 -158 -35 -221q0 -72 33 -74q43 -6 108 62q57 57 103 137q39 70 100 205q31 152 63 184q12 12 70 12q55 0 62.5 -13t3.5 -26q-18 -88 -56 -268q-33 -168 -33 -223q0 -70 41 -70 q47 0 117 88q45 55 74 113q14 29 37 12q16 -12 2 -41q-53 -111 -115 -168q-80 -70 -143 -69q-12 0 -27 2q-125 18 -125 233q0 31 2 66q-47 -84 -88 -142q-63 -86 -106 -120q-59 -47 -133 -41q-63 6 -103.5 67.5t-40.5 161.5zM238 764q51 39 116.5 135t96.5 178q14 35 65 29 q49 -6 47 -39q-12 -179 66 -326l-19 -16q-127 127 -139 264q-94 -160 -219 -254z" />
<glyph unicode="&#xfc;" horiz-adv-x="833" d="M8 213q0 63 17 133q68 270 112 297q27 14 72 12q57 -4 47 -53q-20 -84 -59 -256q-35 -158 -35 -221q0 -72 33 -74q43 -6 108 62q57 57 103 137q39 70 100 205q31 152 63 184q12 12 70 12q55 0 62.5 -13t3.5 -26q-18 -88 -56 -268q-33 -168 -33 -223q0 -70 41 -70 q47 0 117 88q45 55 74 113q14 29 37 12q16 -12 2 -41q-53 -111 -115 -168q-80 -70 -143 -69q-12 0 -27 2q-125 18 -125 233q0 31 2 66q-47 -84 -88 -142q-63 -86 -106 -120q-59 -47 -133 -41q-63 6 -103.5 67.5t-40.5 161.5zM201 852q0 39 28.5 67.5t65.5 28.5 q41 0 69.5 -28.5t28.5 -67.5q0 -41 -28.5 -68.5t-69.5 -27.5q-39 0 -66.5 28.5t-27.5 67.5zM516 852q0 39 28.5 67.5t67.5 28.5t68 -28.5t29 -67.5q0 -41 -28 -68.5t-69 -27.5q-39 0 -67.5 28.5t-28.5 67.5z" />
<glyph unicode="&#xfd;" horiz-adv-x="747" d="M-8 -565q0 102 63 211q98 166 338 301q18 119 41 250q2 16 -2 18q-6 2 -12 -12q-37 -66 -98 -125q-100 -102 -195 -88q-133 20 -133 219q0 70 16 156q53 252 94 278q23 16 60 16q25 0 46 -15t17 -34q-37 -147 -65 -280q-33 -154 -33 -213q0 -70 47 -70q98 0 201 174 q55 92 94 240q27 113 27 147q0 43 71 39q86 -4 80 -43q-29 -170 -96 -573q139 84 205 202q29 52 45 25q12 -20 -4 -55q-20 -45 -88 -111q-78 -74 -168 -125l-11 -55q-55 -358 -172 -520q-96 -133 -217 -133q-43 0 -77 20q-74 47 -74 156zM59 -586q0 -100 76 -100 q131 0 189 264q26 119 59 303q-203 -125 -274 -282q-49 -104 -50 -185zM354 725l152 254q37 59 86 59q25 0 47.5 -18.5t22.5 -42.5q-1 -17 -13 -29l-231 -221z" />
<glyph unicode="&#xff;" horiz-adv-x="747" d="M-8 -565q0 102 63 211q98 166 338 301q18 119 41 250q2 16 -2 18q-6 2 -12 -12q-37 -66 -98 -125q-100 -102 -195 -88q-133 20 -133 219q0 70 16 156q53 252 94 278q23 16 60 16q25 0 46 -15t17 -34q-37 -147 -65 -280q-33 -154 -33 -213q0 -70 47 -70q98 0 201 174 q55 92 94 240q27 113 27 147q0 43 71 39q86 -4 80 -43q-29 -170 -96 -573q139 84 205 202q29 52 45 25q12 -20 -4 -55q-20 -45 -88 -111q-78 -74 -168 -125l-11 -55q-55 -358 -172 -520q-96 -133 -217 -133q-43 0 -77 20q-74 47 -74 156zM59 -586q0 -100 76 -100 q131 0 189 264q26 119 59 303q-203 -125 -274 -282q-49 -104 -50 -185zM145 860q0 39 29 67.5t68 28.5t67.5 -28.5t28.5 -67.5q0 -41 -27.5 -68.5t-68.5 -27.5q-39 0 -68 28.5t-29 67.5zM463 860q0 39 28.5 67.5t67.5 28.5t67.5 -28.5t28.5 -67.5q0 -41 -27.5 -68.5 t-68.5 -27.5t-68.5 28.5t-27.5 67.5z" />
<glyph unicode="&#x152;" horiz-adv-x="2082" d="M68 557q0 172 71 354q119 299 348.5 498t452.5 199q63 0 121 -19q152 -45 176 -184q6 -35 -20 -37q-27 -2 -50 45q-55 119 -188 129q-168 12 -322 -131q-186 -172 -290 -526q-72 -242 -72 -441q0 -188 65 -292q68 -111 193 -111q276 4 424 307q-4 29 -4 60q0 162 112 297 q35 209 35 309q0 276 -170 291q-121 10 -239 -158q-111 -156 -154 -365q-27 -127 -27 -241q0 -102 31 -250q12 -55 -18 -62q-23 -4 -35 31q-37 90 -37 275q0 180 51 346q63 211 170 340q117 143 252 143q158 0 244 -150q74 -125 74 -294q0 -31 -5 -64q72 45 121 64 q23 6 23 18q0 6 -8 14q-150 127 -150 265q0 160 158 278q145 111 311 113q147 2 239.5 -69t82.5 -169q-10 -102 -99.5 -169.5t-193.5 -74.5q-23 -2 -34 6.5t-11 20.5q2 39 45 43q68 6 114 51q57 53 52 133q-12 180 -205 164q-94 -8 -160.5 -84t-83.5 -184q-6 -45 -6 -86 q0 -129 59 -197q16 -18 50 -8q25 8 86 16q43 2 77 -10q45 -14 43 -53q-2 -66 -104 -66q-41 0 -127 25q-29 8 -49 -2q-51 -27 -133 -129q-125 -152 -142 -317q-4 -43 -4 -80q0 -332 312 -326q158 2 280 111q102 90 139 206q20 63 21 121q0 150 -119 150q-61 0 -119 -62 q-49 -53 -73 -129q-39 -129 -19 -215q6 -27 -6 -32q-14 -10 -41 10q-82 61 -82 194q0 55 21 109q33 86 111.5 143.5t166.5 57.5q55 0 105 -23q115 -55 114 -203q0 -125 -73 -243q-160 -256 -498 -256q-137 0 -252 61q-123 66 -180 178q-199 -248 -459 -248q-223 0 -362 183 q-127 168 -127 401z" />
<glyph unicode="&#x153;" horiz-adv-x="1198" d="M-20 268q2 162 126 281q119 113 269 115q190 4 264 -129q43 39 104 73q96 51 205 51q113 0 156 -67q18 -31 18 -68q0 -70 -64.5 -143.5t-176.5 -128.5q-100 -49 -191 -70q16 -94 92 -125q49 -20 95 -20q70 0 180 55q125 61 172 170q12 25 33 4q16 -16 0 -45 q-29 -53 -58 -86q-53 -61 -133 -100q-109 -53 -225 -53q-125 0 -215 59q-49 33 -82 78q-115 -123 -250 -131q-141 -10 -233 80q-86 82 -86 200zM156 240q0 -199 129 -197q74 0 133 61q72 76 92 213q6 43 6 82q0 205 -143 209q-76 2 -133 -63q-63 -74 -80 -217q-4 -49 -4 -88 zM684 240q117 14 186 75q45 39 75 99.5t30 109.5q0 76 -72 76q-61 0 -117 -59q-61 -66 -86 -181q-16 -66 -16 -120z" />
<glyph unicode="&#x178;" horiz-adv-x="1392" d="M41 1094q10 162 160 319q166 170 368 168q182 -4 277 -115q78 -90 78 -221q0 -25 -4 -49q-10 -72 -142 -485q-12 -43 -12 -70q0 -55 55 -55q137 0 250 172q59 90 135 250q92 193 111 227q72 129 108 162q31 27 56 2q14 -12 -2 -45q-51 -98 -56 -107q-33 -72 -47 -149 q-18 -86 -35 -346q-14 -233 -43 -334q-131 -463 -614 -457q-203 2 -309 105q-86 84 -86 200q0 84 44 131t109 47q72 0 95 -41q8 -14 8 -32q0 -57 -53.5 -100.5t-36.5 -116.5q25 -117 217 -125q250 -10 346 231q57 139 110 451q2 14 2 18q-2 6 -8 0q-4 -4 -16 -22 q-119 -184 -277 -185q-18 0 -36 4q-92 16 -142 95q-43 70 -43 167q0 49 10 97q53 166 121 432q2 18 2 37q0 170 -172 170q-94 0 -192 -74q-82 -63 -123 -139q-47 -90 -47 -174q0 -88 61 -123q43 -25 84 -25q78 0 129 74q23 35 41 22q23 -16 6 -59q-33 -84 -98 -141 q-74 -66 -156 -66q-98 0 -165 72q-74 78 -68 203zM924 1673q0 39 28.5 67.5t65.5 28.5q41 0 69.5 -28.5t28.5 -67.5q0 -41 -28.5 -68.5t-69.5 -27.5q-39 0 -66.5 28.5t-27.5 67.5zM1239 1673q0 39 28.5 67.5t67.5 28.5t68 -28.5t29 -67.5q0 -41 -28 -68.5t-69 -27.5 q-39 0 -67.5 28.5t-28.5 67.5z" />
<glyph unicode="&#x2c6;" horiz-adv-x="661" d="M100 1575q51 39 117 135t96 178q14 35 66 29q49 -6 47 -39q-12 -179 66 -326l-19 -16q-127 127 -139 264q-94 -160 -219 -254z" />
<glyph unicode="&#x2dc;" horiz-adv-x="624" d="M80 1681q47 150 149 150q16 0 33 -4q25 -4 75 -37t77 -37q57 -6 90 43l43 -6q-25 -76 -53 -102q-39 -33 -117 -25q-29 2 -75 36t-77 36t-58.5 -19.5t-35.5 -48.5z" />
<glyph unicode="&#x2000;" horiz-adv-x="1018" />
<glyph unicode="&#x2001;" horiz-adv-x="2036" />
<glyph unicode="&#x2002;" horiz-adv-x="1018" />
<glyph unicode="&#x2003;" horiz-adv-x="2036" />
<glyph unicode="&#x2004;" horiz-adv-x="678" />
<glyph unicode="&#x2005;" horiz-adv-x="509" />
<glyph unicode="&#x2006;" horiz-adv-x="339" />
<glyph unicode="&#x2007;" horiz-adv-x="339" />
<glyph unicode="&#x2008;" horiz-adv-x="254" />
<glyph unicode="&#x2009;" horiz-adv-x="407" />
<glyph unicode="&#x200a;" horiz-adv-x="113" />
<glyph unicode="&#x2010;" horiz-adv-x="792" d="M215 373l21 51q12 31 30 31h420q12 0 23.5 -10.5t7.5 -20.5l-21 -51q-12 -31 -30 -31h-420q-14 0 -25.5 10t-5.5 21z" />
<glyph unicode="&#x2011;" horiz-adv-x="792" d="M215 373l21 51q12 31 30 31h420q12 0 23.5 -10.5t7.5 -20.5l-21 -51q-12 -31 -30 -31h-420q-14 0 -25.5 10t-5.5 21z" />
<glyph unicode="&#x2012;" horiz-adv-x="792" d="M215 373l21 51q12 31 30 31h420q12 0 23.5 -10.5t7.5 -20.5l-21 -51q-12 -31 -30 -31h-420q-14 0 -25.5 10t-5.5 21z" />
<glyph unicode="&#x2013;" horiz-adv-x="1036" d="M215 373l21 51q12 31 30 31h662q14 0 24 -10.5t6 -20.5l-20 -51q-12 -31 -31 -31h-661q-14 0 -25.5 10t-5.5 21z" />
<glyph unicode="&#x2014;" horiz-adv-x="1574" d="M215 373l21 51q12 31 30 31h1219q14 0 24.5 -10.5t6.5 -20.5l-21 -51q-12 -31 -31 -31h-1218q-14 0 -25.5 10t-5.5 21z" />
<glyph unicode="&#x2018;" horiz-adv-x="389" d="M131 1280q8 106 68 162q39 39 82 41q16 2 18 -13q2 -14 -12 -18q-49 -10 -62 -47q-6 -16 0 -41q53 -14 47 -84q-2 -37 -25.5 -61.5t-51.5 -24.5q-29 0 -47.5 24.5t-16.5 61.5z" />
<glyph unicode="&#x2019;" horiz-adv-x="425" d="M199 1210q-2 14 12 19q49 10 61 47q6 16 2 41q-55 14 -49 84q4 37 26.5 61.5t51.5 24.5q31 0 48.5 -24.5t15.5 -61.5q-8 -106 -68 -162q-39 -39 -82 -41q-16 -2 -18 12z" />
<glyph unicode="&#x201a;" horiz-adv-x="401" d="M162 -129q-2 14 12 18q49 10 62 48q6 18 2 40q-55 14 -50 84q4 37 27 63t51 26q31 0 48.5 -26t15.5 -63q-8 -104 -68 -161q-39 -37 -82 -41q-16 -2 -18 12z" />
<glyph unicode="&#x201c;" horiz-adv-x="571" d="M123 1280q8 106 67 162q39 39 82 41q16 2 19 -13q2 -14 -12 -18q-49 -10 -62 -47q-6 -16 0 -41q53 -14 47 -84q-2 -37 -25.5 -61.5t-52.5 -24.5t-47 24.5t-16 61.5zM313 1280q8 106 68 162q39 39 82 41q16 2 18 -13q2 -14 -12 -18q-49 -10 -61 -47q-6 -16 0 -41 q53 -14 47 -84q-2 -37 -25.5 -61.5t-52.5 -24.5t-47.5 24.5t-16.5 61.5z" />
<glyph unicode="&#x201d;" horiz-adv-x="608" d="M199 1210q-2 14 12 19q49 10 61 47q6 16 2 41q-55 14 -49 84q4 37 26.5 61.5t51.5 24.5q31 0 48.5 -24.5t15.5 -61.5q-8 -106 -68 -162q-39 -39 -82 -41q-16 -2 -18 12zM389 1210q-2 14 12 19q49 10 62 47q6 16 2 41q-55 14 -49 84q4 37 26.5 61.5t51.5 24.5 q31 0 48 -24.5t15 -61.5q-8 -106 -68 -162q-39 -39 -81 -41q-16 -2 -19 12z" />
<glyph unicode="&#x201e;" horiz-adv-x="571" d="M162 -129q-2 14 12 18q49 10 62 48q6 18 2 40q-55 14 -50 84q4 37 27 63t51 26q31 0 48.5 -26t15.5 -63q-8 -104 -68 -161q-39 -37 -82 -41q-16 -2 -18 12zM352 -129q-2 14 13 18q49 10 61 48q6 18 2 40q-55 14 -49 84q4 37 26.5 63t51.5 26q31 0 48 -26t15 -63 q-8 -104 -67 -161q-39 -37 -82 -41q-16 -2 -19 12z" />
<glyph unicode="&#x2022;" horiz-adv-x="753" d="M170 578q0 90 63.5 153.5t153.5 63.5q88 0 152.5 -63.5t64.5 -153.5q0 -88 -64.5 -153t-152.5 -65q-90 0 -153.5 64.5t-63.5 153.5z" />
<glyph unicode="&#x2026;" horiz-adv-x="1093" d="M188 61q4 37 27 63t51 26q31 0 49.5 -26t14.5 -63q-2 -35 -25.5 -60.5t-52.5 -25.5t-47.5 26t-16.5 60zM496 61q4 37 26.5 63t50.5 26q31 0 49.5 -26t14.5 -63q-2 -35 -25.5 -60.5t-52.5 -25.5t-47 26t-16 60zM803 61q4 37 26.5 63t51.5 26q31 0 49 -26t14 -63 q-2 -35 -25.5 -60.5t-52.5 -25.5t-47 26t-16 60z" />
<glyph unicode="&#x202f;" horiz-adv-x="407" />
<glyph unicode="&#x2039;" horiz-adv-x="530" d="M115 598l245 201q6 4 13 4q20 0 20 -27q0 -16 -12 -31l-123 -147l123 -145q14 -18 14 -35q0 -20 -18 -21q-8 0 -17 6z" />
<glyph unicode="&#x203a;" horiz-adv-x="622" d="M266 418q0 16 15 35l122 145l-122 147q-12 14 -13 31q0 27 21 27q6 0 12 -4l246 -201l-246 -195q-8 -6 -16 -6q-18 0 -19 21z" />
<glyph unicode="&#x205f;" horiz-adv-x="509" />
<glyph unicode="&#x2122;" horiz-adv-x="1341" d="M209 1108q8 37 35 49q27 10 55 -8q23 -14 2 -31q-27 -20 -27 -49q0 -63 82 -63q70 0 101 61q23 45 37 164t41 176q40 94 65 80q6 -4 -8 -41q-18 -47 -21 -86q2 20 4 -115q0 -78 -21.5 -133t-74.5 -92q-63 -43 -141 -35q-76 8 -111 51q-27 35 -18 72zM252 1434 q0 61 53 102t117 39q39 0 110 -14q63 -12 76 -11q35 2 45 17q9 -1 17 -13q-2 -55 -54 -55q-10 0 -124 39q-39 12 -76 12q-68 0 -92 -43q-12 -23 -13 -45q0 -41 36 -61.5t81 -5.5q14 4 18 0q4 -6 -8 -21q-39 -37 -90 -37q-25 0 -45 9q-51 25 -51 88zM649 1380q0 59 41 115 q66 84 172 84q35 0 64 -12q55 -27 55 -113q0 -31 -10 -90q76 150 145 133q53 -12 51 -98q-2 -20 -6 -62q12 23 21 37q68 100 125 88q63 -12 59 -108q0 -8 -41 -185q-35 -145 -12 -151q25 -8 61 33q8 8 33 49q8 12 16 6q10 -8 -11 -40t-36 -44q-39 -37 -78 -29 q-59 12 -51 125q2 14 51 238q18 86 -14 86q-37 2 -96 -101q-14 -25 -37 -73q-8 -61 -14 -99q-12 -72 -27 -155q-2 -16 -16 -17q-59 0 -45 -2q-20 4 -15 23q14 41 49 223q29 150 29 184q0 39 -16 45q-57 25 -146 -210l-47 -236q-6 -23 -17.5 -24t-56.5 -1q-18 0 -8 29 q27 72 68 270q20 109 20 156q0 96 -69 96q-41 0 -79 -27.5t-52 -68.5q-8 -29 -9 -51q0 -51 41 -62q41 -10 70 25q6 6 10 4q8 0 8 -14q2 -23 -16 -49q-25 -35 -68 -35t-69.5 30.5t-26.5 77.5z" />
<glyph unicode="&#x25fc;" horiz-adv-x="655" d="M0 0v655h655v-655h-655z" />
</font>
</defs>
</svg>
