<?xml version="1.0" encoding="utf-8"?>
<!-- Generator: Adobe Illustrator 19.1.1, SVG Export Plug-In . SVG Version: 6.00 Build 0)  -->
<svg version="1.1" id="Layer_1" xmlns="http://www.w3.org/2000/svg" xmlns:xlink="http://www.w3.org/1999/xlink" x="0px" y="0px"
	 width="526px" height="515px" viewBox="0 0 526 515" style="enable-background:new 0 0 526 515;" xml:space="preserve">
<style type="text/css">
	.st0{fill:#FFDAB9;}
</style>
<g>
	<path class="st0" d="M121.9,478.7c-1,1.2-2.2,2.8-3.6,4.2c-2.8,2.9-6,3.5-9.3,1c-2.7-2.1-4.9-1.4-7.6,0.2c-4.5,2.6-9.2,5.1-14,7.2
		c-4.8,2.1-10.1,3.4-14.4-0.7c-4.7-4.5-5.5-10.8-3.3-16.5c1.4-3.6,4.8-6.9,8.2-9.1c3.6-2.3,8.2-3.1,12.4-4.6
		c3.6-1.3,4.1-3.2,1.5-6.1c-0.2-0.2-0.4-0.6-0.7-0.7c-9.2-3.1-12-11.9-17-18.9c-0.8-1.1-2.4-1.7-3.6-2.5c-0.6,1.4-1.5,2.7-1.6,4.1
		c-0.2,3.2-0.1,6.4-1.1,10.2c-1.5-1.8-4-3.3-4.5-5.3c-1.5-6.8-6.2-9.2-12.2-10.6c-2.5-0.6-5-1.3-7.8-2.1c0.8-1.7,1.5-3.2,2.5-5.1
		c-3.8,0-7.2,0-11,0c-0.3,1.9-0.7,4-0.9,5.2c-4.7,2.2-8.9,4.1-12.9,5.9c1.3,7.6,0,10.5-5.4,13c-3.7,1.7-5.9,0.6-7.1-3.2
		c-1.7-5.6,0.9-12,6.8-15.5c6-3.6,12.3-6.8,18.8-10.4c-3.3-2.2-7-4.5-10.6-6.8c1.3-3.3,1.3-3.3,5.4-1.3c2.2,1.1,4.4,2.1,7.1,3.4
		c0.1-2.6,0.2-4.8,0.3-7c0.4-0.2,0.9-0.4,1.3-0.6c2.2,3.3,4.4,6.5,6.5,9.8c0.3,0.5,0.2,1.4,0.6,1.8c1.4,1.5,14.4,1.1,16.3-0.6
		c1.7,1.5,3.4,3,5.4,4.9c-1.5,1-2.8,1.9-4.4,3.1c4.1,2.1,7.9,4.2,11.1,5.8c6.1-4.4,11.7-8.4,17.4-12.5c6.9-5,6.9-4.9,5.3-13.6
		c2.6,2.1,4.9,3.9,7.4,5.9c1.9-11.3-5.2-17.5-19.5-16.9c0.2,1.9,0.5,3.7,0.7,5.5c-5.8-0.4-6.8-2.5-4.3-9.4c2.6,0,5.2-0.1,7.8,0
		c2.6,0.1,5.2,0.3,8.9,0.5c-3.2-5.2-5.7-9.9-8.7-14.3c-4.5-6.5-7.7-13.5-8.8-21.3c-0.8-5.5-3.9-9.2-8-12.4c-1.8-1.4-3.6-2.8-5.7-4.4
		c-4.7,3.1-3.4,12.3-11.3,14c0,3.5,0.2,6.8-0.1,10c-0.2,1.8-0.9,3.7-2,5c-0.4,0.5-3.5-0.1-3.7-0.8c-0.7-1.9-1.2-4.5-0.5-6.2
		c3.2-7,6.8-13.8,10.5-20.6c2.5-4.8,5.4-9.3,8.5-14.6c1,1.3,2,2.5,2.8,3.7c3.7,5.6,7.3,11.3,11.1,16.9c2.8,4.1,4.6,8,3.8,13.6
		c-0.5,3.6,2.9,7.8,4.5,11.7c0.5-0.2,1.1-0.4,1.6-0.6c-1.2-5.3-2.5-10.6-3.7-15.9c2.5-2.1,4.1-1.2,4.6,1.4
		c2.2,11.5,8.6,21.7,9.3,33.9c0.4,7.2,4.6,14.2,7.3,21.9c5.5-1.8,10.4-3.4,15.6-5c-2.6-4.6-5-8.7-7.3-12.8
		c-23.8-41.3-33.1-85.3-24.2-132.6c3.5-18.9,5.9-38.1,11.1-56.5c14.1-49.9,46.1-84.2,94.2-103.5c8.4-3.4,16.6-7.1,25.1-10.1
		c17.2-6.1,27-17.4,26.8-36.3c0-1,0.3-1.9,0.4-2.8c5-0.3,6.1,0.8,5.6,5.3c-1.7,15,3.2,23.6,17.1,29.5c5,2.1,10,4.1,15.1,5.9
		c3.5,1.3,7.2,2.1,11.6,3.4c0-9.1,0-17.9,0-27.1c9.8,0,18.9-0.2,28,0.1c3,0.1,4.6,2.4,1.8,5.1c-3.6,3.5-4,7.7-3.5,12.3
		c0.4,3.4,0.8,6.8,1.3,10.3c1.5,11.4,5.4,21.5,15.3,28.5c3.3,2.3,6,5.6,9,8.4c26.5,23.4,38.8,52.8,42.9,87.9
		c4.7,40.6-3.1,79.1-12.7,117.7c-6,24.1-13,47.8-26.9,69.6c9.4,6.5,18.6,12.8,28.4,19.5c5.9-10.2,11.7-19.9,17-29.8
		c0.7-1.4-0.1-4.2-1.2-5.7c-0.5-0.7-3.5,0.1-5.1,0.8c-1.4,0.6-2.4,2-3.7,3.1c-1.1-4.6,3.2-9.7,7.1-8.2c6.6,2.6,9.4-1.1,12.9-5.2
		c5.7-6.6,11.7-12.9,17.8-19.1c6.3-6.5,6.5-7.3,1.3-14.7c-0.5-0.6-0.8-1.4-1-2.1c-0.1-0.2,0.2-0.6,0.9-2.1c2.7,2.6,5.6,4.7,7.5,7.4
		c2.6,3.9,4.4,4.6,7.3,0.7c3.1-4.3,5.3-9.2,8.3-14.7c3.6,0.8,8.1,1.9,12.6,2.9c-3.5,3.6-9.9,1.4-9.8,8.8c2.8,0.2,5.7,0.4,8.5,0.8
		c1.1,0.2,2.2,0.9,3.3,1.3c-1,0.9-1.9,1.8-2.9,2.5c-0.8,0.5-1.7,0.7-3.8,1.4c5.6,9,10.7,17.8,16.5,26c3.5,4.8,5.2,9.3,3.1,15
		c-0.9,2.4-0.9,5.1-1.4,8.1c-2-0.3-4.3-0.6-6.9-0.9c0,3.4,0,6.4,0,9.5c-4.5,0.7-8.2-2.6-6.3-6.6c4.2-8.8,1.4-18.2,3.1-27.2
		c1.2-6.2-3-11.1-9.6-13.8c1.6,3.3,3.1,6.6,4.8,10.2c-1.9,1.9-3.8,2.1-5.8-0.4c-4.1-5.1-10.2-9.1-10-17.7c-9,4.9-17.3,9.4-25.6,13.8
		c2.5,5.6,9,8.5,10.8,15.8c-5.2-2.9-8.8-6.5-12.6-6.6c-3.4-0.1-7,3.5-10.6,5.5c0.1,0.4,0.2,0.8,0.3,1.2c2.9,0,5.8,0,8.8,0
		c0.2,0.4,0.4,0.9,0.6,1.3c-2.1,1.9-3.9,4.4-6.3,5.4c-9.8,4.3-15.7,12.2-19.9,21.5c-1.6,3.6-3.3,7.2-4.9,10.7
		c0.4,0.2,0.8,0.4,1.1,0.7c0.6-0.7,1.4-1.4,1.9-2.2c2.9-5.2,5.6-10.4,8.5-15.6c2.3-4,5.5-5.4,10-3.1c-2.2,4.4-12.2,5.3-5.5,13.4
		c-2.9,2.2-5.9,3.8-7.9,6.2c-2,2.3-4.7,5.6-4.4,8.2c0.6,6.2-1.2,11.2-5,16.1c1.2,1.5,2.3,2.9,3.4,4.2c14.5-5.8,22-4.6,26.6,4.3
		c2.3,4.5,0,7.1-4.6,9.6c0-2-0.4-3.6,0.1-4.8c2-4.4-0.4-6.7-4-7.9c-3-1-6.3-1.2-10.1-1.8c0,2.1-0.6,4,0.1,4.7
		c4.6,5,8,11.3,15.2,13.6c2.3,0.8,4.1,3.5,5.9,5.4c0.4,0.4,0.2,2-0.1,2.1c-0.7,0.3-1.9,0.4-2.5,0c-2.5-1.5-4.8-3.2-8-5
		c3.7,8.9-3,10.7-8.1,13.6c-5.3,3-10.8,4.8-17,3.5c-2.9-0.6-4.6,0.3-6.3,3.1c-1.3,2.3-3.9,4.4-6.3,5.3c-12.1,4.6-24.3,5.5-36.2-1.1
		c-8.8-4.9-11.7-11.3-9.6-21.7c1.9,0.8,3.8,1.6,6.5,2.8c-0.8-5.4-1.5-10.3-2.3-15.5c-44.2,0-88.3,0-132.4,0c2,7.1,4.7,7.7,17,3.4
		c1.9,4,4.1,8,5.7,12.2c1.7,4.5-1.1,7.3-4.6,9.7c-3.2,2.3-6,5.2-9.1,7.6c-1.3,1-3.2,2.2-4.7,2.1c-5.1-0.6-10.1-1.7-16.3-2.9
		c-5.1,7.3-12.8,5.5-20.8,1.7c-7.1-3.3-14.1-7.3-22.5-4.1c-1,0.4-3.1-1.2-4.2-2.3c-2.3-2.2-4.2-4.8-6.5-7
		C128.2,483.3,125.4,481.4,121.9,478.7z M91.7,470.6c0-3-0.7-5.7-4.4-5.6c-5,0-10.9,5.9-11.6,11.3c5.4-2,10.8-3.9,16.1-5.8
		c-2.7,3.3-5.5,6.6-8.3,9.9c1.6,1.3,3.4,2.7,5.1,4.1c-1,1.2-1.9,2.1-2.7,3.1c0.3,0.4,0.7,0.9,1,1.3c3.4-2.3,6.9-4.5,10.3-6.8
		c2.4-1.7,5.8-3.6,4.1-6.8c-1.1-2.2-4.4-3.3-6.8-4.6C93.8,470.3,92.6,470.7,91.7,470.6z M136,376.5c-1.1-44.3-2.2-88.4-3.3-132.3
		c6.3,0,12.9-1.1,19,0.2c14.5,3.2,28.7,1.9,43-0.6c3.3-0.6,4-1.8,3.7-4.8c-0.5-7.4-1-14.8-1.1-22.1c-0.1-5.9,1.2-7.2,6.9-8
		c12-1.7,24-3.5,36.1-5.2c10-1.5,13.1-5.6,12.7-15.6c-0.9-26.3-1.7-52.6-2.4-78.8c-0.1-4.4,0-8.8,0-13.6c-1.5,0.2-2.7,0.1-3.7,0.5
		c-9.8,4.2-19.4,8.7-29.2,12.7c-44.7,18-78.5,47-95,93.6c-6.1,17.2-12.1,34.2-14.2,52.6c-4.2,38.2,4.1,74.9,12.1,111.6
		C122.1,373.3,127.4,376.8,136,376.5z M367.8,256.8c-4,40.2-7.9,79.9-11.8,119.5c0.5,0.1,1,0.2,1.6,0.3c6.1-24.3,13.6-48.4,18-73
		c5.8-32.4,5-65.1-1.2-97.5c-1.5-7.6-2.3-15.2-7.4-21.6c-13.6-17.3-27.1-34.7-40.6-52.1c-5.6-7.2-12.7-12.1-21.1-15.7
		c-17.1-7.2-34.5-13.7-49.8-24.6c-0.5-0.3-1.2-0.4-2.2-0.8c0,1.5,0,2.6,0,3.7c1.1,33,2.1,66,3.2,99c0.2,5.2,1.9,6.6,8.1,6.6
		c12.8,0,25.6-0.1,38.4-0.1c6.1,0,8,1.8,7.7,8c-0.4,7.7-1,15.4-1.5,23.1c-0.5,7.5-1.1,15-1.6,22.9
		C327.8,255.3,347.4,256.1,367.8,256.8z M301.3,415.8c-4.3-6.4-10.2-8.5-17.1-9c-15.4-1.2-30.7-3.3-46.1-4.1
		c-12.9-0.7-25.9-0.2-38.9,0.2c-9.1,0.3-18.1,1.4-28.3,2.2c3.9,7,3.4,12.1-1.2,16.5c2.4,1.5,4.5,2.6,6.5,4.1
		c4.9,3.8,5.3,6.1,1.8,11.2c-3.5,5.1-8.6,7-14.5,7c-11-0.2-22-0.6-33-0.8c-3.6-0.1-7.1,0-11,0c0.4,2.2,0.7,3.9,1,5.9
		c6.8-0.5,13.3-1.2,19.9-1.4c19-0.6,38-1.4,57-1.4c9.5,0,18.9,2.4,28.4,2.4c23.2,0.1,46.3-0.2,69.5-1.1c17.9-0.7,35.7-2.3,53.5-3.7
		c1.6-0.1,4.2-0.9,4.5-1.9c1.1-3.6,1.3-7.4,2.1-12c-2.7,1.8-4.2,2.9-6.2,4.3c-2.8-5.3,1.2-7.3,3.9-9.6c3-2.4,6.3-4.4,9.9-6.8
		c-13.1-4.1-16.3-3-23.7,7.2c-0.9,1.2-1.7,2.4-2.6,3.6c-3.8,4.9-5.8,4.7-9.2-1.7c4.1-3.6,8.3-7.4,13.8-12.1
		c-3.8-1.5-6.2-2.9-8.7-3.3c-6.5-0.9-13.1-1.1-19.6-1.9C307.9,409,303.5,409.4,301.3,415.8z M158.1,374.4c0.5,0.3,0.9,0.5,1.4,0.8
		c-0.9,7.4-8.9,13.2-5.7,22.5c4.4-4.9,10.2-7.6,11.8-14.3c1.1-4.5,4.4-7.5,10.4-8c-2.5,3.7-4.6,6.7-6.9,10.2c7-1.8,8.6-1.1,11.5,4.9
		c0.7,1.5,1.3,3,2.1,4.4c2.4,4.6,6.4,2.8,10,2.3c3.7-0.5,2.9-3.3,2.9-5.6c0.1-7.2,0.1-14.5,0.1-21.7c-0.2-38.4-3-76.8,1.9-115.2
		c0.7-5.4-0.9-6.3-6.6-6.1c-8.7,0.3-17.3,0.3-26,0.1c-7.2-0.2-14.4-1-21.6-1.2c-5.3-0.1-7,1.9-7.1,7.2c0,1.6,0.1,3.3,0.2,4.9
		c0.9,25.3,2,50.5,2.6,75.8c0.2,11-1,22-1.1,33c-0.1,8.9,3.5,15.4,9.8,18.8c-1.4-3.6-2.8-7-4.1-10.5c0.4-0.3,0.8-0.6,1.2-0.9
		c2.5,1.2,5,2.4,7.9,3.8C154.3,378.1,156.2,376.3,158.1,374.4z M301.8,404.2c12.2,0.7,23.8,1.4,35.4,1.8c4.4,0.2,6.3-2.9,7.1-6.8
		c2.6-11.5,6.4-22.9,7.7-34.5c3.7-32.4,6.4-65,9.3-97.5c0.5-5.4-1.5-6.8-7.1-6.9c-9.7-0.2-19.4-0.4-29-0.8
		c-5.2-0.2-10.4-0.7-16.1-1.1C306.6,307.2,304.2,355.5,301.8,404.2z M249.8,396.8c15.5,2,30.6,4,45.9,6c8.8-66,8-131.6,8.3-197.2
		c-15.8,0-30.9,0-46.8,0c0,29.5,0,58.8,0,88.8c7.3-27.8,1.7-55.9,6.3-83.5c4.2,8.3,10.6,8.6,18.2,6.4c5.5-1.5,11.1-2.3,16.9-3.4
		c0.1,1.2,0.3,2.2,0.3,3.1c-1.1,26.6-2,53.2-3.3,79.7c-0.5,10.2-3.6,20.7,6.6,29.1c-3.1,1.2-5.2,2.4-7.3,2.7
		c-8.5,0.8-16.9,1.7-25.4,1.7c-8.7,0-12.3-3.8-12.8-12.6c-0.2-4.1,0-8.3,0-12.4C251.9,335.4,247.1,365.6,249.8,396.8z M252.4,206.9
		c-13.6,1.6-26.7,2.8-39.6,4.7c-9.4,1.4-10.1,3.1-10.1,12.8c-0.1,16.1-0.1,32.2-1,48.3c-2.3,39.4-2.4,78.8-0.3,118.2
		c0.3,6,2.1,7.6,8,7.5c10.3-0.2,20.7-0.6,31-0.7c2.9,0,4.6-0.7,3.7-4c-3.9-14.1-1-28.1,0.3-42.1c2.1-21.9,4.6-43.7,6.3-65.7
		c1.1-14.1,1.3-28.2,1.6-42.3C252.6,231.7,252.4,219.7,252.4,206.9z M266.4,222.8c-0.3,9.7-0.7,18.9-1,28.1
		c-0.3,9.3,0.1,18.8-1.1,28c-1.7,13.4-2.6,26.8-1,40.3c0.5,4.2,2.1,6.8,6.8,6.4c3.8-0.3,7.6-0.3,11.3-0.2c4.9,0.1,7.1-2.3,7.4-7.1
		c2.1-31.6,4.2-63.3,6.3-94.9c0.1-0.8-0.2-1.5-0.3-2.8C285.4,221.3,276.2,222,266.4,222.8z M125.6,395c0.5-0.4,1.1-0.7,1.6-1.1
		c-0.8-6.2-4.8-11.1-7.4-16.6c-2.5-5.3-5.2-10.7-6.3-16.3c-3.4-16.5-5.9-33.3-9.3-49.8c-3.7-18.1-2.7-36.4-1.2-54.5
		c1-11.5,4.8-22.8,7.8-34c7.2-27.4,16.3-53.9,38.9-73.1c0.4-0.3,0.7-0.7,1-1.1c12.6-16.5,29-28,47.6-36.6c12.5-5.8,25.3-11,38-16.3
		c4.4-1.9,7.7-4.7,9.5-10c-2,0.8-3.5,1.3-4.9,1.9c-12.9,5.2-25.8,10.5-38.8,15.6c-47,18.5-78.5,51.8-92.9,100.1
		c-5.6,18.8-7.9,38.5-11.5,57.9c-3,15.9-5.1,31.8-3.4,48c3.1,29.3,12.8,56.5,27.5,82C122.7,392.6,124.3,393.7,125.6,395z
		 M119.4,457.8c2.7,0,4.8,0,6.9,0c20.7,0.2,41.4,0.4,62.1,0.7c29.6,0.3,59.1,0.7,88.7,1c3,0,6-0.2,8.9,0.3
		c17.5,3.2,35.1,1.3,52.6-0.2c8.8-0.8,17.7-1.5,26.4-2.9c6.5-1,9.3-4.6,9.4-10.4c-0.5-0.1-1-0.2-1.4-0.2c-35.8,1.4-71.6,3-107.4,4.2
		c-18.1,0.6-36.1,0.5-54.2,0.4c-12.3-0.1-24.6-1.2-36.9-1c-15.3,0.3-30.5,1.4-45.8,2.2C124.9,452.1,121.5,453,119.4,457.8z
		 M359,388.7c0.4,0.1,0.8,0.3,1.2,0.4c1.9-4.8,4.3-9.4,5.7-14.3c5-18,9.4-36.2,14.6-54.1c9.6-33,13.8-66.3,9.3-100.7
		c-4.5-34-17.4-63.4-43.4-86.4c-5.2-4.6-10.5-9-15.4-13.8c-16-15.7-36.3-21.7-57.5-25.7c-0.3-0.1-0.7,0.4-1.6,0.9
		c9.9,6.6,19.8,12.2,30.8,15.5c10.3,3.1,19.4,8.3,26.3,16.6c13.6,16.4,27,33.1,40.1,49.9c5.4,6.9,8.5,15.1,9.6,24
		c1.5,12.4,3.6,24.7,4.5,37.1c1,14.7,3,29.8,0.8,44.2c-4.1,27.2-8.9,54.4-17.3,80.8C364,371.5,361.6,380.1,359,388.7z M116,449.8
		c-1.1-4.5-1.2-8.4-2.9-11.5c-4-7.7-12.1-7.9-19.5-9.2c0.1-0.9,0.2-1.9,0.3-2.8c6.1-0.2,12.1,2.8,18.7,3.4
		c-1.9-4.9-3.5-9.3-5.4-14.2c-6.3,3.2-12.3,5.8-17.8,9.3c-6.5,4-7.1,9.4-2.3,15.2c1.9,2.3,4,4.3,6,6.5c3.3-2,6.3-4.1,9.5-5.5
		c3.4-1.5,6.9,0.6,8.6,5.2c-4.2-1.9-8.8-5.3-10.3,2.6C105.5,449.1,109.9,449.4,116,449.8z M303.2,74.3c0.6,6.7,1.1,13.1,1.9,19.4
		c0.2,1.7,0.9,3.9,2.2,4.7c4.9,3.1,10.1,5.7,15.8,8.8c-0.5-10.8-1-20.6-1.5-30.4c-0.2-2.9-1.8-4-4.6-3.8
		C312.6,73.5,308.2,73.9,303.2,74.3z M398.6,484.2c-4.7-8.8,4.9-4.4,6.9-8c-0.7-1.4-1.6-3.1-2.4-4.7c-6.7,0.5-11-1.8-14.1-7.3
		c-1.6-2.8-3.5-5.3-5.3-8.2c-2.9,1.9-5.2,3.3-8.1,5.2c3.3,0.5,5.6,0.8,8.8,1.3c-2.6,2-4.3,3.3-5.9,4.7c-1,0.9-2.9,2.4-2.7,3.1
		c1.2,3.9,2.6,7.8,4.7,11.2c0.5,0.8,3.8-0.4,5.8-0.1c1.4,0.2,2.6,1.2,3.9,1.8c-0.9,1.2-1.6,2.7-2.7,3.5c-1.3,0.9-3.1,1-5.7,1.8
		C389.5,492,393.7,487.5,398.6,484.2z M150.9,477c0.3-0.8,0.6-1.5,1-2.3c-1.4-0.9-2.7-2-4.2-2.5c-7.5-2.8-15-5.7-22.7-7.8
		c-1.9-0.5-4.7,1.2-6.7,2.5c-2.1,1.4-4.2,3.3-5.4,5.4c-1.2,2.1-1.1,4.9-1.6,7.4c1.9-0.5,4.4-0.5,5.5-1.7c3.4-3.5,6.5-6.1,11.2-2
		c0.5,0.4,1.8,0,2.6-0.1c0.8,2.1,1.5,4.1,2.3,6.3C139.2,480.5,145.1,478.7,150.9,477z M344.3,469c-3.8,0.7-6.9,1.2-10.5,1.9
		c1.5,3.3,2.9,6.2,4.3,9.3c-1.9,0.5-3.6,0.9-6.5,1.7c2.2,1.7,3.9,4.1,5.2,3.9c10.2-1.6,20.4-3.7,31.8-5.9c-2.8-3.8-4.2-6.4-6.2-8.4
		c-2.7-2.7-4.9-1.8-6,1.8c-0.6,1.9-1.9,3.6-2.8,5.3c-0.4-0.2-0.8-0.3-1.3-0.5c-0.7-2.6-1.3-5.1-2.4-9c-1.9,4-3.1,6.8-4.4,9.6
		c-0.4-0.2-0.8-0.3-1.2-0.5C344.3,475.4,344.3,472.5,344.3,469z M141.3,488.3c11.2,1,21.1,4,30.6,8.8c1.9,1,4.7,0.3,7,0.4
		c0.1-0.5,0.2-1,0.4-1.5c-7.6-4.9-15.1-9.8-22.8-14.8c2.9-3.6,5.5-6.9,8.4-10.6c-2.2-1.5-4-2.7-6.8-4.6
		C157.2,477.6,150.2,483.6,141.3,488.3z M176.9,491.2c5.2-3.3,10-6.5,15.3-9.9c-0.3,2.7-0.5,4.7-0.7,6.7c2.2,0.3,4,0.9,5.7,0.7
		c2-0.2,4-0.9,6-1.4c-1-1.8-1.7-4-3.1-5.3c-2.9-2.7-7.4-4.1-5.4-10c-6.9,0.7-13.1,1.3-20.1,2c3,3.3,5.2,5.8,7.5,8.4
		c-2.8,2.1-5,3.8-7.4,5.7C175.4,489.2,176.1,490.2,176.9,491.2z M372.3,494.8c0.1-0.6,0.3-1.2,0.4-1.7c-3-1.1-6.2-3.6-8.8-3.1
		c-7.9,1.5-15.7,4.2-23.7,6.4C346,502.8,347.4,502.7,372.3,494.8z M115.9,428c2.3-1.4,4.4-2.6,6.5-3.9c7.6-4.6,7.6-4.6,5.3-13.7
		c-2.2,0.6-4.3,1.1-6.5,1.8C109.8,415.4,109,417.7,115.9,428z M360.3,442.6c2.2-0.6,3.9-1,5.5-1.4c-0.2-3.1-0.4-5.8-0.7-8.8
		c4.9,1.4,3.5,10.1,10.6,7c-1.4-8.9-10.2-9.4-15.5-15.2C360.3,431,360.3,436.5,360.3,442.6z M153.2,463.9c-6.2,0-11.9,0-17.6,0
		c-0.1,0.4-0.1,0.8-0.2,1.1c5.6,1.5,11.3,3.1,17.2,4.7C152.8,467.6,153,466,153.2,463.9z M142.3,388.6c-1.6,11.6-0.1,13.7,9,13.2
		C148.2,397.2,145.3,392.9,142.3,388.6z M159.7,480.4c0.2,0.5,0.4,1,0.6,1.5c4,0.9,8.1,1.8,12.1,2.8c0.4-0.7,0.7-1.4,1.1-2
		c-2.6-2.1-4.9-4.9-7.8-6.1C164.3,476.1,161.7,479.1,159.7,480.4z M188.6,464.9c-5.6-0.5-10.9-0.9-17.3-1.4
		C180,470.7,184.2,471,188.6,464.9z M214.5,486.8c1.6-7.6-0.1-9.6-8.9-9.9C207.3,481.7,211.4,483.7,214.5,486.8z M164.7,395.1
		c4.4,1.9,8.3,3.7,12.8,5.6C174.4,392,171.8,390.8,164.7,395.1z M188.9,492.9c6.2,5.4,10.7,5.1,14.8-0.9
		C198.7,492.3,194.3,492.6,188.9,492.9z"/>
	<path class="st0" d="M444.8,453.6c-0.2-5-9.4-8.1-1.9-13.7c-6.2-2.1-7.4-1.1-6.8,5.1c0.2,1.8,0.2,3.5,0.3,5.8
		c-3.6-0.2-7.2-2.1-9.9,1.1c-1-1.2-2.7-2.4-2.8-3.7c-0.1-2.2,0.3-4.9,1.5-6.6c1.4-1.9,3.9-2.8,6-4.2c1.8-1.2,3.5-2.4,5.3-3.8
		c-3.1-1.8-6.1-3.5-9-5.3c0.3-0.8,0.6-1.6,0.9-2.4c4.2,1,8.4,2,13.5,3.1c0.4,0.7,1.4,2.1,2.7,4.1c1.6-1.9,3.1-3.7,4.4-5.4
		c2.2,2.2,4,4.6,6.3,5.9c1.2,0.6,3.5-0.8,6-1.4c-2.7-5.2-5.1-9.8-8.3-15.9c6.3,1.2,11.4,2.2,16.4,3.1c0,0.6,0.1,1.2,0.1,1.8
		c-1.9,1.1-3.7,2.2-5.9,3.4c0.4,2,0.7,4,1.2,6.8c6-6.6,14-10.5,16.5-19.3c0.2-0.9,2.2-1.6,3.5-1.7c5.7-0.8,7.6-2.8,8.2-8.2
		c0.1-1.1,1.6-2,3.1-3.8c0.5,2.3,0.8,3.4,1,4.4c0.2,0.9,0.3,1.9,0.6,3.3c2.7-0.1,5.2-0.3,9.3-0.5c-0.7,3.6-1.2,6.7-1.8,9.8
		c-3.6-0.7-7.2-1.5-10.9-2.2c-0.6,2.2-1.5,5-2.7,9.1c-1.8-2.5-2.8-4-4.3-6.1c-1.9,1.4-3.7,2.8-5.7,4.4c1.7,1.5,3.2,2.8,6,5.2
		c-2.9,0.5-4.5,1.1-6.1,1.1c-1.3,0-2.6-1-3.8-0.8c-1.2,0.2-2.2,1.4-3.2,2.1c0.7,0.9,1.2,2.3,2.1,2.6c5.1,1.8,10.2,3.8,15.5,4.9
		c2.3,0.5,5-1.2,7.6-1.9c-2.3,8.6,5.1,14.2,7.6,21.8c2.2-0.6,4.1-1.2,6.3-1.9c0.4,3.7,1.1,7.1,1.1,10.5c0,1.7-0.7,4.4-2,5
		c-1.2,0.6-4.1-0.4-5-1.7c-2.1-3-3.4-6.5-5.2-10c-1.2,0.8-2.7,1.7-4.6,2.9c-2.1-6.1-4.1-11.9-6.4-18.7c-2.6,4-4.7,7-6.5,10.2
		c-0.4,0.8,0,2.5,0.6,3.4c1.7,2.8,3.9,5.3,5.6,8.1c6.6,10.9,3.7,22.1-8.1,26.9c-14.7,6-30.3,7.1-45.9,4.5
		c-6.7-1.1-10.9-5.8-12.4-12.6c-1.6-7.6,0.9-14,6.7-18.9C435.9,460,440.5,456.8,444.8,453.6z M452.2,449.1
		c-0.7,8.5-6.7,11.9-12.8,15.3c-2.5,1.4-4.7,3.7-6.4,6c-7.3,9.6-3.5,19.6,8.5,20.5c9,0.7,18.3-0.3,27.3-1.7
		c7.7-1.2,13.7-6.2,18.4-12.3c1.3-1.7,2.7-4.5,2.1-6.1c-2.6-6.9-6.8-12.7-13.4-17.3c-1,2.8-1.7,5.6-1.3,8.2c0.7,4.1,0.8,7.2-4.7,5.9
		c-0.8,2.5-1.6,4.6-2.7,7.8c-3.9-3.8-7.2-7-10.8-10.5c5.1-3.9,9.3-7.1,14.1-10.7C464.1,452.4,458.5,450.9,452.2,449.1z M483.7,442.3
		c-5.5-4.9-17.8-6.1-24.4-2.3c1,1.5,2,3,3.1,4.4c1.1,1.5,2.3,2.9,4.2,5.5c0-3.6,0-5.6,0-7.8C476.7,449.6,477.9,449.6,483.7,442.3z"
		/>
	<path class="st0" d="M316.1,11.8c10.4,4,13.4,9.1,14.8,26.4c7-7.3,6.3-10.2-6.6-26.1c6.7-3.3,16.5-0.5,22.1,6.4
		c5.3,6.6,5.7,15.2,0.8,21.2c-5.4,6.6-11.2,12.6-20.9,13.1c0.8,2,1.4,3.5,2.2,5.5c-6.4,5-13.6,6.8-21.5,5c-1.7-0.4-3-2.4-4.2-4.3
		c8.2,1.3,15.6,1.7,21.8-5.6c-7,0.8-13.7,2.6-18.7-4.7c3.2,0.3,5.8,0.5,8.4,0.7c0.4-0.4,0.8-0.9,1.2-1.3c-8.6-3.3-12.7-8.8-13.1-18
		C301.8,19.8,309.2,16.6,316.1,11.8z M312.8,15.6c3.9,8.8,7.4,16.8,11.2,25.4c4.5-6,2.8-11.5,0.8-16.9C323,19.2,319.5,16,312.8,15.6
		z M313.7,40.6c4.8-6.9,3.2-12.6-4.5-17.4C304.2,30.9,305.2,35.1,313.7,40.6z M339.7,40.6c7.8-8.4,6.6-20-2.1-24.3
		C338.3,24.2,339,32,339.7,40.6z"/>
	<path class="st0" d="M491.8,387.8c-9.1-6-17.9-11.7-15.9-25.3c-2.5,1.4-3.7,2.1-5.2,2.9c-1.2-2.1-2.3-4.1-3.5-6.1
		c8.6-3.6,13.9-0.3,13.1,8.4c-0.5,5.3,1.5,8.3,5.9,10.6C489.7,380.1,493,382.5,491.8,387.8z"/>
	<path class="st0" d="M191,264.6c-2.5,15.2-4.1,29.6-3.4,44.2c0.2,4.7-3.2,9.7-5.2,14.4c-0.3,0.7-2.6,1-3.9,0.8
		c-3.9-0.5-7.7-1.8-11.6-1.9c-5.1-0.2-10.5-0.2-15.4,1c-4.2,1-6.4-0.1-7.9-3.5c-0.8-1.7-0.9-3.8-0.9-5.8c0.4-14.8,0.8-29.5,1.5-44.3
		c0.2-3.3,1.5-6.6,2.5-10.7C160.8,269.1,176,266.1,191,264.6z M149.2,315.8c8.5,1,16.8,2.2,25.1,2.9c5,0.4,8.2-2.3,8.3-7
		c0.2-13.4,0.1-26.8,0.1-40.6c-11.4-1-22.3-2-33.4-3C149.2,284.2,149.2,299.5,149.2,315.8z"/>
	<path class="st0" d="M356.5,271.4c-1.6,19.7-3.1,38.8-4.7,59c-10.4-1.8-20.7-3.4-30.9-5.4c-4.2-0.8-6.2-3.9-6.2-8.3
		c-0.1-14.4-0.3-28.9-0.4-43.3c0-5.2,1.1-5.9,6.1-5.3c10.3,1.1,20.5,2,30.8,2.9C353.1,271.1,355.1,271.2,356.5,271.4z M317.5,274
		c0.8,13.8,1.3,26.7,2.6,39.6c0.2,2.4,3.1,5.5,5.5,6.4c5,1.9,10.5,2.5,15.7,3.8c4.4,1.1,6.1-1.3,6.6-5c0.5-3.4,0.5-6.9,0.7-10.3
		c0.6-10.6,1.2-21.2,1.8-32.5C339.5,275.3,328.9,274.7,317.5,274z"/>
	<path class="st0" d="M263.5,385.3c0-10.6,0-20.9,0-31.2c0-3.6,0.1-7.2,0-10.8c-0.2-3.4,1.4-4.5,4.5-3.8c3.1,0.8,5.4,1.1,8.9-0.7
		c3.7-1.8,9.2-0.3,13.9,0.3c1,0.1,2.3,2.7,2.3,4.2c0,13.8-0.2,27.6-0.4,41.3c-0.1,3.6-1.7,5.6-5.6,4.9
		C279.4,388.2,271.7,386.8,263.5,385.3z M268.4,345.6c0,10.1,0,19.9,0,29.7c0,3.1,0.9,6.3,4.1,6c1.7-0.2,4.3-3.7,4.4-5.8
		c0.5-8,0.3-16.1,0-24.1C276.6,345.3,275.3,344.5,268.4,345.6z M283.4,344.4c-3.3,3.2-2.7,28.6,0.8,37.8c3.4-1,3.7-3.7,3.7-6.4
		c0.1-7.9,0-15.7,0.3-23.6C288.3,348.4,287.3,345.7,283.4,344.4z"/>
	<path class="st0" d="M208.3,221.5c1.4,0.2,2.6,0.3,3.7,0.4c-0.1-0.3-0.3-0.6-0.4-0.9c1.7-1,3.2-2.6,5-2.9c8.7-1.5,17.5-2.7,26.6-4
		c0,38,0,75.6,0,113.7c-11.1,0.9-22,3.4-33.2,1.1c-4.9-1-7-3.8-6.8-8.6c0.4-10.3,0.7-20.7,1.2-31c0.9-20.3,1.9-40.6,2.9-61
		C207.3,226.2,207.8,224.2,208.3,221.5z M238.7,220.2c-4.2,0.4-7.7,0.4-11,1c-4.9,0.9-11.5,0.6-14.2,3.6c-3,3.4-2.4,9.9-3.3,15
		c-0.1,0.8,0,1.6-0.1,2.5c-0.4,23-0.8,46-1.2,68.9c-0.3,13.8-0.1,14,13.8,13.6c10.8-0.3,14.4-3.8,14.8-14.6
		c0.5-14.8,0.9-29.5,1.1-44.3C238.9,250.8,238.7,235.7,238.7,220.2z"/>
	<path class="st0" d="M233.1,336.9c0.7,2.1,1.7,3.7,1.7,5.3c0.2,11.4-0.1,22.9,0.3,34.3c0.4,11.2,0.6,11.2-10.3,11.2
		c-3,0-5.9,0-8.9,0.4c-3.5,0.4-5.4-0.9-5.5-4.4c-0.5-13-1.1-25.9-1.6-38.9c-0.2-4,1.8-5.2,5.6-4.3
		C223.9,342.8,223.9,342.7,233.1,336.9z M229.6,347.8c-7-1.1-7.9-0.5-7.6,4.7c0.4,6.7,1.1,13.3,1.9,20c0.3,2.5,1.4,4.8,2.1,7.3
		c1.2-2.5,3.3-4.9,3.5-7.5C229.9,364.2,229.6,356.1,229.6,347.8z M214.4,345.8c-0.4,0.3-0.9,0.6-1.3,0.8c1.3,11.7,2.7,23.3,4,35
		c0.5,0,0.9,0,1.4,0c0.3-0.6,0.9-1.3,0.9-1.9c-0.5-10-0.9-20-1.7-30C217.6,348.3,215.5,347.1,214.4,345.8z"/>
</g>
</svg>
