<?xml version="1.0" encoding="utf-8"?>
<!-- Generator: Adobe Illustrator 19.1.1, SVG Export Plug-In . SVG Version: 6.00 Build 0)  -->
<svg version="1.1"
	 id="svg3162" xmlns:inkscape="http://www.inkscape.org/namespaces/inkscape" xmlns:sodipodi="http://sodipodi.sourceforge.net/DTD/sodipodi-0.dtd" xmlns:svg="http://www.w3.org/2000/svg" xmlns:rdf="http://www.w3.org/1999/02/22-rdf-syntax-ns#" xmlns:cc="http://creativecommons.org/ns#" xmlns:dc="http://purl.org/dc/elements/1.1/" sodipodi:docname="New document 12" inkscape:version="0.48.1 "
	 xmlns="http://www.w3.org/2000/svg" xmlns:xlink="http://www.w3.org/1999/xlink" x="0px" y="0px" width="500px" height="160.1px"
	 viewBox="-182 326.5 500 160.1" style="enable-background:new -182 326.5 500 160.1;" xml:space="preserve">
<style type="text/css">
	.st0{fill:#FCA96B;}
	.st1{fill:#FFDAB9;}
</style>
<g>
	<g>
		<ellipse class="st0" cx="-119.5" cy="406.5" rx="26" ry="25"/>
		<g id="layer1" inkscape:label="Layer 1" inkscape:groupmode="layer">
			<path id="path18" inkscape:connector-curvature="0" class="st1" d="M-182,417.5c0-11.9,9.7-21.6,21.6-21.6c0.6,0,1.2,0,1.7,0.1
				c-7.3-3.5-12.3-10.9-12.3-19.5c0-11.9,9.7-21.6,21.6-21.6c8.6,0,16,5,19.5,12.3c0-0.6-0.1-1.1-0.1-1.7c0-11.9,9.7-21.6,21.6-21.6
				c11.9,0,21.6,9.7,21.6,21.6c0,4.5-1.4,8.8-3.8,12.2c3.5-2.4,7.7-3.8,12.2-3.8c11.9,0,21.6,9.7,21.6,21.6
				c0,11.9-9.7,21.6-21.6,21.6c-0.6,0-1.2,0-1.7-0.1c7.3,3.5,12.3,10.9,12.3,19.5c0,11.9-9.7,21.6-21.6,21.6c-8.6,0-16-5-19.5-12.3
				c0,0.6,0.1,1.1,0.1,1.7c0,11.9-9.7,21.6-21.6,21.6c-11.9,0-21.6-9.7-21.6-21.6c0-4.5,1.4-8.8,3.8-12.2c-3.5,2.4-7.7,3.8-12.2,3.8
				C-172.3,439-182,429.4-182,417.5L-182,417.5z M-133.6,406.5c0,7.8,6.3,14.1,14.1,14.1s14.1-6.3,14.1-14.1s-6.3-14.1-14.1-14.1
				S-133.6,398.7-133.6,406.5L-133.6,406.5z"/>
		</g>
	</g>
	<g>
		<ellipse class="st0" cx="68" cy="406.5" rx="26" ry="25"/>
		<g id="layer1_1_" inkscape:label="Layer 1" inkscape:groupmode="layer">
			<path id="path18_1_" inkscape:connector-curvature="0" class="st1" d="M-12,420.5c0-15.2,12.4-27.6,27.6-27.6
				c0.7,0,1.5,0,2.2,0.1C8.5,388.6,2,379.1,2,368.1c0-15.2,12.4-27.6,27.6-27.6c11,0,20.5,6.4,24.9,15.7c-0.1-0.7-0.1-1.5-0.1-2.2
				c0-15.2,12.4-27.6,27.6-27.6c15.2,0,27.6,12.4,27.6,27.6c0,5.8-1.8,11.2-4.9,15.7c4.4-3.1,9.8-4.9,15.7-4.9
				c15.2,0,27.6,12.4,27.6,27.6c0,15.2-12.4,27.6-27.6,27.6c-0.7,0-1.5,0-2.2-0.1c9.3,4.4,15.7,13.9,15.7,24.9
				c0,15.2-12.4,27.6-27.6,27.6c-11,0-20.5-6.4-24.9-15.7c0.1,0.7,0.1,1.5,0.1,2.2c0,15.2-12.4,27.6-27.6,27.6
				c-15.2,0-27.6-12.4-27.6-27.6c0-5.8,1.8-11.2,4.9-15.7c-4.4,3.1-9.8,4.9-15.7,4.9C0.3,448.1-12,435.8-12,420.5L-12,420.5z
				 M49.9,406.5c0,10,8.1,18.1,18.1,18.1s18.1-8.1,18.1-18.1c0-10-8.1-18.1-18.1-18.1S49.9,396.5,49.9,406.5L49.9,406.5z"/>
		</g>
	</g>
	<g>
		<ellipse class="st0" cx="255" cy="406.5" rx="26" ry="25"/>
		<g id="layer1_2_" inkscape:label="Layer 1" inkscape:groupmode="layer">
			<path id="path18_2_" inkscape:connector-curvature="0" class="st1" d="M208.5,449.8c-6.5-10-3.6-23.3,6.3-29.8
				c0.5-0.3,1-0.6,1.5-0.9c-8,1.1-16.2-2.4-20.9-9.6c-6.5-10-3.6-23.3,6.3-29.8c7.2-4.7,16.2-4.5,23-0.3c-0.3-0.5-0.7-0.9-1-1.4
				c-6.5-10-3.6-23.3,6.3-29.8c10-6.5,23.3-3.6,29.8,6.3c2.5,3.8,3.6,8.1,3.5,12.3c1.6-3.9,4.4-7.4,8.2-9.9
				c10-6.5,23.3-3.6,29.8,6.3c6.5,10,3.6,23.3-6.3,29.8c-0.5,0.3-1,0.6-1.5,0.9c8-1.1,16.2,2.4,20.9,9.6c6.5,10,3.6,23.3-6.3,29.8
				c-7.2,4.7-16.2,4.5-23,0.3c0.3,0.5,0.7,0.9,1,1.4c6.5,10,3.6,23.3-6.3,29.8c-10,6.5-23.3,3.6-29.8-6.3c-2.5-3.8-3.6-8.1-3.5-12.3
				c-1.6,3.9-4.4,7.4-8.2,9.9C228.3,462.6,215,459.7,208.5,449.8L208.5,449.8z M243.1,414.2c4.3,6.5,13,8.4,19.6,4.2
				c6.5-4.3,8.4-13,4.2-19.6s-13-8.4-19.6-4.2C240.7,398.9,238.8,407.7,243.1,414.2L243.1,414.2z"/>
		</g>
	</g>
</g>
</svg>
